<svg width="1726" height="871" viewBox="0 0 1726 871" fill="none" xmlns="http://www.w3.org/2000/svg">
<path fill-rule="evenodd" clip-rule="evenodd" d="M1669.8 -4.28225C1695.41 2.0972 1715.69 23.2784 1721.68 49.9066C1723.41 57.5838 1723.59 97.2024 1723.3 408.066C1723.3 408.066 1729.09 749.245 1723.3 764.864C1717.51 780.483 1710.75 785.44 1701.46 794.523C1692.24 803.543 1683.75 808.691 1671.66 812.603C1660.02 816.365 1610.74 814.816 855.957 815.101C855.957 815.101 62.2375 815.405 47.0383 815.405C39.2565 815.405 33.2821 819.104 33.2821 819.104C15.1284 828.266 4.85339 848.908 0.434326 870.071C-1.09131 877.374 -1.349 818.368 -1.45886 436.084L-1.58521 -6.35498L830.382 -6.24705C1546.5 -6.15343 1663.39 -5.88036 1669.8 -4.28225Z" fill="#DAE7CE"/>
</svg>
