<svg width="1848" height="911" viewBox="0 0 1848 911" fill="none" xmlns="http://www.w3.org/2000/svg">
<path fill-rule="evenodd" clip-rule="evenodd" d="M60.3452 2.15318C32.9576 8.78024 11.265 30.7835 4.85003 58.4453C3.00078 66.4205 2.80897 107.577 3.12235 430.506C3.12235 430.506 -3.071 784.927 3.12235 801.153C9.31571 817.378 16.5494 822.527 26.4818 831.962C36.3468 841.333 45.4228 846.681 58.3595 850.744C70.8046 854.653 123.511 853.043 930.803 853.339C930.803 853.339 1779.74 853.655 1795.99 853.655C1804.32 853.655 1810.71 857.498 1810.71 857.498C1830.12 867.016 1841.11 888.459 1845.84 910.443C1847.47 918.029 1847.75 856.734 1847.86 459.612L1848 0L958.156 0.112117C192.219 0.209375 67.2046 0.493044 60.3452 2.15318Z" fill="#DAE7CE"/>
<path fill-rule="evenodd" clip-rule="evenodd" d="M1395.3 780.02C1421.02 779.423 1449.66 775.577 1474.98 769.318C1533.49 754.857 1586.06 727.117 1631.66 686.64C1637.65 681.318 1654.83 664.147 1660.15 658.152C1694.08 619.92 1719.32 576.461 1735.19 528.889C1750.68 482.489 1756.74 433.081 1752.86 384.787C1749.08 337.713 1736.82 292.925 1716.21 250.876C1679.13 175.22 1615.79 113.869 1538.6 78.8434C1458.11 42.318 1368.85 36.0856 1283.2 61.0102C1271.45 64.4307 1252.37 71.1871 1246.28 74.0809C1243.66 75.3292 1243.36 75.3857 1254.78 72.454C1268.7 68.8786 1281.1 66.5365 1295.36 64.7901C1361.66 56.6732 1428.59 68.073 1488.45 97.6797C1543.2 124.759 1588.84 164.828 1622.62 215.475C1665.85 280.3 1685.78 359.041 1678.66 436.814C1669.61 535.537 1618.7 624.93 1538.02 683.764C1472.26 731.716 1389.23 754.685 1307.52 747.528C1255.45 742.967 1204.69 726.569 1159.54 699.722C1156.92 698.163 1154.72 696.948 1154.64 697.022C1154.57 697.096 1156.87 699.02 1159.77 701.296C1216.9 746.266 1286.01 773.316 1358.29 779.001C1365.93 779.602 1383.52 780.293 1388.33 780.181C1390 780.143 1393.14 780.07 1395.3 780.02ZM1477.38 669.548C1537.74 638.167 1584.52 590.387 1614.14 529.879C1631.1 495.218 1640.88 459.947 1644.57 420.187C1645.35 411.747 1645.65 386.411 1645.09 376.994C1640.84 306.193 1613.96 241.104 1567.17 188.301C1562.21 182.706 1548.77 169.186 1543.41 164.405C1498.09 123.974 1444.06 98.1438 1384.76 88.5526C1360.5 84.6311 1332.74 83.7289 1307.88 86.0539C1259.33 90.5929 1212.74 106.333 1171.55 132.114C1168.06 134.298 1165.21 136.175 1165.21 136.283C1165.21 136.392 1166.61 135.79 1168.33 134.946C1176.21 131.083 1190.87 125.225 1201.78 121.582C1226.63 113.279 1251.37 108.43 1280.34 106.177C1287.76 105.601 1312.52 105.604 1320.21 106.183C1350.13 108.432 1376.34 113.85 1402.99 123.294C1455.58 141.93 1502.34 174.652 1538.32 217.979C1577.52 265.203 1601.85 324.332 1607.68 386.575C1609.15 402.154 1609.31 424.641 1608.07 439.496C1602.46 506.705 1576.59 567.917 1532.21 618.934C1526.5 625.506 1510.58 641.471 1504.18 647.051C1495.06 655.01 1484.25 663.449 1475.76 669.248C1471.46 672.182 1471.85 671.885 1472.04 672.078C1472.13 672.166 1474.53 671.027 1477.38 669.548ZM1509.09 609.79C1517.67 600.03 1528.54 584.993 1536.48 571.896C1558.38 535.787 1572.06 494.758 1576.21 452.726C1578.17 432.868 1577.85 409.75 1575.32 389.614C1566.12 316.227 1529.2 250.033 1471.55 203.565C1447.62 184.27 1420.05 168.712 1390.76 157.96C1330.68 135.906 1265.04 134.999 1203.64 155.374C1148.54 173.663 1100.97 207.936 1066.18 254.411C1061.67 260.438 1054 271.491 1054 271.966C1054 272.1 1054.84 271.271 1055.86 270.125C1059.66 265.867 1070.44 255.117 1075.72 250.332C1119.57 210.542 1174.63 185.658 1233.86 178.857C1246.15 177.446 1250.59 177.223 1266.4 177.22C1282.16 177.218 1285.65 177.395 1298.76 178.859C1331.14 182.477 1364.54 192.541 1394.3 207.65C1433.59 227.592 1467.98 256.645 1494.31 292.149C1538.82 352.168 1557.8 428.457 1546.88 503.501C1541.6 539.817 1528.77 575.497 1509.47 607.521C1508.09 609.801 1506.89 611.788 1506.81 611.935C1506.3 612.782 1507.23 611.904 1509.09 609.79Z" fill="#6BA03A" fill-opacity="0.2"/>
</svg>
