<svg width="1726" height="871" viewBox="0 0 1726 871" fill="none" xmlns="http://www.w3.org/2000/svg">
<path fill-rule="evenodd" clip-rule="evenodd" d="M1669.8 -4.28225C1695.41 2.0972 1715.69 23.2784 1721.68 49.9066C1723.41 57.5838 1723.59 97.2024 1723.3 408.066C1723.3 408.066 1729.09 749.245 1723.3 764.864C1717.51 780.483 1710.75 785.44 1701.46 794.523C1692.24 803.543 1683.75 808.691 1671.66 812.603C1660.02 816.365 1610.74 814.816 855.957 815.101C855.957 815.101 62.2376 815.405 47.0383 815.405C39.2564 815.405 33.2821 819.104 33.2821 819.104C15.1284 828.266 4.85336 848.908 0.434307 870.071C-1.09133 877.374 -1.34901 818.368 -1.45888 436.084L-1.58515 -6.35498L830.382 -6.24705C1546.5 -6.15343 1663.39 -5.88036 1669.8 -4.28225Z" fill="#DAE7CE"/>
<path fill-rule="evenodd" clip-rule="evenodd" d="M387.181 778.287C361.46 777.69 332.827 773.845 307.5 767.585C248.992 753.125 196.425 725.385 150.825 684.907C144.83 679.586 127.659 662.414 122.337 656.419C88.4 618.188 63.1682 574.729 47.2894 527.157C31.8022 480.757 25.7449 431.349 29.6239 383.055C33.4049 335.981 45.6625 291.192 66.2726 249.144C103.356 173.488 166.696 112.137 243.884 77.111C324.376 40.5856 413.629 34.3531 499.28 59.2778C511.034 62.6983 530.119 69.4547 536.202 72.3484C538.826 73.5967 539.12 73.6533 527.707 70.7216C513.788 67.1462 501.385 64.8041 487.123 63.0577C420.823 54.9408 353.897 66.3406 294.033 95.9473C239.28 123.027 193.642 163.096 159.866 213.742C116.635 278.568 96.7003 357.309 103.829 435.082C112.878 533.805 163.787 623.198 244.466 682.032C310.222 729.983 393.255 752.953 474.965 745.796C527.038 741.235 577.795 724.836 622.94 697.99C625.562 696.431 627.767 695.216 627.841 695.29C627.915 695.363 625.61 697.287 622.717 699.564C565.589 744.533 496.478 771.584 424.19 777.269C416.552 777.869 398.968 778.56 394.154 778.449C392.482 778.41 389.344 778.337 387.181 778.287ZM305.107 667.815C244.747 636.435 197.963 588.655 168.349 528.146C151.385 493.486 141.601 458.215 137.919 418.454C137.138 410.014 136.831 384.678 137.396 375.261C141.645 304.461 168.524 239.371 215.317 186.568C220.275 180.974 233.719 167.454 239.078 162.672C284.394 122.241 338.42 96.4114 397.729 86.8202C421.98 82.8987 449.741 81.9965 474.607 84.3215C523.154 88.8605 569.741 104.6 610.932 130.381C614.423 132.566 617.279 134.442 617.279 134.551C617.279 134.66 615.871 134.058 614.15 133.214C606.273 129.351 591.615 123.492 580.709 119.85C555.849 111.547 531.119 106.698 502.141 104.445C494.729 103.869 469.962 103.872 462.271 104.45C432.352 106.699 406.141 112.117 379.493 121.561C326.905 140.198 280.14 172.919 244.169 216.247C204.964 263.47 180.635 322.6 174.8 384.843C173.339 400.422 173.176 422.908 174.415 437.763C180.021 504.973 205.898 566.184 250.27 617.201C255.986 623.773 271.901 639.739 278.3 645.319C287.426 653.277 298.234 661.717 306.727 667.515C311.024 670.449 310.635 670.152 310.441 670.345C310.353 670.433 307.953 669.295 305.107 667.815ZM273.392 608.058C264.814 598.297 253.945 583.261 246.001 570.164C224.101 534.055 210.422 493.025 206.273 450.994C204.312 431.136 204.639 408.018 207.164 387.882C216.369 314.495 253.288 248.301 310.932 201.833C334.869 182.537 362.43 166.979 391.722 156.227C451.804 134.174 517.447 133.267 578.84 153.641C633.946 171.93 681.519 206.204 716.304 252.679C720.815 258.705 728.484 269.759 728.484 270.234C728.484 270.367 727.648 269.539 726.625 268.392C722.826 264.134 712.042 253.385 706.769 248.599C662.918 208.81 607.859 183.926 548.625 177.125C536.336 175.714 531.893 175.49 516.086 175.488C500.327 175.485 496.83 175.662 483.726 177.127C451.345 180.745 417.945 190.809 388.18 205.917C348.892 225.86 314.508 254.913 288.176 290.417C243.662 350.436 224.684 426.725 235.6 501.769C240.881 538.084 253.717 573.765 273.018 605.788C274.393 608.069 275.59 610.055 275.679 610.203C276.186 611.05 275.249 610.171 273.392 608.058Z" fill="#6BA03A" fill-opacity="0.2"/>
</svg>
