<svg width="1848" height="911" viewBox="0 0 1848 911" fill="none" xmlns="http://www.w3.org/2000/svg">
<path fill-rule="evenodd" clip-rule="evenodd" d="M60.345 2.15318C32.9575 8.78024 11.2649 30.7835 4.84991 58.4453C3.00066 66.4205 2.80885 107.577 3.12223 430.506C3.12223 430.506 -3.07113 784.927 3.12223 801.153C9.31559 817.378 16.5492 822.527 26.4817 831.962C36.3466 841.333 45.4227 846.681 58.3594 850.744C70.8045 854.653 123.511 853.043 930.802 853.339C930.802 853.339 1779.74 853.655 1795.99 853.655C1804.32 853.655 1810.71 857.498 1810.71 857.498C1830.12 867.016 1841.11 888.459 1845.84 910.443C1847.47 918.029 1847.75 856.734 1847.86 459.612L1848 0L958.156 0.112117C192.219 0.209375 67.2044 0.493044 60.345 2.15318Z" fill="#DAE7CE"/>
</svg>
