<svg width="300" height="403" viewBox="0 0 300 403" fill="none" xmlns="http://www.w3.org/2000/svg">
<path d="M246.096 151.081H53.8973C49.6791 151.081 46.2595 154.502 46.2595 158.722V395.031C46.2595 399.251 49.6791 402.672 53.8973 402.672H246.096C250.314 402.672 253.734 399.251 253.734 395.031V158.722C253.734 154.502 250.314 151.081 246.096 151.081Z" fill="#6BA03A"/>
<path d="M292.363 0.182129H7.63829C3.42005 0.182129 0.000488281 3.60301 0.000488281 7.82289V381.01C0.000488281 385.23 3.42005 388.651 7.63829 388.651H292.363C296.581 388.651 300 385.23 300 381.01V7.82289C300 3.60301 296.581 0.182129 292.363 0.182129Z" fill="#92C154"/>
<path d="M59.2886 60.8487H196.069C197.761 60.8276 199.44 61.1405 201.01 61.7693C202.581 62.3982 204.013 63.3307 205.223 64.5135C206.433 65.6962 207.398 67.1061 208.063 68.6624C208.728 70.2187 209.079 71.8909 209.098 73.5833V267.588C209.079 269.281 208.728 270.953 208.063 272.509C207.398 274.066 206.433 275.475 205.223 276.658C204.013 277.841 202.581 278.774 201.01 279.402C199.44 280.031 197.761 280.344 196.069 280.323H59.2886C57.5969 280.344 55.9176 280.031 54.3469 279.402C52.7762 278.774 51.3449 277.841 50.1348 276.658C48.9246 275.475 47.9595 274.066 47.2946 272.509C46.6297 270.953 46.278 269.281 46.2598 267.588V73.5641C46.2805 71.8734 46.634 70.2033 47.3 68.6492C47.9661 67.0951 48.9316 65.6875 50.1414 64.5067C51.3513 63.3259 52.7818 62.3952 54.3513 61.7675C55.9208 61.1398 57.5985 60.8276 59.2886 60.8487Z" fill="#8C662D"/>
<path d="M66.2896 70.0244H187.171C190.259 70.063 193.206 71.3267 195.364 73.5379C197.522 75.7491 198.714 78.7267 198.678 81.8167V261.82C198.714 264.911 197.521 267.89 195.362 270.101C193.203 272.313 190.254 273.576 187.164 273.612H66.2896C63.1992 273.576 60.25 272.313 58.0898 270.102C55.9296 267.89 54.7353 264.912 54.7693 261.82V81.8167C54.7353 78.7251 55.9296 75.7464 58.0898 73.5353C60.25 71.3241 63.1992 70.0614 66.2896 70.0244Z" fill="white"/>
<path d="M176.063 139.944L214.291 125.483L254.389 139.969V182.986C254.389 182.986 248.82 212.747 217.639 214.6C187.202 213.862 176.07 184.527 176.07 184.527L176.063 139.944Z" fill="#8DC04E" stroke="#8DC04E" stroke-width="0.63673" stroke-miterlimit="10"/>
<path d="M183.115 146.826L212.833 135.486L243.988 146.826V180.529C243.988 180.529 239.66 203.839 215.423 205.291C191.771 204.712 183.115 181.732 183.115 181.732V146.826Z" fill="#7EB844" stroke="#7EB844" stroke-width="0.63673" stroke-miterlimit="10"/>
<path d="M207.983 177.199L203.038 172.309C202.529 172.091 201.966 172.036 201.426 172.15C200.885 172.264 200.392 172.542 200.014 172.945C198.741 174.359 199.76 176.129 199.76 176.129L206.64 183.178C206.64 183.178 208.492 184.591 211.045 181.993C213.597 179.395 230.648 162.172 230.648 162.172C230.648 162.172 231.437 159.854 230.298 158.854C229.159 157.855 226.447 158.854 226.447 158.854L207.983 177.199Z" fill="#FCFCFA" stroke="white" stroke-width="0.63673" stroke-miterlimit="10"/>
<path d="M126.513 44.5099C126.513 44.5099 116.673 44.3253 113.522 55.8374C103.128 56.2067 98.3037 56.022 98.3037 60.8484V76.633C98.3037 76.633 98.8575 81.644 102.759 81.644C107.393 81.4594 151.934 81.644 151.934 81.644C151.934 81.644 155.46 80.1605 155.46 77.3716V60.8484C155.46 60.8484 154.492 55.8374 149.782 55.8374C143.214 56.022 140.235 55.8374 140.235 55.8374C140.235 55.8374 138.943 45.4396 126.513 44.5099Z" fill="#E6C81C"/>
<path d="M126.723 73.2894C131.033 73.2894 134.526 69.7944 134.526 65.4831C134.526 61.1718 131.033 57.6768 126.723 57.6768C122.414 57.6768 118.92 61.1718 118.92 65.4831C118.92 69.7944 122.414 73.2894 126.723 73.2894Z" fill="white"/>
<path d="M172.887 202.616H74.2767C71.0052 202.616 68.3574 203.813 68.3574 205.29C68.3574 206.768 71.0052 207.965 74.2767 207.965H172.887C176.152 207.965 178.806 206.768 178.806 205.29C178.806 203.813 176.152 202.616 172.887 202.616Z" fill="#010101"/>
<path d="M172.887 219.924H74.2767C71.0052 219.924 68.3574 221.121 68.3574 222.598C68.3574 224.075 71.0052 225.272 74.2767 225.272H172.887C176.152 225.272 178.806 224.075 178.806 222.598C178.806 221.121 176.152 219.924 172.887 219.924Z" fill="#010101"/>
<path d="M171.824 237.229H73.2201C69.9486 237.229 67.3008 238.427 67.3008 239.904C67.3008 241.381 69.9486 242.578 73.2201 242.578H171.824C175.096 242.578 177.743 241.381 177.743 239.904C177.743 238.427 175.127 237.229 171.824 237.229Z" fill="#010101"/>
<path d="M115.439 117.295C115.454 117.275 115.462 117.25 115.462 117.225C115.462 117.2 115.454 117.175 115.439 117.155C113.031 112.568 110.289 108.165 107.234 103.981C106.025 102.319 104.803 100.753 103.587 99.2692C103.576 99.2579 103.563 99.2489 103.548 99.2427C103.533 99.2366 103.517 99.2334 103.501 99.2334C103.485 99.2334 103.469 99.2366 103.455 99.2427C103.44 99.2489 103.427 99.2579 103.415 99.2692C96.2107 105.602 90.5833 113.529 86.9814 122.421C85.1865 128.635 86.574 135.085 90.743 139.16C93.0726 141.371 96.0345 142.798 99.2146 143.242C99.2429 143.245 99.2715 143.239 99.2957 143.224C99.3199 143.209 99.3384 143.186 99.3482 143.159C102.762 133.47 108.249 124.643 115.426 117.295H115.439Z" stroke="#79BA69" stroke-width="1.62366" stroke-miterlimit="10"/>
<path d="M126.163 117.364C126.155 117.351 126.151 117.336 126.151 117.32C126.151 117.304 126.155 117.289 126.163 117.275C128.548 112.665 131.269 108.236 134.304 104.025C135.513 102.344 136.735 100.752 137.951 99.2559C137.958 99.2487 137.967 99.2431 137.976 99.2392C137.985 99.2354 137.995 99.2334 138.005 99.2334C138.015 99.2334 138.025 99.2354 138.034 99.2392C138.044 99.2431 138.052 99.2487 138.059 99.2559C145.303 105.546 150.986 113.435 154.659 122.299C156.492 128.507 155.149 134.964 151.005 139.064C148.679 141.296 145.712 142.744 142.521 143.203C142.504 143.204 142.486 143.2 142.471 143.191C142.456 143.182 142.445 143.168 142.438 143.152C138.964 133.457 133.409 124.642 126.163 117.326V117.364Z" stroke="#79BA69" stroke-width="1.62366" stroke-miterlimit="10"/>
<path d="M120.473 111.794C117.845 114.659 101.296 133.01 99.6923 144.325V144.395C99.5013 156.76 105.039 166.508 120.314 167.527H120.391C135.959 166.61 142.502 156.563 141.719 143.605C141.722 143.571 141.722 143.537 141.719 143.503C138.46 130.96 123.649 114.475 121.186 111.794C121.142 111.743 121.087 111.702 121.026 111.674C120.964 111.645 120.898 111.631 120.83 111.631C120.762 111.631 120.695 111.645 120.634 111.674C120.572 111.702 120.518 111.743 120.473 111.794Z" stroke="#79BA69" stroke-width="1.62366" stroke-miterlimit="10"/>
<path d="M120.918 158.294C127.917 158.294 133.591 152.618 133.591 145.617C133.591 138.615 127.917 132.939 120.918 132.939C113.92 132.939 108.246 138.615 108.246 145.617C108.246 152.618 113.92 158.294 120.918 158.294Z" stroke="#79BA69" stroke-width="1.80195" stroke-miterlimit="10"/>
<path d="M123.083 136.021L115.299 146.725H119.411L117.845 154.951L126.119 143.885H121.524L123.128 136.066C123.128 136.066 123.096 136.002 123.083 136.021Z" stroke="#79BA69" stroke-width="1.26073" stroke-miterlimit="10"/>
</svg>
