<svg width="300" height="403" viewBox="0 0 300 403" fill="none" xmlns="http://www.w3.org/2000/svg">
<path d="M245.683 151.08H54.3182C49.869 151.08 46.2622 154.688 46.2622 159.139V394.612C46.2622 399.063 49.869 402.671 54.3182 402.671H245.683C250.132 402.671 253.739 399.063 253.739 394.612V159.139C253.739 154.688 250.132 151.08 245.683 151.08Z" fill="#6BA03A"/>
<path d="M291.944 0.183594H8.05628C3.60705 0.183594 0.000244141 3.79186 0.000244141 8.24289V380.602C0.000244141 385.053 3.60705 388.662 8.05628 388.662H291.944C296.393 388.662 300 385.053 300 380.602V8.24289C300 3.79186 296.393 0.183594 291.944 0.183594Z" fill="#92C154"/>
<path d="M64.9085 67.4907H192.771C195.961 67.4512 199.035 68.6806 201.319 70.9086C203.603 73.1365 204.909 76.1806 204.949 79.3714V260.746C204.909 263.937 203.603 266.981 201.319 269.209C199.035 271.437 195.961 272.666 192.771 272.627H64.9085C61.7189 272.666 58.6443 271.437 56.3606 269.209C54.0769 266.981 52.7712 263.937 52.7305 260.746V79.3714C52.7712 76.1806 54.0769 73.1365 56.3606 70.9086C58.6443 68.6806 61.7189 67.4512 64.9085 67.4907Z" fill="#8C662D"/>
<path d="M71.4394 76.0679H184.445C187.331 76.1086 190.082 77.2925 192.095 79.3599C194.109 81.4273 195.221 84.2093 195.187 87.0957V255.354C195.221 258.24 194.109 261.022 192.095 263.089C190.082 265.157 187.331 266.341 184.445 266.381H71.4394C68.5543 266.341 65.8031 265.157 63.7894 263.089C61.7757 261.022 60.664 258.24 60.698 255.354V87.0957C60.664 84.2093 61.7757 81.4273 63.7894 79.3599C65.8031 77.2925 68.5543 76.1086 71.4394 76.0679Z" fill="white"/>
<path d="M135.707 104.167L109.673 150.031C109.666 150.044 109.662 150.058 109.662 150.072C109.662 150.087 109.666 150.101 109.674 150.113C109.681 150.126 109.692 150.136 109.705 150.143C109.718 150.149 109.732 150.153 109.747 150.152L126.047 148.332C126.058 148.331 126.07 148.332 126.081 148.336C126.092 148.34 126.101 148.347 126.109 148.355C126.117 148.364 126.123 148.374 126.126 148.385C126.129 148.396 126.13 148.408 126.127 148.419L123.308 181.563C123.302 181.582 123.303 181.602 123.312 181.62C123.321 181.637 123.336 181.651 123.355 181.657C123.373 181.663 123.394 181.662 123.412 181.653C123.429 181.644 123.443 181.629 123.449 181.61L151.35 134.074C151.358 134.062 151.362 134.047 151.362 134.033C151.362 134.018 151.358 134.004 151.35 133.992C151.342 133.98 151.331 133.97 151.318 133.965C151.305 133.959 151.29 133.957 151.276 133.959L133.056 135.974C133.045 135.975 133.034 135.974 133.024 135.97C133.013 135.967 133.004 135.961 132.996 135.953C132.989 135.945 132.983 135.936 132.979 135.926C132.975 135.915 132.974 135.905 132.975 135.894L135.869 104.207C135.874 104.186 135.87 104.163 135.859 104.144C135.848 104.125 135.829 104.112 135.808 104.106C135.787 104.101 135.764 104.105 135.745 104.116C135.726 104.127 135.713 104.146 135.707 104.167Z" fill="#F0C414" stroke="#F0C414" stroke-width="1.90075" stroke-miterlimit="10"/>
<path d="M174.061 141.422L209.796 127.889L247.27 141.422V181.638C247.27 181.638 242.067 209.456 212.924 211.189C184.473 210.517 174.061 183.075 174.061 183.075V141.422Z" fill="#8DC04E" stroke="#8DC04E" stroke-width="0.671641" stroke-miterlimit="10"/>
<path d="M180.687 147.863L208.433 137.238L237.556 147.842V179.348C237.556 179.348 233.528 201.135 210.857 202.491C188.743 201.947 180.646 180.469 180.646 180.469L180.687 147.863Z" fill="#7EB844" stroke="#7EB844" stroke-width="0.671641" stroke-miterlimit="10"/>
<path d="M203.901 176.251L199.276 171.677C198.801 171.474 198.276 171.421 197.771 171.526C197.265 171.63 196.804 171.887 196.449 172.262C196.119 172.673 195.919 173.174 195.877 173.7C195.836 174.226 195.953 174.752 196.214 175.21L202.639 181.799C202.639 181.799 204.378 183.142 206.761 180.69C209.144 178.239 225.089 162.161 225.089 162.161C225.089 162.161 225.82 159.992 224.76 159.058C223.699 158.124 221.161 159.058 221.161 159.058L203.901 176.251Z" fill="#FCFCFA" stroke="white" stroke-width="0.671641" stroke-miterlimit="10"/>
<path d="M173.456 198.784H83.8932C80.9258 198.784 78.5225 199.872 78.5225 201.215C78.5225 202.558 80.9326 203.64 83.8932 203.64H173.456C176.423 203.64 178.827 202.552 178.827 201.215C178.827 199.878 176.423 198.784 173.456 198.784Z" fill="#010101"/>
<path d="M173.456 218.569H83.8932C80.9258 218.569 78.5225 219.657 78.5225 220.993C78.5225 222.33 80.9326 223.425 83.8932 223.425H173.456C176.423 223.425 178.827 222.337 178.827 220.993C178.827 219.65 176.423 218.569 173.456 218.569Z" fill="#010101"/>
<path d="M173.429 237.744H83.4697C80.489 237.744 78.0654 238.832 78.0654 240.175C78.0654 241.518 80.489 242.606 83.4697 242.606H173.429C176.416 242.606 178.833 241.518 178.833 240.175C178.833 238.832 176.416 237.744 173.429 237.744Z" fill="#010101"/>
<path d="M127.745 52.2184C127.745 52.2184 118.548 52.0438 115.601 62.8097C105.886 63.1522 101.375 62.9776 101.375 67.5109V82.2863C101.375 82.2863 101.892 86.9876 105.537 86.9876C109.874 86.8197 151.51 86.9876 151.51 86.9876C151.51 86.9876 154.807 85.6041 154.807 82.9982V67.5512C154.807 67.5512 153.9 62.85 149.496 62.85C143.354 63.0179 140.581 62.85 140.581 62.85C140.581 62.85 139.366 53.0848 127.745 52.2184Z" fill="#E6C81C"/>
<path d="M127.946 79.1237C131.976 79.1237 135.243 75.8552 135.243 71.8233C135.243 67.7914 131.976 64.5229 127.946 64.5229C123.916 64.5229 120.648 67.7914 120.648 71.8233C120.648 75.8552 123.916 79.1237 127.946 79.1237Z" fill="white"/>
<path d="M40.32 332.027C39.36 332.027 38.52 331.901 37.8 331.647C37.08 331.407 36.48 331.054 36 330.587C35.52 330.121 35.16 329.547 34.92 328.867C34.6933 328.187 34.58 327.414 34.58 326.547V322.507C34.58 321.721 34.7 321.007 34.94 320.367C35.18 319.714 35.5333 319.154 36 318.687C36.48 318.221 37.06 317.861 37.74 317.607C38.4333 317.354 39.22 317.227 40.1 317.227C40.78 317.227 41.3867 317.294 41.92 317.427C42.4667 317.547 42.9267 317.707 43.3 317.907C43.6867 318.094 43.9867 318.294 44.2 318.507C44.2267 318.534 44.2467 318.567 44.26 318.607C44.2733 318.647 44.28 318.687 44.28 318.727C44.2933 318.767 44.3 318.807 44.3 318.847C44.3 319.341 44.3 319.907 44.3 320.547C44.3 321.174 44.3 321.774 44.3 322.347C43.9133 322.347 43.5267 322.347 43.14 322.347C42.7533 322.347 42.3667 322.347 41.98 322.347C41.9133 322.347 41.86 322.327 41.82 322.287C41.78 322.247 41.76 322.194 41.76 322.127C41.76 321.887 41.76 321.647 41.76 321.407C41.76 321.167 41.76 320.901 41.76 320.607C41.76 320.301 41.76 319.947 41.76 319.547L42.32 320.387C41.9867 320.174 41.64 320.027 41.28 319.947C40.92 319.854 40.5133 319.807 40.06 319.807C39.5267 319.807 39.06 319.907 38.66 320.107C38.2733 320.294 37.9733 320.594 37.76 321.007C37.56 321.421 37.46 321.947 37.46 322.587V326.327C37.46 326.927 37.5133 327.434 37.62 327.847C37.74 328.247 37.9333 328.581 38.2 328.847C38.44 329.087 38.74 329.261 39.1 329.367C39.4733 329.461 39.8867 329.507 40.34 329.507C41.0733 329.507 41.72 329.421 42.28 329.247C42.84 329.074 43.4267 328.794 44.04 328.407H44.42C44.42 328.594 44.42 328.781 44.42 328.967C44.42 329.141 44.42 329.321 44.42 329.507C44.42 329.681 44.42 329.861 44.42 330.047C44.42 330.221 44.42 330.407 44.42 330.607C44.42 330.674 44.4067 330.734 44.38 330.787C44.3667 330.841 44.34 330.881 44.3 330.907C44.1133 331.107 43.8267 331.294 43.44 331.467C43.0533 331.627 42.5933 331.761 42.06 331.867C41.5267 331.974 40.9467 332.027 40.32 332.027ZM51.3369 320.627C52.2435 320.627 53.0302 320.814 53.6969 321.187C54.3769 321.561 54.9035 322.081 55.2769 322.747C55.6502 323.414 55.8369 324.194 55.8369 325.087V326.747C55.8369 326.787 55.8302 326.827 55.8169 326.867C55.8035 326.894 55.7769 326.914 55.7369 326.927C55.7102 326.941 55.6769 326.947 55.6369 326.947H51.0369C50.8102 326.947 50.5769 326.947 50.3369 326.947C50.1102 326.947 49.8835 326.947 49.6569 326.947H48.8369L48.7769 325.267H53.2169C53.2169 325.214 53.2169 325.167 53.2169 325.127C53.2169 325.087 53.2169 325.041 53.2169 324.987C53.2169 324.601 53.1769 324.274 53.0969 324.007C53.0169 323.727 52.8902 323.507 52.7169 323.347C52.5702 323.187 52.3835 323.074 52.1569 323.007C51.9302 322.941 51.6569 322.907 51.3369 322.907C50.6702 322.907 50.1702 323.074 49.8369 323.407C49.5169 323.727 49.3569 324.254 49.3569 324.987V327.427C49.3569 327.747 49.3969 328.034 49.4769 328.287C49.5702 328.527 49.6969 328.734 49.8569 328.907C50.0702 329.121 50.3502 329.274 50.6969 329.367C51.0569 329.461 51.4702 329.507 51.9369 329.507C52.4169 329.507 52.8435 329.487 53.2169 329.447C53.5902 329.394 53.9369 329.327 54.2569 329.247C54.5769 329.154 54.8902 329.054 55.1969 328.947H55.5769C55.5769 329.281 55.5769 329.621 55.5769 329.967C55.5769 330.301 55.5769 330.641 55.5769 330.987C55.5769 331.014 55.5702 331.041 55.5569 331.067C55.5435 331.094 55.5235 331.121 55.4969 331.147C55.3902 331.254 55.1502 331.361 54.7769 331.467C54.4169 331.574 53.9769 331.667 53.4569 331.747C52.9502 331.827 52.4302 331.867 51.8969 331.867C51.0302 331.867 50.2635 331.767 49.5969 331.567C48.9435 331.354 48.3969 331.054 47.9569 330.667C47.5302 330.281 47.2035 329.814 46.9769 329.267C46.7635 328.707 46.6569 328.081 46.6569 327.387V325.107C46.6569 324.427 46.7635 323.814 46.9769 323.267C47.2035 322.721 47.5235 322.254 47.9369 321.867C48.3502 321.467 48.8435 321.161 49.4169 320.947C49.9902 320.734 50.6302 320.627 51.3369 320.627ZM61.3091 322.787H62.1091C62.2691 322.294 62.4557 321.894 62.6691 321.587C62.8824 321.267 63.1424 321.034 63.4491 320.887C63.7691 320.741 64.1291 320.667 64.5291 320.667C64.7424 320.667 64.9157 320.687 65.0491 320.727C65.1957 320.767 65.2957 320.807 65.3491 320.847C65.4024 320.887 65.4357 320.927 65.4491 320.967C65.4624 320.994 65.4691 321.041 65.4691 321.107C65.4691 321.321 65.4691 321.534 65.4691 321.747C65.4691 321.947 65.4691 322.147 65.4691 322.347C65.4691 322.547 65.4691 322.754 65.4691 322.967C65.4691 323.167 65.4691 323.374 65.4691 323.587H65.0891C64.9557 323.547 64.8091 323.514 64.6491 323.487C64.4891 323.461 64.3091 323.447 64.1091 323.447C63.6957 323.447 63.3291 323.527 63.0091 323.687C62.7024 323.847 62.4157 324.074 62.1491 324.367C61.8824 324.647 61.6024 324.981 61.3091 325.367V322.787ZM61.6891 331.627C61.3957 331.627 61.0957 331.627 60.7891 331.627C60.4957 331.627 60.2024 331.627 59.9091 331.627C59.6157 331.627 59.3224 331.627 59.0291 331.627C58.9891 331.627 58.9557 331.627 58.9291 331.627C58.9024 331.614 58.8757 331.601 58.8491 331.587C58.8357 331.561 58.8224 331.534 58.8091 331.507C58.8091 331.481 58.8091 331.447 58.8091 331.407C58.8091 330.914 58.8091 330.394 58.8091 329.847C58.8091 329.287 58.8091 328.714 58.8091 328.127C58.8091 327.541 58.8091 326.954 58.8091 326.367C58.8091 325.767 58.8091 325.174 58.8091 324.587C58.8091 323.987 58.8091 323.401 58.8091 322.827C58.8091 322.454 58.8091 322.101 58.8091 321.767C58.8091 321.434 58.8091 321.134 58.8091 320.867C59.1424 320.867 59.4557 320.867 59.7491 320.867C60.0557 320.867 60.3491 320.867 60.6291 320.867C60.9224 320.867 61.2024 320.867 61.4691 320.867C61.5224 320.867 61.5624 320.881 61.5891 320.907C61.6157 320.921 61.6357 320.941 61.6491 320.967C61.6757 320.994 61.6891 321.034 61.6891 321.087C61.6891 321.701 61.6891 322.347 61.6891 323.027C61.6891 323.707 61.6891 324.401 61.6891 325.107C61.6891 325.814 61.6891 326.541 61.6891 327.287C61.6891 328.021 61.6891 328.754 61.6891 329.487C61.6891 330.207 61.6891 330.921 61.6891 331.627ZM67.5036 320.867H75.2236C75.3036 320.867 75.3636 320.887 75.4036 320.927C75.4436 320.967 75.4636 321.021 75.4636 321.087C75.4636 321.367 75.4636 321.627 75.4636 321.867C75.4636 322.107 75.4636 322.354 75.4636 322.607C75.4636 322.861 75.4636 323.121 75.4636 323.387H67.7436C67.7169 323.387 67.6903 323.381 67.6636 323.367C67.6369 323.354 67.6103 323.341 67.5836 323.327C67.5569 323.301 67.5369 323.274 67.5236 323.247C67.5103 323.221 67.5036 323.194 67.5036 323.167C67.5036 322.901 67.5036 322.641 67.5036 322.387C67.5036 322.134 67.5036 321.887 67.5036 321.647C67.5036 321.407 67.5036 321.147 67.5036 320.867ZM75.4636 329.047C75.4636 329.447 75.4636 329.847 75.4636 330.247C75.4636 330.634 75.4636 331.021 75.4636 331.407C75.4636 331.461 75.4436 331.514 75.4036 331.567C75.3636 331.607 75.3103 331.627 75.2436 331.627C75.1103 331.627 74.9703 331.627 74.8236 331.627C74.6903 331.627 74.5503 331.627 74.4036 331.627C74.2703 331.627 74.1369 331.627 74.0036 331.627C73.8703 331.627 73.7303 331.627 73.5836 331.627C72.8903 331.627 72.2703 331.547 71.7236 331.387C71.1769 331.214 70.7103 330.954 70.3236 330.607C69.9369 330.261 69.6436 329.814 69.4436 329.267C69.2436 328.721 69.1436 328.074 69.1436 327.327C69.1436 326.674 69.1436 326.027 69.1436 325.387C69.1436 324.747 69.1436 324.107 69.1436 323.467C69.1436 322.827 69.1436 322.187 69.1436 321.547C69.1436 320.907 69.1436 320.267 69.1436 319.627C69.1436 319.281 69.1436 318.947 69.1436 318.627C69.1436 318.294 69.1436 317.961 69.1436 317.627C69.5569 317.627 69.9703 317.627 70.3836 317.627C70.8103 317.627 71.2236 317.627 71.6236 317.627C71.6636 317.627 71.6969 317.641 71.7236 317.667C71.7636 317.681 71.7903 317.707 71.8036 317.747C71.8303 317.774 71.8436 317.807 71.8436 317.847C71.8436 318.621 71.8436 319.394 71.8436 320.167C71.8436 320.927 71.8436 321.694 71.8436 322.467C71.8436 323.241 71.8436 324.014 71.8436 324.787C71.8436 325.547 71.8436 326.314 71.8436 327.087C71.8436 327.487 71.8836 327.814 71.9636 328.067C72.0436 328.321 72.1636 328.527 72.3236 328.687C72.4703 328.821 72.6503 328.914 72.8636 328.967C73.0903 329.021 73.3636 329.047 73.6836 329.047C73.8569 329.047 74.0236 329.047 74.1836 329.047C74.3569 329.047 74.5303 329.047 74.7036 329.047C74.8769 329.047 75.0503 329.047 75.2236 329.047H75.4636ZM78.753 331.407C78.753 331.047 78.753 330.601 78.753 330.067C78.753 329.521 78.753 328.934 78.753 328.307C78.753 327.681 78.753 327.054 78.753 326.427C78.753 325.801 78.753 325.214 78.753 324.667C78.753 324.121 78.753 323.661 78.753 323.287H78.613C78.533 323.287 78.4396 323.287 78.333 323.287C78.2396 323.287 78.133 323.287 78.013 323.287C77.9063 323.287 77.793 323.287 77.673 323.287C77.5663 323.287 77.4596 323.287 77.353 323.287C77.2863 323.287 77.233 323.267 77.193 323.227C77.153 323.187 77.133 323.134 77.133 323.067C77.133 322.707 77.133 322.341 77.133 321.967C77.133 321.594 77.133 321.227 77.133 320.867C77.3596 320.867 77.613 320.867 77.893 320.867C78.1863 320.867 78.493 320.867 78.813 320.867C79.133 320.867 79.4463 320.867 79.753 320.867C80.0596 320.867 80.3396 320.867 80.593 320.867C80.8596 320.867 81.073 320.867 81.233 320.867C81.2863 320.867 81.3263 320.881 81.353 320.907C81.3796 320.921 81.3996 320.941 81.413 320.967C81.4396 320.994 81.453 321.034 81.453 321.087C81.453 321.714 81.453 322.401 81.453 323.147C81.453 323.881 81.453 324.627 81.453 325.387C81.453 326.147 81.453 326.894 81.453 327.627C81.453 328.361 81.453 329.047 81.453 329.687C81.453 329.887 81.453 330.101 81.453 330.327C81.453 330.541 81.453 330.754 81.453 330.967C81.453 331.181 81.453 331.401 81.453 331.627C81.013 331.627 80.5996 331.627 80.213 331.627C79.8396 331.627 79.4263 331.627 78.973 331.627C78.9063 331.627 78.853 331.607 78.813 331.567C78.773 331.527 78.753 331.474 78.753 331.407ZM78.273 315.747C78.5263 315.747 78.7863 315.747 79.053 315.747C79.333 315.747 79.613 315.747 79.893 315.747C80.1863 315.747 80.4663 315.747 80.733 315.747C81.013 315.747 81.2796 315.747 81.533 315.747C81.5996 315.747 81.653 315.767 81.693 315.807C81.733 315.847 81.753 315.901 81.753 315.967V318.547C81.4996 318.547 81.233 318.547 80.953 318.547C80.6863 318.547 80.4063 318.547 80.113 318.547C79.833 318.547 79.553 318.547 79.273 318.547C79.0063 318.547 78.7463 318.547 78.493 318.547C78.4263 318.547 78.373 318.527 78.333 318.487C78.293 318.447 78.273 318.394 78.273 318.327V315.747ZM83.9052 321.387H90.2252C90.2785 321.387 90.3185 321.401 90.3452 321.427C90.3718 321.441 90.3918 321.461 90.4052 321.487C90.4318 321.514 90.4452 321.554 90.4452 321.607C90.4452 321.981 90.4452 322.334 90.4452 322.667C90.4452 323.001 90.4452 323.361 90.4452 323.747H84.1252C84.0852 323.747 84.0452 323.741 84.0052 323.727C83.9785 323.701 83.9518 323.674 83.9252 323.647C83.9118 323.607 83.9052 323.567 83.9052 323.527C83.9052 323.141 83.9052 322.781 83.9052 322.447C83.9052 322.114 83.9052 321.761 83.9052 321.387ZM87.9052 331.407C87.9052 331.461 87.8852 331.514 87.8452 331.567C87.8052 331.607 87.7518 331.627 87.6852 331.627C87.2585 331.627 86.8452 331.627 86.4452 331.627C86.0452 331.627 85.6252 331.627 85.1852 331.627C85.1852 331.294 85.1852 330.961 85.1852 330.627C85.1852 330.294 85.1852 329.961 85.1852 329.627C85.1852 328.774 85.1852 327.974 85.1852 327.227C85.1852 326.467 85.1852 325.727 85.1852 325.007C85.1852 324.274 85.1852 323.521 85.1852 322.747C85.1852 321.961 85.1852 321.107 85.1852 320.187C85.1852 319.587 85.2718 319.047 85.4452 318.567C85.6185 318.074 85.8652 317.661 86.1852 317.327C86.5052 316.981 86.8985 316.714 87.3652 316.527C87.8452 316.341 88.3852 316.247 88.9852 316.247C89.3452 316.247 89.6652 316.274 89.9452 316.327C90.2252 316.367 90.4585 316.421 90.6452 316.487C90.8318 316.554 90.9585 316.614 91.0252 316.667C91.0518 316.681 91.0652 316.707 91.0652 316.747C91.0785 316.774 91.0852 316.801 91.0852 316.827C91.0852 317.174 91.0852 317.527 91.0852 317.887C91.0852 318.234 91.0852 318.581 91.0852 318.927H90.7052C90.5452 318.861 90.3852 318.807 90.2252 318.767C90.0785 318.714 89.9252 318.674 89.7652 318.647C89.6052 318.621 89.4385 318.607 89.2652 318.607C89.0918 318.607 88.9185 318.634 88.7452 318.687C88.5718 318.741 88.4185 318.821 88.2852 318.927C88.1518 319.061 88.0518 319.227 87.9852 319.427C87.9318 319.614 87.9052 319.874 87.9052 320.207C87.9052 320.834 87.9052 321.534 87.9052 322.307C87.9052 323.067 87.9052 323.861 87.9052 324.687C87.9052 325.514 87.9052 326.334 87.9052 327.147C87.9052 327.961 87.9052 328.734 87.9052 329.467C87.9052 330.187 87.9052 330.834 87.9052 331.407ZM93.753 331.407C93.753 331.047 93.753 330.601 93.753 330.067C93.753 329.521 93.753 328.934 93.753 328.307C93.753 327.681 93.753 327.054 93.753 326.427C93.753 325.801 93.753 325.214 93.753 324.667C93.753 324.121 93.753 323.661 93.753 323.287H93.613C93.533 323.287 93.4396 323.287 93.333 323.287C93.2396 323.287 93.133 323.287 93.013 323.287C92.9063 323.287 92.793 323.287 92.673 323.287C92.5663 323.287 92.4596 323.287 92.353 323.287C92.2863 323.287 92.233 323.267 92.193 323.227C92.153 323.187 92.133 323.134 92.133 323.067C92.133 322.707 92.133 322.341 92.133 321.967C92.133 321.594 92.133 321.227 92.133 320.867C92.3596 320.867 92.613 320.867 92.893 320.867C93.1863 320.867 93.493 320.867 93.813 320.867C94.133 320.867 94.4463 320.867 94.753 320.867C95.0596 320.867 95.3396 320.867 95.593 320.867C95.8596 320.867 96.073 320.867 96.233 320.867C96.2863 320.867 96.3263 320.881 96.353 320.907C96.3796 320.921 96.3996 320.941 96.413 320.967C96.4396 320.994 96.453 321.034 96.453 321.087C96.453 321.714 96.453 322.401 96.453 323.147C96.453 323.881 96.453 324.627 96.453 325.387C96.453 326.147 96.453 326.894 96.453 327.627C96.453 328.361 96.453 329.047 96.453 329.687C96.453 329.887 96.453 330.101 96.453 330.327C96.453 330.541 96.453 330.754 96.453 330.967C96.453 331.181 96.453 331.401 96.453 331.627C96.013 331.627 95.5996 331.627 95.213 331.627C94.8396 331.627 94.4263 331.627 93.973 331.627C93.9063 331.627 93.853 331.607 93.813 331.567C93.773 331.527 93.753 331.474 93.753 331.407ZM93.273 315.747C93.5263 315.747 93.7863 315.747 94.053 315.747C94.333 315.747 94.613 315.747 94.893 315.747C95.1863 315.747 95.4663 315.747 95.733 315.747C96.013 315.747 96.2796 315.747 96.533 315.747C96.5996 315.747 96.653 315.767 96.693 315.807C96.733 315.847 96.753 315.901 96.753 315.967V318.547C96.4996 318.547 96.233 318.547 95.953 318.547C95.6863 318.547 95.4063 318.547 95.113 318.547C94.833 318.547 94.553 318.547 94.273 318.547C94.0063 318.547 93.7463 318.547 93.493 318.547C93.4263 318.547 93.373 318.527 93.333 318.487C93.293 318.447 93.273 318.394 93.273 318.327V315.747ZM104.525 320.627C105.018 320.627 105.452 320.661 105.825 320.727C106.198 320.781 106.498 320.854 106.725 320.947C106.965 321.027 107.125 321.107 107.205 321.187C107.232 321.201 107.245 321.227 107.245 321.267C107.258 321.294 107.265 321.327 107.265 321.367C107.265 321.741 107.265 322.121 107.265 322.507C107.265 322.894 107.265 323.281 107.265 323.667H106.885C106.525 323.507 106.152 323.387 105.765 323.307C105.378 323.227 104.958 323.187 104.505 323.187C104.065 323.187 103.672 323.274 103.325 323.447C102.978 323.607 102.712 323.867 102.525 324.227C102.338 324.587 102.245 325.054 102.245 325.627V326.887C102.245 327.314 102.298 327.687 102.405 328.007C102.512 328.314 102.678 328.567 102.905 328.767C103.092 328.954 103.318 329.094 103.585 329.187C103.852 329.267 104.158 329.307 104.505 329.307C104.812 329.307 105.098 329.294 105.365 329.267C105.632 329.227 105.892 329.174 106.145 329.107C106.398 329.041 106.645 328.954 106.885 328.847H107.265C107.265 329.234 107.265 329.621 107.265 330.007C107.265 330.394 107.265 330.781 107.265 331.167C107.265 331.194 107.258 331.221 107.245 331.247C107.245 331.274 107.232 331.301 107.205 331.327C107.138 331.394 106.985 331.474 106.745 331.567C106.518 331.647 106.212 331.714 105.825 331.767C105.452 331.834 105.018 331.867 104.525 331.867C103.725 331.867 103.012 331.761 102.385 331.547C101.758 331.334 101.225 331.021 100.785 330.607C100.345 330.181 100.012 329.667 99.7852 329.067C99.5585 328.467 99.4452 327.787 99.4452 327.027V325.587C99.4452 324.601 99.6585 323.741 100.085 323.007C100.512 322.261 101.105 321.681 101.865 321.267C102.625 320.841 103.512 320.627 104.525 320.627ZM118.485 324.807C118.485 325.141 118.485 325.467 118.485 325.787C118.485 326.094 118.485 326.414 118.485 326.747C118.485 327.067 118.485 327.394 118.485 327.727C118.485 328.047 118.485 328.361 118.485 328.667C118.485 328.774 118.492 328.867 118.505 328.947C118.532 329.027 118.572 329.094 118.625 329.147C118.665 329.187 118.718 329.221 118.785 329.247C118.865 329.261 118.952 329.267 119.045 329.267C119.085 329.267 119.118 329.267 119.145 329.267C119.185 329.267 119.225 329.267 119.265 329.267H119.645C119.645 329.627 119.645 329.987 119.645 330.347C119.645 330.694 119.645 331.047 119.645 331.407C119.645 331.474 119.625 331.527 119.585 331.567C119.545 331.607 119.492 331.627 119.425 331.627C119.358 331.627 119.192 331.627 118.925 331.627C118.672 331.627 118.445 331.627 118.245 331.627C117.872 331.627 117.538 331.567 117.245 331.447C116.952 331.327 116.692 331.161 116.465 330.947C116.238 330.721 116.065 330.454 115.945 330.147C115.825 329.841 115.765 329.494 115.765 329.107C115.765 328.694 115.765 328.274 115.765 327.847C115.765 327.421 115.765 327.001 115.765 326.587C115.765 326.361 115.765 326.147 115.765 325.947C115.765 325.734 115.765 325.521 115.765 325.307C115.765 325.094 115.765 324.881 115.765 324.667C115.765 324.281 115.698 323.981 115.565 323.767C115.432 323.541 115.212 323.381 114.905 323.287C114.612 323.194 114.212 323.147 113.705 323.147C113.332 323.147 112.965 323.167 112.605 323.207C112.258 323.247 111.912 323.301 111.565 323.367C111.232 323.434 110.892 323.527 110.545 323.647H110.165C110.165 323.287 110.165 322.927 110.165 322.567C110.165 322.207 110.165 321.854 110.165 321.507C110.165 321.454 110.172 321.414 110.185 321.387C110.198 321.361 110.212 321.341 110.225 321.327C110.305 321.247 110.525 321.154 110.885 321.047C111.258 320.941 111.698 320.854 112.205 320.787C112.712 320.707 113.212 320.667 113.705 320.667C114.545 320.667 115.265 320.747 115.865 320.907C116.465 321.054 116.958 321.294 117.345 321.627C117.732 321.961 118.018 322.394 118.205 322.927C118.392 323.447 118.485 324.074 118.485 324.807ZM112.085 328.587C112.085 328.867 112.158 329.081 112.305 329.227C112.465 329.361 112.705 329.427 113.025 329.427C113.385 329.427 113.738 329.387 114.085 329.307C114.432 329.227 114.772 329.094 115.105 328.907C115.452 328.721 115.798 328.481 116.145 328.187V329.907H115.545C115.372 330.307 115.125 330.654 114.805 330.947C114.498 331.227 114.138 331.447 113.725 331.607C113.312 331.754 112.858 331.827 112.365 331.827C111.752 331.827 111.218 331.707 110.765 331.467C110.325 331.227 109.985 330.894 109.745 330.467C109.505 330.027 109.385 329.521 109.385 328.947V328.247C109.385 327.807 109.458 327.414 109.605 327.067C109.752 326.721 109.958 326.421 110.225 326.167C110.505 325.914 110.838 325.721 111.225 325.587C111.612 325.441 112.045 325.367 112.525 325.367C112.992 325.367 113.445 325.367 113.885 325.367C114.338 325.367 114.765 325.367 115.165 325.367C115.578 325.367 115.965 325.367 116.325 325.367C116.445 325.367 116.532 325.474 116.585 325.687C116.652 325.901 116.692 326.141 116.705 326.407C116.718 326.661 116.725 326.874 116.725 327.047C116.298 327.047 115.885 327.047 115.485 327.047C115.085 327.047 114.678 327.047 114.265 327.047C113.865 327.047 113.452 327.047 113.025 327.047C112.865 327.047 112.725 327.067 112.605 327.107C112.498 327.147 112.405 327.207 112.325 327.287C112.258 327.367 112.198 327.461 112.145 327.567C112.105 327.661 112.085 327.767 112.085 327.887V328.587ZM126.517 320.627C127.011 320.627 127.444 320.661 127.817 320.727C128.191 320.781 128.491 320.854 128.717 320.947C128.957 321.027 129.117 321.107 129.197 321.187C129.224 321.201 129.237 321.227 129.237 321.267C129.251 321.294 129.257 321.327 129.257 321.367C129.257 321.741 129.257 322.121 129.257 322.507C129.257 322.894 129.257 323.281 129.257 323.667H128.877C128.517 323.507 128.144 323.387 127.757 323.307C127.371 323.227 126.951 323.187 126.497 323.187C126.057 323.187 125.664 323.274 125.317 323.447C124.971 323.607 124.704 323.867 124.517 324.227C124.331 324.587 124.237 325.054 124.237 325.627V326.887C124.237 327.314 124.291 327.687 124.397 328.007C124.504 328.314 124.671 328.567 124.897 328.767C125.084 328.954 125.311 329.094 125.577 329.187C125.844 329.267 126.151 329.307 126.497 329.307C126.804 329.307 127.091 329.294 127.357 329.267C127.624 329.227 127.884 329.174 128.137 329.107C128.391 329.041 128.637 328.954 128.877 328.847H129.257C129.257 329.234 129.257 329.621 129.257 330.007C129.257 330.394 129.257 330.781 129.257 331.167C129.257 331.194 129.251 331.221 129.237 331.247C129.237 331.274 129.224 331.301 129.197 331.327C129.131 331.394 128.977 331.474 128.737 331.567C128.511 331.647 128.204 331.714 127.817 331.767C127.444 331.834 127.011 331.867 126.517 331.867C125.717 331.867 125.004 331.761 124.377 331.547C123.751 331.334 123.217 331.021 122.777 330.607C122.337 330.181 122.004 329.667 121.777 329.067C121.551 328.467 121.437 327.787 121.437 327.027V325.587C121.437 324.601 121.651 323.741 122.077 323.007C122.504 322.261 123.097 321.681 123.857 321.267C124.617 320.841 125.504 320.627 126.517 320.627ZM126.697 330.627C126.657 330.747 126.617 330.881 126.577 331.027C126.551 331.161 126.517 331.294 126.477 331.427C126.451 331.547 126.424 331.667 126.397 331.787C126.371 331.907 126.344 332.007 126.317 332.087L126.277 332.287C126.891 332.301 127.377 332.474 127.737 332.807C128.111 333.141 128.297 333.601 128.297 334.187C128.297 334.961 128.051 335.547 127.557 335.947C127.077 336.361 126.344 336.567 125.357 336.567C124.864 336.567 124.477 336.541 124.197 336.487C123.931 336.434 123.737 336.354 123.617 336.247C123.511 336.154 123.457 336.047 123.457 335.927C123.457 335.727 123.457 335.527 123.457 335.327C123.457 335.141 123.457 334.954 123.457 334.767C123.457 334.594 123.457 334.434 123.457 334.287H123.697C123.871 334.367 124.057 334.434 124.257 334.487C124.457 334.541 124.691 334.567 124.957 334.567C125.224 334.567 125.451 334.507 125.637 334.387C125.837 334.281 125.937 334.094 125.937 333.827C125.937 333.574 125.844 333.381 125.657 333.247C125.484 333.127 125.224 333.067 124.877 333.067C124.811 333.067 124.757 333.041 124.717 332.987C124.677 332.934 124.671 332.867 124.697 332.787C124.777 332.601 124.844 332.427 124.897 332.267C124.964 332.107 125.024 331.947 125.077 331.787C125.144 331.641 125.204 331.501 125.257 331.367C125.324 331.221 125.384 331.074 125.437 330.927C125.477 330.847 125.524 330.787 125.577 330.747C125.644 330.707 125.757 330.681 125.917 330.667C126.091 330.641 126.351 330.627 126.697 330.627ZM140.477 324.807C140.477 325.141 140.477 325.467 140.477 325.787C140.477 326.094 140.477 326.414 140.477 326.747C140.477 327.067 140.477 327.394 140.477 327.727C140.477 328.047 140.477 328.361 140.477 328.667C140.477 328.774 140.484 328.867 140.497 328.947C140.524 329.027 140.564 329.094 140.617 329.147C140.657 329.187 140.711 329.221 140.777 329.247C140.857 329.261 140.944 329.267 141.037 329.267C141.077 329.267 141.111 329.267 141.137 329.267C141.177 329.267 141.217 329.267 141.257 329.267H141.637C141.637 329.627 141.637 329.987 141.637 330.347C141.637 330.694 141.637 331.047 141.637 331.407C141.637 331.474 141.617 331.527 141.577 331.567C141.537 331.607 141.484 331.627 141.417 331.627C141.351 331.627 141.184 331.627 140.917 331.627C140.664 331.627 140.437 331.627 140.237 331.627C139.864 331.627 139.531 331.567 139.237 331.447C138.944 331.327 138.684 331.161 138.457 330.947C138.231 330.721 138.057 330.454 137.937 330.147C137.817 329.841 137.757 329.494 137.757 329.107C137.757 328.694 137.757 328.274 137.757 327.847C137.757 327.421 137.757 327.001 137.757 326.587C137.757 326.361 137.757 326.147 137.757 325.947C137.757 325.734 137.757 325.521 137.757 325.307C137.757 325.094 137.757 324.881 137.757 324.667C137.757 324.281 137.691 323.981 137.557 323.767C137.424 323.541 137.204 323.381 136.897 323.287C136.604 323.194 136.204 323.147 135.697 323.147C135.324 323.147 134.957 323.167 134.597 323.207C134.251 323.247 133.904 323.301 133.557 323.367C133.224 323.434 132.884 323.527 132.537 323.647H132.157C132.157 323.287 132.157 322.927 132.157 322.567C132.157 322.207 132.157 321.854 132.157 321.507C132.157 321.454 132.164 321.414 132.177 321.387C132.191 321.361 132.204 321.341 132.217 321.327C132.297 321.247 132.517 321.154 132.877 321.047C133.251 320.941 133.691 320.854 134.197 320.787C134.704 320.707 135.204 320.667 135.697 320.667C136.537 320.667 137.257 320.747 137.857 320.907C138.457 321.054 138.951 321.294 139.337 321.627C139.724 321.961 140.011 322.394 140.197 322.927C140.384 323.447 140.477 324.074 140.477 324.807ZM134.077 328.587C134.077 328.867 134.151 329.081 134.297 329.227C134.457 329.361 134.697 329.427 135.017 329.427C135.377 329.427 135.731 329.387 136.077 329.307C136.424 329.227 136.764 329.094 137.097 328.907C137.444 328.721 137.791 328.481 138.137 328.187V329.907H137.537C137.364 330.307 137.117 330.654 136.797 330.947C136.491 331.227 136.131 331.447 135.717 331.607C135.304 331.754 134.851 331.827 134.357 331.827C133.744 331.827 133.211 331.707 132.757 331.467C132.317 331.227 131.977 330.894 131.737 330.467C131.497 330.027 131.377 329.521 131.377 328.947V328.247C131.377 327.807 131.451 327.414 131.597 327.067C131.744 326.721 131.951 326.421 132.217 326.167C132.497 325.914 132.831 325.721 133.217 325.587C133.604 325.441 134.037 325.367 134.517 325.367C134.984 325.367 135.437 325.367 135.877 325.367C136.331 325.367 136.757 325.367 137.157 325.367C137.571 325.367 137.957 325.367 138.317 325.367C138.437 325.367 138.524 325.474 138.577 325.687C138.644 325.901 138.684 326.141 138.697 326.407C138.711 326.661 138.717 326.874 138.717 327.047C138.291 327.047 137.877 327.047 137.477 327.047C137.077 327.047 136.671 327.047 136.257 327.047C135.857 327.047 135.444 327.047 135.017 327.047C134.857 327.047 134.717 327.067 134.597 327.107C134.491 327.147 134.397 327.207 134.317 327.287C134.251 327.367 134.191 327.461 134.137 327.567C134.097 327.661 134.077 327.767 134.077 327.887V328.587ZM138.137 316.667C138.511 316.667 138.851 316.587 139.157 316.427C139.477 316.254 139.751 316.001 139.977 315.667H140.357C140.357 315.894 140.357 316.121 140.357 316.347C140.357 316.561 140.357 316.767 140.357 316.967C140.357 317.167 140.357 317.361 140.357 317.547C140.357 317.641 140.344 317.721 140.317 317.787C140.304 317.841 140.264 317.914 140.197 318.007C139.997 318.274 139.704 318.494 139.317 318.667C138.931 318.827 138.504 318.907 138.037 318.907C137.597 318.907 137.224 318.854 136.917 318.747C136.624 318.641 136.357 318.521 136.117 318.387C135.877 318.241 135.624 318.121 135.357 318.027C135.104 317.921 134.804 317.867 134.457 317.867C134.084 317.867 133.737 317.954 133.417 318.127C133.111 318.301 132.844 318.547 132.617 318.867H132.237C132.237 318.641 132.237 318.421 132.237 318.207C132.237 317.994 132.237 317.787 132.237 317.587C132.237 317.374 132.237 317.181 132.237 317.007C132.237 316.901 132.244 316.821 132.257 316.767C132.284 316.701 132.331 316.621 132.397 316.527C132.597 316.261 132.891 316.047 133.277 315.887C133.664 315.727 134.091 315.647 134.557 315.647C134.997 315.647 135.364 315.701 135.657 315.807C135.964 315.901 136.237 316.021 136.477 316.167C136.717 316.301 136.964 316.421 137.217 316.527C137.484 316.621 137.791 316.667 138.137 316.667ZM148.27 320.627C148.99 320.627 149.643 320.741 150.23 320.967C150.83 321.194 151.343 321.514 151.77 321.927C152.196 322.327 152.523 322.807 152.75 323.367C152.99 323.927 153.11 324.547 153.11 325.227V327.247C153.11 328.154 152.903 328.954 152.49 329.647C152.09 330.341 151.523 330.887 150.79 331.287C150.07 331.674 149.23 331.867 148.27 331.867C147.55 331.867 146.89 331.754 146.29 331.527C145.703 331.301 145.196 330.987 144.77 330.587C144.343 330.174 144.01 329.687 143.77 329.127C143.543 328.567 143.43 327.947 143.43 327.267V325.247C143.43 324.341 143.63 323.541 144.03 322.847C144.443 322.154 145.016 321.614 145.75 321.227C146.483 320.827 147.323 320.627 148.27 320.627ZM148.29 323.087C147.836 323.087 147.45 323.181 147.13 323.367C146.81 323.541 146.563 323.801 146.39 324.147C146.216 324.481 146.13 324.887 146.13 325.367V327.127C146.13 327.501 146.183 327.834 146.29 328.127C146.396 328.407 146.543 328.654 146.73 328.867C146.903 329.041 147.116 329.174 147.37 329.267C147.636 329.361 147.93 329.407 148.25 329.407C148.703 329.407 149.09 329.321 149.41 329.147C149.743 328.961 149.99 328.694 150.15 328.347C150.323 328.001 150.41 327.594 150.41 327.127V325.367C150.41 324.954 150.363 324.607 150.27 324.327C150.176 324.034 150.036 323.794 149.85 323.607C149.676 323.421 149.456 323.287 149.19 323.207C148.936 323.127 148.636 323.087 148.29 323.087ZM160.838 317.627H170.018C170.058 317.627 170.091 317.641 170.118 317.667C170.144 317.681 170.171 317.707 170.198 317.747C170.224 317.774 170.238 317.807 170.238 317.847C170.238 318.261 170.238 318.634 170.238 318.967C170.238 319.287 170.238 319.654 170.238 320.067H161.058C161.018 320.067 160.978 320.061 160.938 320.047C160.911 320.021 160.884 319.994 160.858 319.967C160.844 319.927 160.838 319.887 160.838 319.847C160.838 319.434 160.838 319.061 160.838 318.727C160.838 318.394 160.838 318.027 160.838 317.627ZM163.578 323.407H168.838C168.878 323.407 168.911 323.421 168.938 323.447C168.978 323.474 169.004 323.501 169.018 323.527C169.044 323.554 169.058 323.587 169.058 323.627C169.058 323.907 169.058 324.167 169.058 324.407C169.058 324.634 169.058 324.861 169.058 325.087C169.058 325.301 169.058 325.527 169.058 325.767H163.578V323.407ZM162.038 331.627C161.998 331.627 161.964 331.621 161.938 331.607C161.911 331.594 161.884 331.581 161.858 331.567C161.844 331.541 161.831 331.514 161.818 331.487C161.804 331.461 161.798 331.434 161.798 331.407C161.798 331.047 161.798 330.527 161.798 329.847C161.798 329.154 161.798 328.367 161.798 327.487C161.798 326.594 161.798 325.661 161.798 324.687C161.798 323.701 161.798 322.727 161.798 321.767C161.798 320.794 161.798 319.901 161.798 319.087H164.838L164.678 319.527C164.678 319.834 164.678 320.147 164.678 320.467C164.678 320.787 164.678 321.107 164.678 321.427C164.678 322.041 164.678 322.674 164.678 323.327C164.678 323.981 164.678 324.634 164.678 325.287C164.678 325.941 164.678 326.601 164.678 327.267C164.678 327.921 164.678 328.561 164.678 329.187H170.018C170.084 329.187 170.138 329.207 170.178 329.247C170.218 329.287 170.238 329.341 170.238 329.407C170.238 329.794 170.238 330.167 170.238 330.527C170.238 330.874 170.238 331.241 170.238 331.627H162.038ZM181.914 331.627C181.474 331.627 181.061 331.627 180.674 331.627C180.301 331.627 179.887 331.627 179.434 331.627C179.394 331.627 179.354 331.621 179.314 331.607C179.287 331.581 179.261 331.554 179.234 331.527C179.221 331.501 179.214 331.461 179.214 331.407C179.214 330.621 179.214 329.834 179.214 329.047C179.214 328.247 179.214 327.454 179.214 326.667C179.214 325.881 179.214 325.094 179.214 324.307C179.214 323.947 179.134 323.681 178.974 323.507C178.814 323.334 178.561 323.247 178.214 323.247C177.987 323.247 177.734 323.287 177.454 323.367C177.187 323.434 176.914 323.541 176.634 323.687C176.367 323.821 176.107 323.994 175.854 324.207C175.601 324.421 175.367 324.674 175.154 324.967V322.607H175.854C176.121 322.207 176.414 321.861 176.734 321.567C177.067 321.274 177.427 321.047 177.814 320.887C178.214 320.714 178.641 320.627 179.094 320.627C179.521 320.627 179.907 320.701 180.254 320.847C180.614 320.981 180.914 321.187 181.154 321.467C181.407 321.734 181.594 322.061 181.714 322.447C181.847 322.834 181.914 323.267 181.914 323.747C181.914 324.387 181.914 325.034 181.914 325.687C181.914 326.341 181.914 326.994 181.914 327.647C181.914 328.301 181.914 328.961 181.914 329.627C181.914 329.961 181.914 330.294 181.914 330.627C181.914 330.961 181.914 331.294 181.914 331.627ZM175.474 331.627C175.181 331.627 174.901 331.627 174.634 331.627C174.381 331.627 174.114 331.627 173.834 331.627C173.567 331.627 173.287 331.627 172.994 331.627C172.954 331.627 172.921 331.627 172.894 331.627C172.867 331.614 172.841 331.601 172.814 331.587C172.801 331.561 172.787 331.534 172.774 331.507C172.774 331.481 172.774 331.447 172.774 331.407C172.774 330.687 172.774 329.974 172.774 329.267C172.774 328.547 172.774 327.834 172.774 327.127C172.774 326.407 172.774 325.694 172.774 324.987C172.774 324.267 172.774 323.547 172.774 322.827C172.774 322.454 172.774 322.101 172.774 321.767C172.774 321.434 172.774 321.134 172.774 320.867C173.107 320.867 173.407 320.867 173.674 320.867C173.954 320.867 174.221 320.867 174.474 320.867C174.741 320.867 175.001 320.867 175.254 320.867C175.307 320.867 175.347 320.881 175.374 320.907C175.401 320.921 175.421 320.941 175.434 320.967C175.461 320.994 175.474 321.034 175.474 321.087C175.474 322.247 175.474 323.414 175.474 324.587C175.474 325.761 175.474 326.934 175.474 328.107C175.474 329.281 175.474 330.454 175.474 331.627ZM189.286 320.627C190.193 320.627 190.979 320.814 191.646 321.187C192.326 321.561 192.853 322.081 193.226 322.747C193.599 323.414 193.786 324.194 193.786 325.087V326.747C193.786 326.787 193.779 326.827 193.766 326.867C193.753 326.894 193.726 326.914 193.686 326.927C193.659 326.941 193.626 326.947 193.586 326.947H188.986C188.759 326.947 188.526 326.947 188.286 326.947C188.059 326.947 187.833 326.947 187.606 326.947H186.786L186.726 325.267H191.166C191.166 325.214 191.166 325.167 191.166 325.127C191.166 325.087 191.166 325.041 191.166 324.987C191.166 324.601 191.126 324.274 191.046 324.007C190.966 323.727 190.839 323.507 190.666 323.347C190.519 323.187 190.333 323.074 190.106 323.007C189.879 322.941 189.606 322.907 189.286 322.907C188.619 322.907 188.119 323.074 187.786 323.407C187.466 323.727 187.306 324.254 187.306 324.987V327.427C187.306 327.747 187.346 328.034 187.426 328.287C187.519 328.527 187.646 328.734 187.806 328.907C188.019 329.121 188.299 329.274 188.646 329.367C189.006 329.461 189.419 329.507 189.886 329.507C190.366 329.507 190.793 329.487 191.166 329.447C191.539 329.394 191.886 329.327 192.206 329.247C192.526 329.154 192.839 329.054 193.146 328.947H193.526C193.526 329.281 193.526 329.621 193.526 329.967C193.526 330.301 193.526 330.641 193.526 330.987C193.526 331.014 193.519 331.041 193.506 331.067C193.493 331.094 193.473 331.121 193.446 331.147C193.339 331.254 193.099 331.361 192.726 331.467C192.366 331.574 191.926 331.667 191.406 331.747C190.899 331.827 190.379 331.867 189.846 331.867C188.979 331.867 188.213 331.767 187.546 331.567C186.893 331.354 186.346 331.054 185.906 330.667C185.479 330.281 185.153 329.814 184.926 329.267C184.713 328.707 184.606 328.081 184.606 327.387V325.107C184.606 324.427 184.713 323.814 184.926 323.267C185.153 322.721 185.473 322.254 185.886 321.867C186.299 321.467 186.793 321.161 187.366 320.947C187.939 320.734 188.579 320.627 189.286 320.627ZM199.258 322.787H200.058C200.218 322.294 200.405 321.894 200.618 321.587C200.832 321.267 201.092 321.034 201.398 320.887C201.718 320.741 202.078 320.667 202.478 320.667C202.692 320.667 202.865 320.687 202.998 320.727C203.145 320.767 203.245 320.807 203.298 320.847C203.352 320.887 203.385 320.927 203.398 320.967C203.412 320.994 203.418 321.041 203.418 321.107C203.418 321.321 203.418 321.534 203.418 321.747C203.418 321.947 203.418 322.147 203.418 322.347C203.418 322.547 203.418 322.754 203.418 322.967C203.418 323.167 203.418 323.374 203.418 323.587H203.038C202.905 323.547 202.758 323.514 202.598 323.487C202.438 323.461 202.258 323.447 202.058 323.447C201.645 323.447 201.278 323.527 200.958 323.687C200.652 323.847 200.365 324.074 200.098 324.367C199.832 324.647 199.552 324.981 199.258 325.367V322.787ZM199.638 331.627C199.345 331.627 199.045 331.627 198.738 331.627C198.445 331.627 198.152 331.627 197.858 331.627C197.565 331.627 197.272 331.627 196.978 331.627C196.938 331.627 196.905 331.627 196.878 331.627C196.852 331.614 196.825 331.601 196.798 331.587C196.785 331.561 196.772 331.534 196.758 331.507C196.758 331.481 196.758 331.447 196.758 331.407C196.758 330.914 196.758 330.394 196.758 329.847C196.758 329.287 196.758 328.714 196.758 328.127C196.758 327.541 196.758 326.954 196.758 326.367C196.758 325.767 196.758 325.174 196.758 324.587C196.758 323.987 196.758 323.401 196.758 322.827C196.758 322.454 196.758 322.101 196.758 321.767C196.758 321.434 196.758 321.134 196.758 320.867C197.092 320.867 197.405 320.867 197.698 320.867C198.005 320.867 198.298 320.867 198.578 320.867C198.872 320.867 199.152 320.867 199.418 320.867C199.472 320.867 199.512 320.881 199.538 320.907C199.565 320.921 199.585 320.941 199.598 320.967C199.625 320.994 199.638 321.034 199.638 321.087C199.638 321.701 199.638 322.347 199.638 323.027C199.638 323.707 199.638 324.401 199.638 325.107C199.638 325.814 199.638 326.541 199.638 327.287C199.638 328.021 199.638 328.754 199.638 329.487C199.638 330.207 199.638 330.921 199.638 331.627ZM206.047 330.087C206.047 329.781 206.1 329.507 206.207 329.267C206.314 329.014 206.48 328.794 206.707 328.607C206.947 328.421 207.247 328.274 207.607 328.167V327.527L208.867 328.007C208.827 328.207 208.794 328.414 208.767 328.627C208.754 328.827 208.747 329.041 208.747 329.267C208.747 329.427 208.78 329.541 208.847 329.607C208.914 329.661 209.027 329.687 209.187 329.687H211.767C212.554 329.687 213.2 329.821 213.707 330.087C214.214 330.354 214.587 330.727 214.827 331.207C215.08 331.674 215.207 332.214 215.207 332.827V333.567C215.207 334.021 215.134 334.434 214.987 334.807C214.854 335.181 214.64 335.501 214.347 335.767C214.054 336.047 213.687 336.261 213.247 336.407C212.82 336.554 212.314 336.627 211.727 336.627H207.647C206.954 336.627 206.374 336.534 205.907 336.347C205.454 336.174 205.107 335.914 204.867 335.567C204.64 335.234 204.527 334.814 204.527 334.307V333.947C204.527 333.547 204.607 333.194 204.767 332.887C204.94 332.581 205.18 332.327 205.487 332.127C205.794 331.927 206.154 331.794 206.567 331.727V330.967L208.047 331.867C207.82 331.934 207.647 332.027 207.527 332.147C207.42 332.267 207.334 332.401 207.267 332.547C207.214 332.707 207.187 332.887 207.187 333.087V333.707C207.187 333.934 207.22 334.121 207.287 334.267C207.367 334.414 207.487 334.521 207.647 334.587C207.807 334.654 208.02 334.687 208.287 334.687H211.447C211.647 334.687 211.814 334.661 211.947 334.607C212.08 334.567 212.187 334.507 212.267 334.427C212.36 334.334 212.427 334.207 212.467 334.047C212.507 333.901 212.527 333.734 212.527 333.547V333.007C212.527 332.634 212.447 332.367 212.287 332.207C212.127 332.047 211.847 331.967 211.447 331.967H207.847C207.54 331.967 207.247 331.881 206.967 331.707C206.7 331.547 206.48 331.321 206.307 331.027C206.134 330.734 206.047 330.421 206.047 330.087ZM210.827 322.847L212.707 322.707V323.247C213.174 323.407 213.514 323.627 213.727 323.907C213.94 324.187 214.047 324.554 214.047 325.007V325.307C214.047 325.894 213.88 326.394 213.547 326.807C213.227 327.221 212.734 327.547 212.067 327.787C211.414 328.014 210.594 328.127 209.607 328.127C208.62 328.127 207.78 327.994 207.087 327.727C206.407 327.447 205.894 327.047 205.547 326.527C205.2 326.007 205.027 325.387 205.027 324.667V324.227C205.027 323.494 205.2 322.867 205.547 322.347C205.894 321.814 206.407 321.407 207.087 321.127C207.78 320.834 208.62 320.687 209.607 320.687C210.514 320.687 211.42 320.687 212.327 320.687C213.234 320.687 214.14 320.687 215.047 320.687C215.047 321.021 215.047 321.361 215.047 321.707C215.047 322.041 215.047 322.381 215.047 322.727C215.047 322.781 215.027 322.834 214.987 322.887C214.947 322.927 214.894 322.947 214.827 322.947C214.254 322.947 213.694 322.947 213.147 322.947C212.6 322.947 212.04 322.947 211.467 322.947C210.894 322.947 210.274 322.947 209.607 322.947C208.967 322.947 208.48 323.061 208.147 323.287C207.814 323.514 207.647 323.867 207.647 324.347V324.687C207.647 324.887 207.674 325.054 207.727 325.187C207.794 325.321 207.88 325.447 207.987 325.567C208.147 325.727 208.36 325.847 208.627 325.927C208.894 326.007 209.22 326.047 209.607 326.047C210.247 326.047 210.714 325.934 211.007 325.707C211.3 325.467 211.447 325.107 211.447 324.627V324.207C211.447 324.021 211.427 323.854 211.387 323.707C211.347 323.547 211.28 323.401 211.187 323.267C211.107 323.134 210.987 322.994 210.827 322.847ZM221.474 320.627C222.38 320.627 223.167 320.814 223.834 321.187C224.514 321.561 225.04 322.081 225.414 322.747C225.787 323.414 225.974 324.194 225.974 325.087V326.747C225.974 326.787 225.967 326.827 225.954 326.867C225.94 326.894 225.914 326.914 225.874 326.927C225.847 326.941 225.814 326.947 225.774 326.947H221.174C220.947 326.947 220.714 326.947 220.474 326.947C220.247 326.947 220.02 326.947 219.794 326.947H218.974L218.914 325.267H223.354C223.354 325.214 223.354 325.167 223.354 325.127C223.354 325.087 223.354 325.041 223.354 324.987C223.354 324.601 223.314 324.274 223.234 324.007C223.154 323.727 223.027 323.507 222.854 323.347C222.707 323.187 222.52 323.074 222.294 323.007C222.067 322.941 221.794 322.907 221.474 322.907C220.807 322.907 220.307 323.074 219.974 323.407C219.654 323.727 219.494 324.254 219.494 324.987V327.427C219.494 327.747 219.534 328.034 219.614 328.287C219.707 328.527 219.834 328.734 219.994 328.907C220.207 329.121 220.487 329.274 220.834 329.367C221.194 329.461 221.607 329.507 222.074 329.507C222.554 329.507 222.98 329.487 223.354 329.447C223.727 329.394 224.074 329.327 224.394 329.247C224.714 329.154 225.027 329.054 225.334 328.947H225.714C225.714 329.281 225.714 329.621 225.714 329.967C225.714 330.301 225.714 330.641 225.714 330.987C225.714 331.014 225.707 331.041 225.694 331.067C225.68 331.094 225.66 331.121 225.634 331.147C225.527 331.254 225.287 331.361 224.914 331.467C224.554 331.574 224.114 331.667 223.594 331.747C223.087 331.827 222.567 331.867 222.034 331.867C221.167 331.867 220.4 331.767 219.734 331.567C219.08 331.354 218.534 331.054 218.094 330.667C217.667 330.281 217.34 329.814 217.114 329.267C216.9 328.707 216.794 328.081 216.794 327.387V325.107C216.794 324.427 216.9 323.814 217.114 323.267C217.34 322.721 217.66 322.254 218.074 321.867C218.487 321.467 218.98 321.161 219.554 320.947C220.127 320.734 220.767 320.627 221.474 320.627ZM222.394 315.407C222.967 315.407 223.48 315.407 223.934 315.407C224.4 315.407 224.907 315.407 225.454 315.407C225.547 315.407 225.607 315.441 225.634 315.507C225.674 315.574 225.66 315.641 225.594 315.707C225.274 316.081 224.96 316.441 224.654 316.787C224.36 317.121 224.054 317.461 223.734 317.807C223.427 318.154 223.08 318.554 222.694 319.007C222.667 319.047 222.62 319.087 222.554 319.127C222.5 319.154 222.434 319.167 222.354 319.167C221.967 319.167 221.6 319.167 221.254 319.167C220.92 319.167 220.58 319.167 220.234 319.167C220.474 318.754 220.714 318.341 220.954 317.927C221.194 317.514 221.434 317.094 221.674 316.667C221.914 316.241 222.154 315.821 222.394 315.407ZM228.05 320.867H235.77C235.85 320.867 235.91 320.887 235.95 320.927C235.99 320.967 236.01 321.021 236.01 321.087C236.01 321.367 236.01 321.627 236.01 321.867C236.01 322.107 236.01 322.354 236.01 322.607C236.01 322.861 236.01 323.121 236.01 323.387H228.29C228.264 323.387 228.237 323.381 228.21 323.367C228.184 323.354 228.157 323.341 228.13 323.327C228.104 323.301 228.084 323.274 228.07 323.247C228.057 323.221 228.05 323.194 228.05 323.167C228.05 322.901 228.05 322.641 228.05 322.387C228.05 322.134 228.05 321.887 228.05 321.647C228.05 321.407 228.05 321.147 228.05 320.867ZM236.01 329.047C236.01 329.447 236.01 329.847 236.01 330.247C236.01 330.634 236.01 331.021 236.01 331.407C236.01 331.461 235.99 331.514 235.95 331.567C235.91 331.607 235.857 331.627 235.79 331.627C235.657 331.627 235.517 331.627 235.37 331.627C235.237 331.627 235.097 331.627 234.95 331.627C234.817 331.627 234.684 331.627 234.55 331.627C234.417 331.627 234.277 331.627 234.13 331.627C233.437 331.627 232.817 331.547 232.27 331.387C231.724 331.214 231.257 330.954 230.87 330.607C230.484 330.261 230.19 329.814 229.99 329.267C229.79 328.721 229.69 328.074 229.69 327.327C229.69 326.674 229.69 326.027 229.69 325.387C229.69 324.747 229.69 324.107 229.69 323.467C229.69 322.827 229.69 322.187 229.69 321.547C229.69 320.907 229.69 320.267 229.69 319.627C229.69 319.281 229.69 318.947 229.69 318.627C229.69 318.294 229.69 317.961 229.69 317.627C230.104 317.627 230.517 317.627 230.93 317.627C231.357 317.627 231.77 317.627 232.17 317.627C232.21 317.627 232.244 317.641 232.27 317.667C232.31 317.681 232.337 317.707 232.35 317.747C232.377 317.774 232.39 317.807 232.39 317.847C232.39 318.621 232.39 319.394 232.39 320.167C232.39 320.927 232.39 321.694 232.39 322.467C232.39 323.241 232.39 324.014 232.39 324.787C232.39 325.547 232.39 326.314 232.39 327.087C232.39 327.487 232.43 327.814 232.51 328.067C232.59 328.321 232.71 328.527 232.87 328.687C233.017 328.821 233.197 328.914 233.41 328.967C233.637 329.021 233.91 329.047 234.23 329.047C234.404 329.047 234.57 329.047 234.73 329.047C234.904 329.047 235.077 329.047 235.25 329.047C235.424 329.047 235.597 329.047 235.77 329.047H236.01ZM239.3 331.407C239.3 331.047 239.3 330.601 239.3 330.067C239.3 329.521 239.3 328.934 239.3 328.307C239.3 327.681 239.3 327.054 239.3 326.427C239.3 325.801 239.3 325.214 239.3 324.667C239.3 324.121 239.3 323.661 239.3 323.287H239.16C239.08 323.287 238.987 323.287 238.88 323.287C238.787 323.287 238.68 323.287 238.56 323.287C238.453 323.287 238.34 323.287 238.22 323.287C238.113 323.287 238.007 323.287 237.9 323.287C237.833 323.287 237.78 323.267 237.74 323.227C237.7 323.187 237.68 323.134 237.68 323.067C237.68 322.707 237.68 322.341 237.68 321.967C237.68 321.594 237.68 321.227 237.68 320.867C237.907 320.867 238.16 320.867 238.44 320.867C238.733 320.867 239.04 320.867 239.36 320.867C239.68 320.867 239.993 320.867 240.3 320.867C240.607 320.867 240.887 320.867 241.14 320.867C241.407 320.867 241.62 320.867 241.78 320.867C241.833 320.867 241.873 320.881 241.9 320.907C241.927 320.921 241.947 320.941 241.96 320.967C241.987 320.994 242 321.034 242 321.087C242 321.714 242 322.401 242 323.147C242 323.881 242 324.627 242 325.387C242 326.147 242 326.894 242 327.627C242 328.361 242 329.047 242 329.687C242 329.887 242 330.101 242 330.327C242 330.541 242 330.754 242 330.967C242 331.181 242 331.401 242 331.627C241.56 331.627 241.147 331.627 240.76 331.627C240.387 331.627 239.973 331.627 239.52 331.627C239.453 331.627 239.4 331.607 239.36 331.567C239.32 331.527 239.3 331.474 239.3 331.407ZM238.82 315.747C239.073 315.747 239.333 315.747 239.6 315.747C239.88 315.747 240.16 315.747 240.44 315.747C240.733 315.747 241.013 315.747 241.28 315.747C241.56 315.747 241.827 315.747 242.08 315.747C242.147 315.747 242.2 315.767 242.24 315.807C242.28 315.847 242.3 315.901 242.3 315.967V318.547C242.047 318.547 241.78 318.547 241.5 318.547C241.233 318.547 240.953 318.547 240.66 318.547C240.38 318.547 240.1 318.547 239.82 318.547C239.553 318.547 239.293 318.547 239.04 318.547C238.973 318.547 238.92 318.527 238.88 318.487C238.84 318.447 238.82 318.394 238.82 318.327V315.747ZM250.072 320.627C250.565 320.627 250.999 320.661 251.372 320.727C251.745 320.781 252.045 320.854 252.272 320.947C252.512 321.027 252.672 321.107 252.752 321.187C252.779 321.201 252.792 321.227 252.792 321.267C252.805 321.294 252.812 321.327 252.812 321.367C252.812 321.741 252.812 322.121 252.812 322.507C252.812 322.894 252.812 323.281 252.812 323.667H252.432C252.072 323.507 251.699 323.387 251.312 323.307C250.925 323.227 250.505 323.187 250.052 323.187C249.612 323.187 249.219 323.274 248.872 323.447C248.525 323.607 248.259 323.867 248.072 324.227C247.885 324.587 247.792 325.054 247.792 325.627V326.887C247.792 327.314 247.845 327.687 247.952 328.007C248.059 328.314 248.225 328.567 248.452 328.767C248.639 328.954 248.865 329.094 249.132 329.187C249.399 329.267 249.705 329.307 250.052 329.307C250.359 329.307 250.645 329.294 250.912 329.267C251.179 329.227 251.439 329.174 251.692 329.107C251.945 329.041 252.192 328.954 252.432 328.847H252.812C252.812 329.234 252.812 329.621 252.812 330.007C252.812 330.394 252.812 330.781 252.812 331.167C252.812 331.194 252.805 331.221 252.792 331.247C252.792 331.274 252.779 331.301 252.752 331.327C252.685 331.394 252.532 331.474 252.292 331.567C252.065 331.647 251.759 331.714 251.372 331.767C250.999 331.834 250.565 331.867 250.072 331.867C249.272 331.867 248.559 331.761 247.932 331.547C247.305 331.334 246.772 331.021 246.332 330.607C245.892 330.181 245.559 329.667 245.332 329.067C245.105 328.467 244.992 327.787 244.992 327.027V325.587C244.992 324.601 245.205 323.741 245.632 323.007C246.059 322.261 246.652 321.681 247.412 321.267C248.172 320.841 249.059 320.627 250.072 320.627ZM264.032 324.807C264.032 325.141 264.032 325.467 264.032 325.787C264.032 326.094 264.032 326.414 264.032 326.747C264.032 327.067 264.032 327.394 264.032 327.727C264.032 328.047 264.032 328.361 264.032 328.667C264.032 328.774 264.039 328.867 264.052 328.947C264.079 329.027 264.119 329.094 264.172 329.147C264.212 329.187 264.265 329.221 264.332 329.247C264.412 329.261 264.499 329.267 264.592 329.267C264.632 329.267 264.665 329.267 264.692 329.267C264.732 329.267 264.772 329.267 264.812 329.267H265.192C265.192 329.627 265.192 329.987 265.192 330.347C265.192 330.694 265.192 331.047 265.192 331.407C265.192 331.474 265.172 331.527 265.132 331.567C265.092 331.607 265.039 331.627 264.972 331.627C264.905 331.627 264.739 331.627 264.472 331.627C264.219 331.627 263.992 331.627 263.792 331.627C263.419 331.627 263.085 331.567 262.792 331.447C262.499 331.327 262.239 331.161 262.012 330.947C261.785 330.721 261.612 330.454 261.492 330.147C261.372 329.841 261.312 329.494 261.312 329.107C261.312 328.694 261.312 328.274 261.312 327.847C261.312 327.421 261.312 327.001 261.312 326.587C261.312 326.361 261.312 326.147 261.312 325.947C261.312 325.734 261.312 325.521 261.312 325.307C261.312 325.094 261.312 324.881 261.312 324.667C261.312 324.281 261.245 323.981 261.112 323.767C260.979 323.541 260.759 323.381 260.452 323.287C260.159 323.194 259.759 323.147 259.252 323.147C258.879 323.147 258.512 323.167 258.152 323.207C257.805 323.247 257.459 323.301 257.112 323.367C256.779 323.434 256.439 323.527 256.092 323.647H255.712C255.712 323.287 255.712 322.927 255.712 322.567C255.712 322.207 255.712 321.854 255.712 321.507C255.712 321.454 255.719 321.414 255.732 321.387C255.745 321.361 255.759 321.341 255.772 321.327C255.852 321.247 256.072 321.154 256.432 321.047C256.805 320.941 257.245 320.854 257.752 320.787C258.259 320.707 258.759 320.667 259.252 320.667C260.092 320.667 260.812 320.747 261.412 320.907C262.012 321.054 262.505 321.294 262.892 321.627C263.279 321.961 263.565 322.394 263.752 322.927C263.939 323.447 264.032 324.074 264.032 324.807ZM257.632 328.587C257.632 328.867 257.705 329.081 257.852 329.227C258.012 329.361 258.252 329.427 258.572 329.427C258.932 329.427 259.285 329.387 259.632 329.307C259.979 329.227 260.319 329.094 260.652 328.907C260.999 328.721 261.345 328.481 261.692 328.187V329.907H261.092C260.919 330.307 260.672 330.654 260.352 330.947C260.045 331.227 259.685 331.447 259.272 331.607C258.859 331.754 258.405 331.827 257.912 331.827C257.299 331.827 256.765 331.707 256.312 331.467C255.872 331.227 255.532 330.894 255.292 330.467C255.052 330.027 254.932 329.521 254.932 328.947V328.247C254.932 327.807 255.005 327.414 255.152 327.067C255.299 326.721 255.505 326.421 255.772 326.167C256.052 325.914 256.385 325.721 256.772 325.587C257.159 325.441 257.592 325.367 258.072 325.367C258.539 325.367 258.992 325.367 259.432 325.367C259.885 325.367 260.312 325.367 260.712 325.367C261.125 325.367 261.512 325.367 261.872 325.367C261.992 325.367 262.079 325.474 262.132 325.687C262.199 325.901 262.239 326.141 262.252 326.407C262.265 326.661 262.272 326.874 262.272 327.047C261.845 327.047 261.432 327.047 261.032 327.047C260.632 327.047 260.225 327.047 259.812 327.047C259.412 327.047 258.999 327.047 258.572 327.047C258.412 327.047 258.272 327.067 258.152 327.107C258.045 327.147 257.952 327.207 257.872 327.287C257.805 327.367 257.745 327.461 257.692 327.567C257.652 327.661 257.632 327.767 257.632 327.887V328.587Z" fill="#010101"/>
</svg>
