<svg width="300" height="403" viewBox="0 0 300 403" fill="none" xmlns="http://www.w3.org/2000/svg">
<path d="M245.683 151.08H54.3182C49.869 151.08 46.2622 154.688 46.2622 159.139V394.612C46.2622 399.063 49.869 402.671 54.3182 402.671H245.683C250.132 402.671 253.739 399.063 253.739 394.612V159.139C253.739 154.688 250.132 151.08 245.683 151.08Z" fill="#6BA03A"/>
<path d="M291.944 0.183594H8.05628C3.60705 0.183594 0.000244141 3.79186 0.000244141 8.24289V380.602C0.000244141 385.053 3.60705 388.662 8.05628 388.662H291.944C296.393 388.662 300 385.053 300 380.602V8.24289C300 3.79186 296.393 0.183594 291.944 0.183594Z" fill="#92C154"/>
<path d="M64.9085 67.4907H192.771C195.961 67.4512 199.035 68.6806 201.319 70.9086C203.603 73.1365 204.909 76.1806 204.949 79.3714V260.746C204.909 263.937 203.603 266.981 201.319 269.209C199.035 271.437 195.961 272.666 192.771 272.627H64.9085C61.7189 272.666 58.6443 271.437 56.3606 269.209C54.0769 266.981 52.7712 263.937 52.7305 260.746V79.3714C52.7712 76.1806 54.0769 73.1365 56.3606 70.9086C58.6443 68.6806 61.7189 67.4512 64.9085 67.4907Z" fill="#8C662D"/>
<path d="M71.4394 76.0679H184.445C187.331 76.1086 190.082 77.2925 192.095 79.3599C194.109 81.4273 195.221 84.2093 195.187 87.0957V255.354C195.221 258.24 194.109 261.022 192.095 263.089C190.082 265.157 187.331 266.341 184.445 266.381H71.4394C68.5543 266.341 65.8031 265.157 63.7894 263.089C61.7757 261.022 60.664 258.24 60.698 255.354V87.0957C60.664 84.2093 61.7757 81.4273 63.7894 79.3599C65.8031 77.2925 68.5543 76.1086 71.4394 76.0679Z" fill="white"/>
<path d="M135.707 104.167L109.673 150.031C109.666 150.044 109.662 150.058 109.662 150.072C109.662 150.087 109.666 150.101 109.674 150.113C109.681 150.126 109.692 150.136 109.705 150.143C109.718 150.149 109.732 150.153 109.747 150.152L126.047 148.332C126.058 148.331 126.07 148.332 126.081 148.336C126.092 148.34 126.101 148.347 126.109 148.355C126.117 148.364 126.123 148.374 126.126 148.385C126.129 148.396 126.13 148.408 126.127 148.419L123.308 181.563C123.302 181.582 123.303 181.602 123.312 181.62C123.321 181.637 123.336 181.651 123.355 181.657C123.373 181.663 123.394 181.662 123.412 181.653C123.429 181.644 123.443 181.629 123.449 181.61L151.35 134.074C151.358 134.062 151.362 134.047 151.362 134.033C151.362 134.018 151.358 134.004 151.35 133.992C151.342 133.98 151.331 133.97 151.318 133.965C151.305 133.959 151.29 133.957 151.276 133.959L133.056 135.974C133.045 135.975 133.034 135.974 133.024 135.97C133.013 135.967 133.004 135.961 132.996 135.953C132.989 135.945 132.983 135.936 132.979 135.926C132.975 135.915 132.974 135.905 132.975 135.894L135.869 104.207C135.874 104.186 135.87 104.163 135.859 104.144C135.848 104.125 135.829 104.112 135.808 104.106C135.787 104.101 135.764 104.105 135.745 104.116C135.726 104.127 135.713 104.146 135.707 104.167Z" fill="#F0C414" stroke="#F0C414" stroke-width="1.90075" stroke-miterlimit="10"/>
<path d="M174.061 141.422L209.796 127.889L247.27 141.422V181.638C247.27 181.638 242.067 209.456 212.924 211.189C184.473 210.517 174.061 183.075 174.061 183.075V141.422Z" fill="#8DC04E" stroke="#8DC04E" stroke-width="0.671641" stroke-miterlimit="10"/>
<path d="M180.687 147.863L208.433 137.238L237.556 147.842V179.348C237.556 179.348 233.528 201.135 210.857 202.491C188.743 201.947 180.646 180.469 180.646 180.469L180.687 147.863Z" fill="#7EB844" stroke="#7EB844" stroke-width="0.671641" stroke-miterlimit="10"/>
<path d="M203.901 176.251L199.276 171.677C198.801 171.474 198.276 171.421 197.771 171.526C197.265 171.63 196.804 171.887 196.449 172.262C196.119 172.673 195.919 173.174 195.877 173.7C195.836 174.226 195.953 174.752 196.214 175.21L202.639 181.799C202.639 181.799 204.378 183.142 206.761 180.69C209.144 178.239 225.089 162.161 225.089 162.161C225.089 162.161 225.82 159.992 224.76 159.058C223.699 158.124 221.161 159.058 221.161 159.058L203.901 176.251Z" fill="#FCFCFA" stroke="white" stroke-width="0.671641" stroke-miterlimit="10"/>
<path d="M173.456 198.784H83.8932C80.9258 198.784 78.5225 199.872 78.5225 201.215C78.5225 202.558 80.9326 203.64 83.8932 203.64H173.456C176.423 203.64 178.827 202.552 178.827 201.215C178.827 199.878 176.423 198.784 173.456 198.784Z" fill="#010101"/>
<path d="M173.456 218.569H83.8932C80.9258 218.569 78.5225 219.657 78.5225 220.993C78.5225 222.33 80.9326 223.425 83.8932 223.425H173.456C176.423 223.425 178.827 222.337 178.827 220.993C178.827 219.65 176.423 218.569 173.456 218.569Z" fill="#010101"/>
<path d="M173.429 237.744H83.4697C80.489 237.744 78.0654 238.832 78.0654 240.175C78.0654 241.518 80.489 242.606 83.4697 242.606H173.429C176.416 242.606 178.833 241.518 178.833 240.175C178.833 238.832 176.416 237.744 173.429 237.744Z" fill="#010101"/>
<path d="M127.745 52.2184C127.745 52.2184 118.548 52.0438 115.601 62.8097C105.886 63.1522 101.375 62.9776 101.375 67.5109V82.2863C101.375 82.2863 101.892 86.9876 105.537 86.9876C109.874 86.8197 151.51 86.9876 151.51 86.9876C151.51 86.9876 154.807 85.6041 154.807 82.9982V67.5512C154.807 67.5512 153.9 62.85 149.496 62.85C143.354 63.0179 140.581 62.85 140.581 62.85C140.581 62.85 139.366 53.0848 127.745 52.2184Z" fill="#E6C81C"/>
<path d="M127.946 79.1237C131.976 79.1237 135.243 75.8552 135.243 71.8233C135.243 67.7914 131.976 64.5229 127.946 64.5229C123.916 64.5229 120.648 67.7914 120.648 71.8233C120.648 75.8552 123.916 79.1237 127.946 79.1237Z" fill="white"/>
</svg>
