<svg width="300" height="403" viewBox="0 0 300 403" fill="none" xmlns="http://www.w3.org/2000/svg">
<path d="M245.483 151.078H54.5096C49.9523 151.078 46.2578 154.774 46.2578 159.333V394.415C46.2578 398.975 49.9523 402.671 54.5096 402.671H245.483C250.04 402.671 253.735 398.975 253.735 394.415V159.333C253.735 154.774 250.04 151.078 245.483 151.078Z" fill="#6BA03A"/>
<path d="M291.748 0.18335H8.25202C3.69469 0.18335 0.000244141 3.87925 0.000244141 8.43838V380.403C0.000244141 384.962 3.69469 388.658 8.25202 388.658H291.748C296.306 388.658 300 384.962 300 380.403V8.43838C300 3.87925 296.306 0.18335 291.748 0.18335Z" fill="#92C154"/>
<path d="M180.89 200.635C182.311 200.635 183.462 199.484 183.462 198.063C183.462 196.642 182.311 195.49 180.89 195.49C179.47 195.49 178.318 196.642 178.318 198.063C178.318 199.484 179.47 200.635 180.89 200.635Z" fill="#6BA03A"/>
<path d="M81.0165 216.561L81.3948 109.665L168.334 109.28V232.686C168.334 232.686 167.055 242.261 160.034 242.261C153.013 242.392 149.032 237.666 148.42 232.177L148.544 225.662L63.5228 225.531C63.5228 225.531 59.8232 240.48 72.3315 242.268H160.034" stroke="#6BA03A" stroke-width="3.9005" stroke-miterlimit="10"/>
<path d="M81.0447 219.532C82.4879 219.532 83.6577 218.362 83.6577 216.918C83.6577 215.475 82.4879 214.304 81.0447 214.304C79.6016 214.304 78.4316 215.475 78.4316 216.918C78.4316 218.362 79.6016 219.532 81.0447 219.532Z" fill="#6BA03A"/>
<path d="M147.526 191.741H101.804C101.075 191.741 100.375 192.031 99.8594 192.547C99.3435 193.063 99.0537 193.763 99.0537 194.492C99.0537 195.222 99.3435 195.922 99.8594 196.438C100.375 196.954 101.075 197.244 101.804 197.244H147.526C148.255 197.244 148.955 196.954 149.471 196.438C149.987 195.922 150.277 195.222 150.277 194.492C150.277 193.763 149.987 193.063 149.471 192.547C148.955 192.031 148.255 191.741 147.526 191.741Z" fill="#6BA03A"/>
<path d="M128.719 206.936H100.738C99.8101 206.936 99.0605 208.167 99.0605 209.688C99.0605 211.208 99.8101 212.439 100.738 212.439H128.719C129.647 212.439 130.397 211.215 130.397 209.688C130.397 208.161 129.647 206.936 128.719 206.936Z" fill="#6BA03A"/>
<path d="M218.643 144.783H180.176C178.904 144.783 177.865 146.014 177.865 147.534C177.865 149.055 178.904 150.286 180.176 150.286H218.643C219.922 150.286 220.953 149.062 220.953 147.534C220.953 146.007 219.922 144.783 218.643 144.783Z" fill="#6BA03A"/>
<path d="M218.643 160.708H180.176C178.904 160.708 177.865 161.933 177.865 163.46C177.865 164.987 178.904 166.212 180.176 166.212H218.643C219.922 166.212 220.953 164.98 220.953 163.46C220.953 161.94 219.922 160.708 218.643 160.708Z" fill="#6BA03A"/>
<path d="M199.636 177.307H179.103C178.415 177.307 177.865 178.539 177.865 180.059C177.865 181.579 178.422 182.81 179.103 182.81H199.636C200.324 182.81 200.867 181.586 200.867 180.059C200.867 178.532 200.317 177.307 199.636 177.307Z" fill="#6BA03A"/>
<path d="M131.724 128.439L111.307 155.955C111.303 155.963 111.3 155.972 111.3 155.981C111.3 155.991 111.302 156 111.306 156.008C111.31 156.016 111.316 156.023 111.323 156.028C111.331 156.034 111.339 156.037 111.349 156.038H122.165C122.173 156.038 122.181 156.039 122.188 156.042C122.194 156.046 122.201 156.05 122.205 156.056C122.21 156.062 122.213 156.07 122.215 156.077C122.216 156.085 122.216 156.092 122.213 156.1L117.929 177.109C117.929 177.157 117.991 177.191 118.019 177.15L139.783 148.712C139.79 148.704 139.796 148.695 139.797 148.685C139.799 148.675 139.798 148.664 139.793 148.655C139.788 148.646 139.781 148.638 139.772 148.633C139.762 148.629 139.752 148.627 139.742 148.629H127.653C127.645 148.629 127.637 148.628 127.63 148.625C127.623 148.621 127.617 148.616 127.613 148.61C127.608 148.604 127.605 148.597 127.603 148.59C127.602 148.582 127.602 148.574 127.605 148.567L131.813 128.494C131.82 128.482 131.823 128.467 131.819 128.454C131.816 128.44 131.808 128.429 131.796 128.421C131.784 128.414 131.77 128.412 131.756 128.415C131.743 128.418 131.731 128.427 131.724 128.439Z" stroke="#6BA03A" stroke-width="3.9005" stroke-miterlimit="10"/>
<path d="M195.119 94.0965C195.106 94.0795 195.089 94.0656 195.07 94.056C195.051 94.0465 195.03 94.0415 195.008 94.0415C194.987 94.0415 194.966 94.0465 194.947 94.056C194.928 94.0656 194.911 94.0795 194.898 94.0965C191.797 99.236 188.969 104.536 186.427 109.974C185.555 111.915 185.189 114.044 185.361 116.165C185.449 117.58 185.933 118.941 186.758 120.094C187.582 121.247 188.713 122.145 190.023 122.686C191.942 123.544 194.051 123.89 196.143 123.691C200.798 123.34 202.683 122.315 203.962 119.13C204.671 117.274 204.976 115.288 204.858 113.305C204.739 111.321 204.199 109.386 203.274 107.628C199.478 100.13 196.006 95.1697 195.119 94.0965Z" stroke="#6BA03A" stroke-width="3.9005" stroke-miterlimit="10"/>
<path d="M150.27 96.2508V72.5864H236.989V198.084H180.65" stroke="#6BA03A" stroke-width="3.9005" stroke-miterlimit="10"/>
<path d="M150.27 98.8579C151.683 98.8579 152.828 97.7121 152.828 96.2988C152.828 94.8855 151.683 93.7397 150.27 93.7397C148.857 93.7397 147.712 94.8855 147.712 96.2988C147.712 97.7121 148.857 98.8579 150.27 98.8579Z" fill="#6BA03A"/>
</svg>
