<svg width="300" height="403" viewBox="0 0 300 403" fill="none" xmlns="http://www.w3.org/2000/svg">
<path d="M246.096 151.081H53.8973C49.6791 151.081 46.2595 154.502 46.2595 158.722V395.031C46.2595 399.251 49.6791 402.672 53.8973 402.672H246.096C250.314 402.672 253.734 399.251 253.734 395.031V158.722C253.734 154.502 250.314 151.081 246.096 151.081Z" fill="#6BA03A"/>
<path d="M292.363 0.182129H7.63829C3.42005 0.182129 0.000488281 3.60301 0.000488281 7.82289V381.01C0.000488281 385.23 3.42005 388.651 7.63829 388.651H292.363C296.581 388.651 300 385.23 300 381.01V7.82289C300 3.60301 296.581 0.182129 292.363 0.182129Z" fill="#92C154"/>
<path d="M59.2886 60.8487H196.069C197.761 60.8276 199.44 61.1405 201.01 61.7693C202.581 62.3982 204.013 63.3307 205.223 64.5135C206.433 65.6962 207.398 67.1061 208.063 68.6624C208.728 70.2187 209.079 71.8909 209.098 73.5833V267.588C209.079 269.281 208.728 270.953 208.063 272.509C207.398 274.066 206.433 275.475 205.223 276.658C204.013 277.841 202.581 278.774 201.01 279.402C199.44 280.031 197.761 280.344 196.069 280.323H59.2886C57.5969 280.344 55.9176 280.031 54.3469 279.402C52.7762 278.774 51.3449 277.841 50.1348 276.658C48.9246 275.475 47.9595 274.066 47.2946 272.509C46.6297 270.953 46.278 269.281 46.2598 267.588V73.5641C46.2805 71.8734 46.634 70.2033 47.3 68.6492C47.9661 67.0951 48.9316 65.6875 50.1414 64.5067C51.3513 63.3259 52.7818 62.3952 54.3513 61.7675C55.9208 61.1398 57.5985 60.8276 59.2886 60.8487Z" fill="#8C662D"/>
<path d="M66.2896 70.0244H187.171C190.259 70.063 193.206 71.3267 195.364 73.5379C197.522 75.7491 198.714 78.7267 198.678 81.8167V261.82C198.714 264.911 197.521 267.89 195.362 270.101C193.203 272.313 190.254 273.576 187.164 273.612H66.2896C63.1992 273.576 60.25 272.313 58.0898 270.102C55.9296 267.89 54.7353 264.912 54.7693 261.82V81.8167C54.7353 78.7251 55.9296 75.7464 58.0898 73.5353C60.25 71.3241 63.1992 70.0614 66.2896 70.0244Z" fill="white"/>
<path d="M176.063 139.944L214.291 125.483L254.389 139.969V182.986C254.389 182.986 248.82 212.747 217.639 214.6C187.202 213.862 176.07 184.527 176.07 184.527L176.063 139.944Z" fill="#8DC04E" stroke="#8DC04E" stroke-width="0.63673" stroke-miterlimit="10"/>
<path d="M183.115 146.826L212.833 135.486L243.988 146.826V180.529C243.988 180.529 239.66 203.839 215.423 205.291C191.771 204.712 183.115 181.732 183.115 181.732V146.826Z" fill="#7EB844" stroke="#7EB844" stroke-width="0.63673" stroke-miterlimit="10"/>
<path d="M207.983 177.199L203.038 172.309C202.529 172.091 201.966 172.036 201.426 172.15C200.885 172.264 200.392 172.542 200.014 172.945C198.741 174.359 199.76 176.129 199.76 176.129L206.64 183.178C206.64 183.178 208.492 184.591 211.045 181.993C213.597 179.395 230.648 162.172 230.648 162.172C230.648 162.172 231.437 159.854 230.298 158.854C229.159 157.855 226.447 158.854 226.447 158.854L207.983 177.199Z" fill="#FCFCFA" stroke="white" stroke-width="0.63673" stroke-miterlimit="10"/>
<path d="M126.513 44.5099C126.513 44.5099 116.673 44.3253 113.522 55.8374C103.128 56.2067 98.3037 56.022 98.3037 60.8484V76.633C98.3037 76.633 98.8575 81.644 102.759 81.644C107.393 81.4594 151.934 81.644 151.934 81.644C151.934 81.644 155.46 80.1605 155.46 77.3716V60.8484C155.46 60.8484 154.492 55.8374 149.782 55.8374C143.214 56.022 140.235 55.8374 140.235 55.8374C140.235 55.8374 138.943 45.4396 126.513 44.5099Z" fill="#E6C81C"/>
<path d="M126.723 73.2894C131.033 73.2894 134.526 69.7944 134.526 65.4831C134.526 61.1718 131.033 57.6768 126.723 57.6768C122.414 57.6768 118.92 61.1718 118.92 65.4831C118.92 69.7944 122.414 73.2894 126.723 73.2894Z" fill="white"/>
<path d="M172.887 202.616H74.2767C71.0052 202.616 68.3574 203.813 68.3574 205.29C68.3574 206.768 71.0052 207.965 74.2767 207.965H172.887C176.152 207.965 178.806 206.768 178.806 205.29C178.806 203.813 176.152 202.616 172.887 202.616Z" fill="#010101"/>
<path d="M172.887 219.924H74.2767C71.0052 219.924 68.3574 221.121 68.3574 222.598C68.3574 224.075 71.0052 225.272 74.2767 225.272H172.887C176.152 225.272 178.806 224.075 178.806 222.598C178.806 221.121 176.152 219.924 172.887 219.924Z" fill="#010101"/>
<path d="M171.824 237.229H73.2201C69.9486 237.229 67.3008 238.427 67.3008 239.904C67.3008 241.381 69.9486 242.578 73.2201 242.578H171.824C175.096 242.578 177.743 241.381 177.743 239.904C177.743 238.427 175.127 237.229 171.824 237.229Z" fill="#010101"/>
<path d="M115.439 117.295C115.454 117.275 115.462 117.25 115.462 117.225C115.462 117.2 115.454 117.175 115.439 117.155C113.031 112.568 110.289 108.165 107.234 103.981C106.025 102.319 104.803 100.753 103.587 99.2692C103.576 99.2579 103.563 99.2489 103.548 99.2427C103.533 99.2366 103.517 99.2334 103.501 99.2334C103.485 99.2334 103.469 99.2366 103.455 99.2427C103.44 99.2489 103.427 99.2579 103.415 99.2692C96.2107 105.602 90.5833 113.529 86.9814 122.421C85.1865 128.635 86.574 135.085 90.743 139.16C93.0726 141.371 96.0345 142.798 99.2146 143.242C99.2429 143.245 99.2715 143.239 99.2957 143.224C99.3199 143.209 99.3384 143.186 99.3482 143.159C102.762 133.47 108.249 124.643 115.426 117.295H115.439Z" stroke="#79BA69" stroke-width="1.62366" stroke-miterlimit="10"/>
<path d="M126.163 117.364C126.155 117.351 126.151 117.336 126.151 117.32C126.151 117.304 126.155 117.289 126.163 117.275C128.548 112.665 131.269 108.236 134.304 104.025C135.513 102.344 136.735 100.752 137.951 99.2559C137.958 99.2487 137.967 99.2431 137.976 99.2392C137.985 99.2354 137.995 99.2334 138.005 99.2334C138.015 99.2334 138.025 99.2354 138.034 99.2392C138.044 99.2431 138.052 99.2487 138.059 99.2559C145.303 105.546 150.986 113.435 154.659 122.299C156.492 128.507 155.149 134.964 151.005 139.064C148.679 141.296 145.712 142.744 142.521 143.203C142.504 143.204 142.486 143.2 142.471 143.191C142.456 143.182 142.445 143.168 142.438 143.152C138.964 133.457 133.409 124.642 126.163 117.326V117.364Z" stroke="#79BA69" stroke-width="1.62366" stroke-miterlimit="10"/>
<path d="M120.473 111.794C117.845 114.659 101.296 133.01 99.6923 144.325V144.395C99.5013 156.76 105.039 166.508 120.314 167.527H120.391C135.959 166.61 142.502 156.563 141.719 143.605C141.722 143.571 141.722 143.537 141.719 143.503C138.46 130.96 123.649 114.475 121.186 111.794C121.142 111.743 121.087 111.702 121.026 111.674C120.964 111.645 120.898 111.631 120.83 111.631C120.762 111.631 120.695 111.645 120.634 111.674C120.572 111.702 120.518 111.743 120.473 111.794Z" stroke="#79BA69" stroke-width="1.62366" stroke-miterlimit="10"/>
<path d="M120.918 158.294C127.917 158.294 133.591 152.618 133.591 145.617C133.591 138.615 127.917 132.939 120.918 132.939C113.92 132.939 108.246 138.615 108.246 145.617C108.246 152.618 113.92 158.294 120.918 158.294Z" stroke="#79BA69" stroke-width="1.80195" stroke-miterlimit="10"/>
<path d="M123.083 136.021L115.299 146.725H119.411L117.845 154.951L126.119 143.885H121.524L123.128 136.066C123.128 136.066 123.096 136.002 123.083 136.021Z" stroke="#79BA69" stroke-width="1.26073" stroke-miterlimit="10"/>
<path d="M58.1445 339.724C57.1845 339.724 56.3445 339.597 55.6245 339.344C54.9045 339.104 54.3045 338.751 53.8245 338.284C53.3445 337.817 52.9845 337.244 52.7445 336.564C52.5178 335.884 52.4045 335.111 52.4045 334.244V330.204C52.4045 329.417 52.5245 328.704 52.7645 328.064C53.0045 327.411 53.3578 326.851 53.8245 326.384C54.3045 325.917 54.8845 325.557 55.5645 325.304C56.2578 325.051 57.0445 324.924 57.9245 324.924C58.6045 324.924 59.2111 324.991 59.7445 325.124C60.2911 325.244 60.7511 325.404 61.1245 325.604C61.5111 325.791 61.8111 325.991 62.0245 326.204C62.0511 326.231 62.0711 326.264 62.0845 326.304C62.0978 326.344 62.1045 326.384 62.1045 326.424C62.1178 326.464 62.1245 326.504 62.1245 326.544C62.1245 327.037 62.1245 327.604 62.1245 328.244C62.1245 328.871 62.1245 329.471 62.1245 330.044C61.7378 330.044 61.3511 330.044 60.9645 330.044C60.5778 330.044 60.1911 330.044 59.8045 330.044C59.7378 330.044 59.6845 330.024 59.6445 329.984C59.6045 329.944 59.5845 329.891 59.5845 329.824C59.5845 329.584 59.5845 329.344 59.5845 329.104C59.5845 328.864 59.5845 328.597 59.5845 328.304C59.5845 327.997 59.5845 327.644 59.5845 327.244L60.1445 328.084C59.8111 327.871 59.4645 327.724 59.1045 327.644C58.7445 327.551 58.3378 327.504 57.8845 327.504C57.3511 327.504 56.8845 327.604 56.4845 327.804C56.0978 327.991 55.7978 328.291 55.5845 328.704C55.3845 329.117 55.2845 329.644 55.2845 330.284V334.024C55.2845 334.624 55.3378 335.131 55.4445 335.544C55.5645 335.944 55.7578 336.277 56.0245 336.544C56.2645 336.784 56.5645 336.957 56.9245 337.064C57.2978 337.157 57.7111 337.204 58.1645 337.204C58.8978 337.204 59.5445 337.117 60.1045 336.944C60.6645 336.771 61.2511 336.491 61.8645 336.104H62.2445C62.2445 336.291 62.2445 336.477 62.2445 336.664C62.2445 336.837 62.2445 337.017 62.2445 337.204C62.2445 337.377 62.2445 337.557 62.2445 337.744C62.2445 337.917 62.2445 338.104 62.2445 338.304C62.2445 338.371 62.2311 338.431 62.2045 338.484C62.1911 338.537 62.1645 338.577 62.1245 338.604C61.9378 338.804 61.6511 338.991 61.2645 339.164C60.8778 339.324 60.4178 339.457 59.8845 339.564C59.3511 339.671 58.7711 339.724 58.1445 339.724ZM69.1613 328.324C70.068 328.324 70.8547 328.511 71.5213 328.884C72.2013 329.257 72.728 329.777 73.1013 330.444C73.4747 331.111 73.6613 331.891 73.6613 332.784V334.444C73.6613 334.484 73.6547 334.524 73.6413 334.564C73.628 334.591 73.6013 334.611 73.5613 334.624C73.5347 334.637 73.5013 334.644 73.4613 334.644H68.8613C68.6347 334.644 68.4013 334.644 68.1613 334.644C67.9347 334.644 67.708 334.644 67.4813 334.644H66.6613L66.6013 332.964H71.0413C71.0413 332.911 71.0413 332.864 71.0413 332.824C71.0413 332.784 71.0413 332.737 71.0413 332.684C71.0413 332.297 71.0013 331.971 70.9213 331.704C70.8413 331.424 70.7147 331.204 70.5413 331.044C70.3947 330.884 70.208 330.771 69.9813 330.704C69.7547 330.637 69.4813 330.604 69.1613 330.604C68.4947 330.604 67.9947 330.771 67.6613 331.104C67.3413 331.424 67.1813 331.951 67.1813 332.684V335.124C67.1813 335.444 67.2213 335.731 67.3013 335.984C67.3947 336.224 67.5213 336.431 67.6813 336.604C67.8947 336.817 68.1747 336.971 68.5213 337.064C68.8813 337.157 69.2947 337.204 69.7613 337.204C70.2413 337.204 70.668 337.184 71.0413 337.144C71.4147 337.091 71.7613 337.024 72.0813 336.944C72.4013 336.851 72.7147 336.751 73.0213 336.644H73.4013C73.4013 336.977 73.4013 337.317 73.4013 337.664C73.4013 337.997 73.4013 338.337 73.4013 338.684C73.4013 338.711 73.3947 338.737 73.3813 338.764C73.368 338.791 73.348 338.817 73.3213 338.844C73.2147 338.951 72.9747 339.057 72.6013 339.164C72.2413 339.271 71.8013 339.364 71.2813 339.444C70.7747 339.524 70.2547 339.564 69.7213 339.564C68.8547 339.564 68.088 339.464 67.4213 339.264C66.768 339.051 66.2213 338.751 65.7813 338.364C65.3547 337.977 65.028 337.511 64.8013 336.964C64.588 336.404 64.4813 335.777 64.4813 335.084V332.804C64.4813 332.124 64.588 331.511 64.8013 330.964C65.028 330.417 65.348 329.951 65.7613 329.564C66.1747 329.164 66.668 328.857 67.2413 328.644C67.8147 328.431 68.4547 328.324 69.1613 328.324ZM79.1335 330.484H79.9335C80.0935 329.991 80.2802 329.591 80.4935 329.284C80.7069 328.964 80.9669 328.731 81.2735 328.584C81.5935 328.437 81.9535 328.364 82.3535 328.364C82.5669 328.364 82.7402 328.384 82.8735 328.424C83.0202 328.464 83.1202 328.504 83.1735 328.544C83.2269 328.584 83.2602 328.624 83.2735 328.664C83.2869 328.691 83.2935 328.737 83.2935 328.804C83.2935 329.017 83.2935 329.231 83.2935 329.444C83.2935 329.644 83.2935 329.844 83.2935 330.044C83.2935 330.244 83.2935 330.451 83.2935 330.664C83.2935 330.864 83.2935 331.071 83.2935 331.284H82.9135C82.7802 331.244 82.6335 331.211 82.4735 331.184C82.3135 331.157 82.1335 331.144 81.9335 331.144C81.5202 331.144 81.1535 331.224 80.8335 331.384C80.5269 331.544 80.2402 331.771 79.9735 332.064C79.7069 332.344 79.4269 332.677 79.1335 333.064V330.484ZM79.5135 339.324C79.2202 339.324 78.9202 339.324 78.6135 339.324C78.3202 339.324 78.0269 339.324 77.7335 339.324C77.4402 339.324 77.1469 339.324 76.8535 339.324C76.8135 339.324 76.7802 339.324 76.7535 339.324C76.7269 339.311 76.7002 339.297 76.6735 339.284C76.6602 339.257 76.6469 339.231 76.6335 339.204C76.6335 339.177 76.6335 339.144 76.6335 339.104C76.6335 338.611 76.6335 338.091 76.6335 337.544C76.6335 336.984 76.6335 336.411 76.6335 335.824C76.6335 335.237 76.6335 334.651 76.6335 334.064C76.6335 333.464 76.6335 332.871 76.6335 332.284C76.6335 331.684 76.6335 331.097 76.6335 330.524C76.6335 330.151 76.6335 329.797 76.6335 329.464C76.6335 329.131 76.6335 328.831 76.6335 328.564C76.9669 328.564 77.2802 328.564 77.5735 328.564C77.8802 328.564 78.1735 328.564 78.4535 328.564C78.7469 328.564 79.0269 328.564 79.2935 328.564C79.3469 328.564 79.3869 328.577 79.4135 328.604C79.4402 328.617 79.4602 328.637 79.4735 328.664C79.5002 328.691 79.5135 328.731 79.5135 328.784C79.5135 329.397 79.5135 330.044 79.5135 330.724C79.5135 331.404 79.5135 332.097 79.5135 332.804C79.5135 333.511 79.5135 334.237 79.5135 334.984C79.5135 335.717 79.5135 336.451 79.5135 337.184C79.5135 337.904 79.5135 338.617 79.5135 339.324ZM85.3281 328.564H93.0481C93.1281 328.564 93.1881 328.584 93.2281 328.624C93.2681 328.664 93.2881 328.717 93.2881 328.784C93.2881 329.064 93.2881 329.324 93.2881 329.564C93.2881 329.804 93.2881 330.051 93.2881 330.304C93.2881 330.557 93.2881 330.817 93.2881 331.084H85.5681C85.5414 331.084 85.5147 331.077 85.4881 331.064C85.4614 331.051 85.4347 331.037 85.4081 331.024C85.3814 330.997 85.3614 330.971 85.3481 330.944C85.3347 330.917 85.3281 330.891 85.3281 330.864C85.3281 330.597 85.3281 330.337 85.3281 330.084C85.3281 329.831 85.3281 329.584 85.3281 329.344C85.3281 329.104 85.3281 328.844 85.3281 328.564ZM93.2881 336.744C93.2881 337.144 93.2881 337.544 93.2881 337.944C93.2881 338.331 93.2881 338.717 93.2881 339.104C93.2881 339.157 93.2681 339.211 93.2281 339.264C93.1881 339.304 93.1347 339.324 93.0681 339.324C92.9347 339.324 92.7947 339.324 92.6481 339.324C92.5147 339.324 92.3747 339.324 92.2281 339.324C92.0947 339.324 91.9614 339.324 91.8281 339.324C91.6947 339.324 91.5547 339.324 91.4081 339.324C90.7147 339.324 90.0947 339.244 89.5481 339.084C89.0014 338.911 88.5347 338.651 88.1481 338.304C87.7614 337.957 87.4681 337.511 87.2681 336.964C87.0681 336.417 86.9681 335.771 86.9681 335.024C86.9681 334.371 86.9681 333.724 86.9681 333.084C86.9681 332.444 86.9681 331.804 86.9681 331.164C86.9681 330.524 86.9681 329.884 86.9681 329.244C86.9681 328.604 86.9681 327.964 86.9681 327.324C86.9681 326.977 86.9681 326.644 86.9681 326.324C86.9681 325.991 86.9681 325.657 86.9681 325.324C87.3814 325.324 87.7947 325.324 88.2081 325.324C88.6347 325.324 89.0481 325.324 89.4481 325.324C89.4881 325.324 89.5214 325.337 89.5481 325.364C89.5881 325.377 89.6147 325.404 89.6281 325.444C89.6547 325.471 89.6681 325.504 89.6681 325.544C89.6681 326.317 89.6681 327.091 89.6681 327.864C89.6681 328.624 89.6681 329.391 89.6681 330.164C89.6681 330.937 89.6681 331.711 89.6681 332.484C89.6681 333.244 89.6681 334.011 89.6681 334.784C89.6681 335.184 89.7081 335.511 89.7881 335.764C89.8681 336.017 89.9881 336.224 90.1481 336.384C90.2947 336.517 90.4747 336.611 90.6881 336.664C90.9147 336.717 91.1881 336.744 91.5081 336.744C91.6814 336.744 91.8481 336.744 92.0081 336.744C92.1814 336.744 92.3547 336.744 92.5281 336.744C92.7014 336.744 92.8747 336.744 93.0481 336.744H93.2881ZM96.5774 339.104C96.5774 338.744 96.5774 338.297 96.5774 337.764C96.5774 337.217 96.5774 336.631 96.5774 336.004C96.5774 335.377 96.5774 334.751 96.5774 334.124C96.5774 333.497 96.5774 332.911 96.5774 332.364C96.5774 331.817 96.5774 331.357 96.5774 330.984H96.4374C96.3574 330.984 96.2641 330.984 96.1574 330.984C96.0641 330.984 95.9574 330.984 95.8374 330.984C95.7308 330.984 95.6174 330.984 95.4974 330.984C95.3908 330.984 95.2841 330.984 95.1774 330.984C95.1108 330.984 95.0574 330.964 95.0174 330.924C94.9774 330.884 94.9574 330.831 94.9574 330.764C94.9574 330.404 94.9574 330.037 94.9574 329.664C94.9574 329.291 94.9574 328.924 94.9574 328.564C95.1841 328.564 95.4374 328.564 95.7174 328.564C96.0108 328.564 96.3174 328.564 96.6374 328.564C96.9574 328.564 97.2708 328.564 97.5774 328.564C97.8841 328.564 98.1641 328.564 98.4174 328.564C98.6841 328.564 98.8974 328.564 99.0574 328.564C99.1108 328.564 99.1508 328.577 99.1774 328.604C99.2041 328.617 99.2241 328.637 99.2374 328.664C99.2641 328.691 99.2774 328.731 99.2774 328.784C99.2774 329.411 99.2774 330.097 99.2774 330.844C99.2774 331.577 99.2774 332.324 99.2774 333.084C99.2774 333.844 99.2774 334.591 99.2774 335.324C99.2774 336.057 99.2774 336.744 99.2774 337.384C99.2774 337.584 99.2774 337.797 99.2774 338.024C99.2774 338.237 99.2774 338.451 99.2774 338.664C99.2774 338.877 99.2774 339.097 99.2774 339.324C98.8374 339.324 98.4241 339.324 98.0374 339.324C97.6641 339.324 97.2508 339.324 96.7974 339.324C96.7308 339.324 96.6774 339.304 96.6374 339.264C96.5974 339.224 96.5774 339.171 96.5774 339.104ZM96.0974 323.444C96.3508 323.444 96.6108 323.444 96.8774 323.444C97.1574 323.444 97.4374 323.444 97.7174 323.444C98.0108 323.444 98.2908 323.444 98.5574 323.444C98.8374 323.444 99.1041 323.444 99.3574 323.444C99.4241 323.444 99.4774 323.464 99.5174 323.504C99.5574 323.544 99.5774 323.597 99.5774 323.664V326.244C99.3241 326.244 99.0574 326.244 98.7774 326.244C98.5108 326.244 98.2308 326.244 97.9374 326.244C97.6574 326.244 97.3774 326.244 97.0974 326.244C96.8308 326.244 96.5708 326.244 96.3174 326.244C96.2508 326.244 96.1974 326.224 96.1574 326.184C96.1174 326.144 96.0974 326.091 96.0974 326.024V323.444ZM101.73 329.084H108.05C108.103 329.084 108.143 329.097 108.17 329.124C108.196 329.137 108.216 329.157 108.23 329.184C108.256 329.211 108.27 329.251 108.27 329.304C108.27 329.677 108.27 330.031 108.27 330.364C108.27 330.697 108.27 331.057 108.27 331.444H101.95C101.91 331.444 101.87 331.437 101.83 331.424C101.803 331.397 101.776 331.371 101.75 331.344C101.736 331.304 101.73 331.264 101.73 331.224C101.73 330.837 101.73 330.477 101.73 330.144C101.73 329.811 101.73 329.457 101.73 329.084ZM105.73 339.104C105.73 339.157 105.71 339.211 105.67 339.264C105.63 339.304 105.576 339.324 105.51 339.324C105.083 339.324 104.67 339.324 104.27 339.324C103.87 339.324 103.45 339.324 103.01 339.324C103.01 338.991 103.01 338.657 103.01 338.324C103.01 337.991 103.01 337.657 103.01 337.324C103.01 336.471 103.01 335.671 103.01 334.924C103.01 334.164 103.01 333.424 103.01 332.704C103.01 331.971 103.01 331.217 103.01 330.444C103.01 329.657 103.01 328.804 103.01 327.884C103.01 327.284 103.096 326.744 103.27 326.264C103.443 325.771 103.69 325.357 104.01 325.024C104.33 324.677 104.723 324.411 105.19 324.224C105.67 324.037 106.21 323.944 106.81 323.944C107.17 323.944 107.49 323.971 107.77 324.024C108.05 324.064 108.283 324.117 108.47 324.184C108.656 324.251 108.783 324.311 108.85 324.364C108.876 324.377 108.89 324.404 108.89 324.444C108.903 324.471 108.91 324.497 108.91 324.524C108.91 324.871 108.91 325.224 108.91 325.584C108.91 325.931 108.91 326.277 108.91 326.624H108.53C108.37 326.557 108.21 326.504 108.05 326.464C107.903 326.411 107.75 326.371 107.59 326.344C107.43 326.317 107.263 326.304 107.09 326.304C106.916 326.304 106.743 326.331 106.57 326.384C106.396 326.437 106.243 326.517 106.11 326.624C105.976 326.757 105.876 326.924 105.81 327.124C105.756 327.311 105.73 327.571 105.73 327.904C105.73 328.531 105.73 329.231 105.73 330.004C105.73 330.764 105.73 331.557 105.73 332.384C105.73 333.211 105.73 334.031 105.73 334.844C105.73 335.657 105.73 336.431 105.73 337.164C105.73 337.884 105.73 338.531 105.73 339.104ZM111.577 339.104C111.577 338.744 111.577 338.297 111.577 337.764C111.577 337.217 111.577 336.631 111.577 336.004C111.577 335.377 111.577 334.751 111.577 334.124C111.577 333.497 111.577 332.911 111.577 332.364C111.577 331.817 111.577 331.357 111.577 330.984H111.437C111.357 330.984 111.264 330.984 111.157 330.984C111.064 330.984 110.957 330.984 110.837 330.984C110.731 330.984 110.617 330.984 110.497 330.984C110.391 330.984 110.284 330.984 110.177 330.984C110.111 330.984 110.057 330.964 110.017 330.924C109.977 330.884 109.957 330.831 109.957 330.764C109.957 330.404 109.957 330.037 109.957 329.664C109.957 329.291 109.957 328.924 109.957 328.564C110.184 328.564 110.437 328.564 110.717 328.564C111.011 328.564 111.317 328.564 111.637 328.564C111.957 328.564 112.271 328.564 112.577 328.564C112.884 328.564 113.164 328.564 113.417 328.564C113.684 328.564 113.897 328.564 114.057 328.564C114.111 328.564 114.151 328.577 114.177 328.604C114.204 328.617 114.224 328.637 114.237 328.664C114.264 328.691 114.277 328.731 114.277 328.784C114.277 329.411 114.277 330.097 114.277 330.844C114.277 331.577 114.277 332.324 114.277 333.084C114.277 333.844 114.277 334.591 114.277 335.324C114.277 336.057 114.277 336.744 114.277 337.384C114.277 337.584 114.277 337.797 114.277 338.024C114.277 338.237 114.277 338.451 114.277 338.664C114.277 338.877 114.277 339.097 114.277 339.324C113.837 339.324 113.424 339.324 113.037 339.324C112.664 339.324 112.251 339.324 111.797 339.324C111.731 339.324 111.677 339.304 111.637 339.264C111.597 339.224 111.577 339.171 111.577 339.104ZM111.097 323.444C111.351 323.444 111.611 323.444 111.877 323.444C112.157 323.444 112.437 323.444 112.717 323.444C113.011 323.444 113.291 323.444 113.557 323.444C113.837 323.444 114.104 323.444 114.357 323.444C114.424 323.444 114.477 323.464 114.517 323.504C114.557 323.544 114.577 323.597 114.577 323.664V326.244C114.324 326.244 114.057 326.244 113.777 326.244C113.511 326.244 113.231 326.244 112.937 326.244C112.657 326.244 112.377 326.244 112.097 326.244C111.831 326.244 111.571 326.244 111.317 326.244C111.251 326.244 111.197 326.224 111.157 326.184C111.117 326.144 111.097 326.091 111.097 326.024V323.444ZM122.35 328.324C122.843 328.324 123.276 328.357 123.65 328.424C124.023 328.477 124.323 328.551 124.55 328.644C124.79 328.724 124.95 328.804 125.03 328.884C125.056 328.897 125.07 328.924 125.07 328.964C125.083 328.991 125.09 329.024 125.09 329.064C125.09 329.437 125.09 329.817 125.09 330.204C125.09 330.591 125.09 330.977 125.09 331.364H124.71C124.35 331.204 123.976 331.084 123.59 331.004C123.203 330.924 122.783 330.884 122.33 330.884C121.89 330.884 121.496 330.971 121.15 331.144C120.803 331.304 120.536 331.564 120.35 331.924C120.163 332.284 120.07 332.751 120.07 333.324V334.584C120.07 335.011 120.123 335.384 120.23 335.704C120.336 336.011 120.503 336.264 120.73 336.464C120.916 336.651 121.143 336.791 121.41 336.884C121.676 336.964 121.983 337.004 122.33 337.004C122.636 337.004 122.923 336.991 123.19 336.964C123.456 336.924 123.716 336.871 123.97 336.804C124.223 336.737 124.47 336.651 124.71 336.544H125.09C125.09 336.931 125.09 337.317 125.09 337.704C125.09 338.091 125.09 338.477 125.09 338.864C125.09 338.891 125.083 338.917 125.07 338.944C125.07 338.971 125.056 338.997 125.03 339.024C124.963 339.091 124.81 339.171 124.57 339.264C124.343 339.344 124.036 339.411 123.65 339.464C123.276 339.531 122.843 339.564 122.35 339.564C121.55 339.564 120.836 339.457 120.21 339.244C119.583 339.031 119.05 338.717 118.61 338.304C118.17 337.877 117.836 337.364 117.61 336.764C117.383 336.164 117.27 335.484 117.27 334.724V333.284C117.27 332.297 117.483 331.437 117.91 330.704C118.336 329.957 118.93 329.377 119.69 328.964C120.45 328.537 121.336 328.324 122.35 328.324ZM136.31 332.504C136.31 332.837 136.31 333.164 136.31 333.484C136.31 333.791 136.31 334.111 136.31 334.444C136.31 334.764 136.31 335.091 136.31 335.424C136.31 335.744 136.31 336.057 136.31 336.364C136.31 336.471 136.316 336.564 136.33 336.644C136.356 336.724 136.396 336.791 136.45 336.844C136.49 336.884 136.543 336.917 136.61 336.944C136.69 336.957 136.776 336.964 136.87 336.964C136.91 336.964 136.943 336.964 136.97 336.964C137.01 336.964 137.05 336.964 137.09 336.964H137.47C137.47 337.324 137.47 337.684 137.47 338.044C137.47 338.391 137.47 338.744 137.47 339.104C137.47 339.171 137.45 339.224 137.41 339.264C137.37 339.304 137.316 339.324 137.25 339.324C137.183 339.324 137.016 339.324 136.75 339.324C136.496 339.324 136.27 339.324 136.07 339.324C135.696 339.324 135.363 339.264 135.07 339.144C134.776 339.024 134.516 338.857 134.29 338.644C134.063 338.417 133.89 338.151 133.77 337.844C133.65 337.537 133.59 337.191 133.59 336.804C133.59 336.391 133.59 335.971 133.59 335.544C133.59 335.117 133.59 334.697 133.59 334.284C133.59 334.057 133.59 333.844 133.59 333.644C133.59 333.431 133.59 333.217 133.59 333.004C133.59 332.791 133.59 332.577 133.59 332.364C133.59 331.977 133.523 331.677 133.39 331.464C133.256 331.237 133.036 331.077 132.73 330.984C132.436 330.891 132.036 330.844 131.53 330.844C131.156 330.844 130.79 330.864 130.43 330.904C130.083 330.944 129.736 330.997 129.39 331.064C129.056 331.131 128.716 331.224 128.37 331.344H127.99C127.99 330.984 127.99 330.624 127.99 330.264C127.99 329.904 127.99 329.551 127.99 329.204C127.99 329.151 127.996 329.111 128.01 329.084C128.023 329.057 128.036 329.037 128.05 329.024C128.13 328.944 128.35 328.851 128.71 328.744C129.083 328.637 129.523 328.551 130.03 328.484C130.536 328.404 131.036 328.364 131.53 328.364C132.37 328.364 133.09 328.444 133.69 328.604C134.29 328.751 134.783 328.991 135.17 329.324C135.556 329.657 135.843 330.091 136.03 330.624C136.216 331.144 136.31 331.771 136.31 332.504ZM129.91 336.284C129.91 336.564 129.983 336.777 130.13 336.924C130.29 337.057 130.53 337.124 130.85 337.124C131.21 337.124 131.563 337.084 131.91 337.004C132.256 336.924 132.596 336.791 132.93 336.604C133.276 336.417 133.623 336.177 133.97 335.884V337.604H133.37C133.196 338.004 132.95 338.351 132.63 338.644C132.323 338.924 131.963 339.144 131.55 339.304C131.136 339.451 130.683 339.524 130.19 339.524C129.576 339.524 129.043 339.404 128.59 339.164C128.15 338.924 127.81 338.591 127.57 338.164C127.33 337.724 127.21 337.217 127.21 336.644V335.944C127.21 335.504 127.283 335.111 127.43 334.764C127.576 334.417 127.783 334.117 128.05 333.864C128.33 333.611 128.663 333.417 129.05 333.284C129.436 333.137 129.87 333.064 130.35 333.064C130.816 333.064 131.27 333.064 131.71 333.064C132.163 333.064 132.59 333.064 132.99 333.064C133.403 333.064 133.79 333.064 134.15 333.064C134.27 333.064 134.356 333.171 134.41 333.384C134.476 333.597 134.516 333.837 134.53 334.104C134.543 334.357 134.55 334.571 134.55 334.744C134.123 334.744 133.71 334.744 133.31 334.744C132.91 334.744 132.503 334.744 132.09 334.744C131.69 334.744 131.276 334.744 130.85 334.744C130.69 334.744 130.55 334.764 130.43 334.804C130.323 334.844 130.23 334.904 130.15 334.984C130.083 335.064 130.023 335.157 129.97 335.264C129.93 335.357 129.91 335.464 129.91 335.584V336.284ZM144.342 328.324C144.835 328.324 145.268 328.357 145.642 328.424C146.015 328.477 146.315 328.551 146.542 328.644C146.782 328.724 146.942 328.804 147.022 328.884C147.048 328.897 147.062 328.924 147.062 328.964C147.075 328.991 147.082 329.024 147.082 329.064C147.082 329.437 147.082 329.817 147.082 330.204C147.082 330.591 147.082 330.977 147.082 331.364H146.702C146.342 331.204 145.968 331.084 145.582 331.004C145.195 330.924 144.775 330.884 144.322 330.884C143.882 330.884 143.488 330.971 143.142 331.144C142.795 331.304 142.528 331.564 142.342 331.924C142.155 332.284 142.062 332.751 142.062 333.324V334.584C142.062 335.011 142.115 335.384 142.222 335.704C142.328 336.011 142.495 336.264 142.722 336.464C142.908 336.651 143.135 336.791 143.402 336.884C143.668 336.964 143.975 337.004 144.322 337.004C144.628 337.004 144.915 336.991 145.182 336.964C145.448 336.924 145.708 336.871 145.962 336.804C146.215 336.737 146.462 336.651 146.702 336.544H147.082C147.082 336.931 147.082 337.317 147.082 337.704C147.082 338.091 147.082 338.477 147.082 338.864C147.082 338.891 147.075 338.917 147.062 338.944C147.062 338.971 147.048 338.997 147.022 339.024C146.955 339.091 146.802 339.171 146.562 339.264C146.335 339.344 146.028 339.411 145.642 339.464C145.268 339.531 144.835 339.564 144.342 339.564C143.542 339.564 142.828 339.457 142.202 339.244C141.575 339.031 141.042 338.717 140.602 338.304C140.162 337.877 139.828 337.364 139.602 336.764C139.375 336.164 139.262 335.484 139.262 334.724V333.284C139.262 332.297 139.475 331.437 139.902 330.704C140.328 329.957 140.922 329.377 141.682 328.964C142.442 328.537 143.328 328.324 144.342 328.324ZM144.522 338.324C144.482 338.444 144.442 338.577 144.402 338.724C144.375 338.857 144.342 338.991 144.302 339.124C144.275 339.244 144.248 339.364 144.222 339.484C144.195 339.604 144.168 339.704 144.142 339.784L144.102 339.984C144.715 339.997 145.202 340.171 145.562 340.504C145.935 340.837 146.122 341.297 146.122 341.884C146.122 342.657 145.875 343.244 145.382 343.644C144.902 344.057 144.168 344.264 143.182 344.264C142.688 344.264 142.302 344.237 142.022 344.184C141.755 344.131 141.562 344.051 141.442 343.944C141.335 343.851 141.282 343.744 141.282 343.624C141.282 343.424 141.282 343.224 141.282 343.024C141.282 342.837 141.282 342.651 141.282 342.464C141.282 342.291 141.282 342.131 141.282 341.984H141.522C141.695 342.064 141.882 342.131 142.082 342.184C142.282 342.237 142.515 342.264 142.782 342.264C143.048 342.264 143.275 342.204 143.462 342.084C143.662 341.977 143.762 341.791 143.762 341.524C143.762 341.271 143.668 341.077 143.482 340.944C143.308 340.824 143.048 340.764 142.702 340.764C142.635 340.764 142.582 340.737 142.542 340.684C142.502 340.631 142.495 340.564 142.522 340.484C142.602 340.297 142.668 340.124 142.722 339.964C142.788 339.804 142.848 339.644 142.902 339.484C142.968 339.337 143.028 339.197 143.082 339.064C143.148 338.917 143.208 338.771 143.262 338.624C143.302 338.544 143.348 338.484 143.402 338.444C143.468 338.404 143.582 338.377 143.742 338.364C143.915 338.337 144.175 338.324 144.522 338.324ZM158.302 332.504C158.302 332.837 158.302 333.164 158.302 333.484C158.302 333.791 158.302 334.111 158.302 334.444C158.302 334.764 158.302 335.091 158.302 335.424C158.302 335.744 158.302 336.057 158.302 336.364C158.302 336.471 158.308 336.564 158.322 336.644C158.348 336.724 158.388 336.791 158.442 336.844C158.482 336.884 158.535 336.917 158.602 336.944C158.682 336.957 158.768 336.964 158.862 336.964C158.902 336.964 158.935 336.964 158.962 336.964C159.002 336.964 159.042 336.964 159.082 336.964H159.462C159.462 337.324 159.462 337.684 159.462 338.044C159.462 338.391 159.462 338.744 159.462 339.104C159.462 339.171 159.442 339.224 159.402 339.264C159.362 339.304 159.308 339.324 159.242 339.324C159.175 339.324 159.008 339.324 158.742 339.324C158.488 339.324 158.262 339.324 158.062 339.324C157.688 339.324 157.355 339.264 157.062 339.144C156.768 339.024 156.508 338.857 156.282 338.644C156.055 338.417 155.882 338.151 155.762 337.844C155.642 337.537 155.582 337.191 155.582 336.804C155.582 336.391 155.582 335.971 155.582 335.544C155.582 335.117 155.582 334.697 155.582 334.284C155.582 334.057 155.582 333.844 155.582 333.644C155.582 333.431 155.582 333.217 155.582 333.004C155.582 332.791 155.582 332.577 155.582 332.364C155.582 331.977 155.515 331.677 155.382 331.464C155.248 331.237 155.028 331.077 154.722 330.984C154.428 330.891 154.028 330.844 153.522 330.844C153.148 330.844 152.782 330.864 152.422 330.904C152.075 330.944 151.728 330.997 151.382 331.064C151.048 331.131 150.708 331.224 150.362 331.344H149.982C149.982 330.984 149.982 330.624 149.982 330.264C149.982 329.904 149.982 329.551 149.982 329.204C149.982 329.151 149.988 329.111 150.002 329.084C150.015 329.057 150.028 329.037 150.042 329.024C150.122 328.944 150.342 328.851 150.702 328.744C151.075 328.637 151.515 328.551 152.022 328.484C152.528 328.404 153.028 328.364 153.522 328.364C154.362 328.364 155.082 328.444 155.682 328.604C156.282 328.751 156.775 328.991 157.162 329.324C157.548 329.657 157.835 330.091 158.022 330.624C158.208 331.144 158.302 331.771 158.302 332.504ZM151.902 336.284C151.902 336.564 151.975 336.777 152.122 336.924C152.282 337.057 152.522 337.124 152.842 337.124C153.202 337.124 153.555 337.084 153.902 337.004C154.248 336.924 154.588 336.791 154.922 336.604C155.268 336.417 155.615 336.177 155.962 335.884V337.604H155.362C155.188 338.004 154.942 338.351 154.622 338.644C154.315 338.924 153.955 339.144 153.542 339.304C153.128 339.451 152.675 339.524 152.182 339.524C151.568 339.524 151.035 339.404 150.582 339.164C150.142 338.924 149.802 338.591 149.562 338.164C149.322 337.724 149.202 337.217 149.202 336.644V335.944C149.202 335.504 149.275 335.111 149.422 334.764C149.568 334.417 149.775 334.117 150.042 333.864C150.322 333.611 150.655 333.417 151.042 333.284C151.428 333.137 151.862 333.064 152.342 333.064C152.808 333.064 153.262 333.064 153.702 333.064C154.155 333.064 154.582 333.064 154.982 333.064C155.395 333.064 155.782 333.064 156.142 333.064C156.262 333.064 156.348 333.171 156.402 333.384C156.468 333.597 156.508 333.837 156.522 334.104C156.535 334.357 156.542 334.571 156.542 334.744C156.115 334.744 155.702 334.744 155.302 334.744C154.902 334.744 154.495 334.744 154.082 334.744C153.682 334.744 153.268 334.744 152.842 334.744C152.682 334.744 152.542 334.764 152.422 334.804C152.315 334.844 152.222 334.904 152.142 334.984C152.075 335.064 152.015 335.157 151.962 335.264C151.922 335.357 151.902 335.464 151.902 335.584V336.284ZM155.962 324.364C156.335 324.364 156.675 324.284 156.982 324.124C157.302 323.951 157.575 323.697 157.802 323.364H158.182C158.182 323.591 158.182 323.817 158.182 324.044C158.182 324.257 158.182 324.464 158.182 324.664C158.182 324.864 158.182 325.057 158.182 325.244C158.182 325.337 158.168 325.417 158.142 325.484C158.128 325.537 158.088 325.611 158.022 325.704C157.822 325.971 157.528 326.191 157.142 326.364C156.755 326.524 156.328 326.604 155.862 326.604C155.422 326.604 155.048 326.551 154.742 326.444C154.448 326.337 154.182 326.217 153.942 326.084C153.702 325.937 153.448 325.817 153.182 325.724C152.928 325.617 152.628 325.564 152.282 325.564C151.908 325.564 151.562 325.651 151.242 325.824C150.935 325.997 150.668 326.244 150.442 326.564H150.062C150.062 326.337 150.062 326.117 150.062 325.904C150.062 325.691 150.062 325.484 150.062 325.284C150.062 325.071 150.062 324.877 150.062 324.704C150.062 324.597 150.068 324.517 150.082 324.464C150.108 324.397 150.155 324.317 150.222 324.224C150.422 323.957 150.715 323.744 151.102 323.584C151.488 323.424 151.915 323.344 152.382 323.344C152.822 323.344 153.188 323.397 153.482 323.504C153.788 323.597 154.062 323.717 154.302 323.864C154.542 323.997 154.788 324.117 155.042 324.224C155.308 324.317 155.615 324.364 155.962 324.364ZM166.094 328.324C166.814 328.324 167.467 328.437 168.054 328.664C168.654 328.891 169.167 329.211 169.594 329.624C170.021 330.024 170.347 330.504 170.574 331.064C170.814 331.624 170.934 332.244 170.934 332.924V334.944C170.934 335.851 170.727 336.651 170.314 337.344C169.914 338.037 169.347 338.584 168.614 338.984C167.894 339.371 167.054 339.564 166.094 339.564C165.374 339.564 164.714 339.451 164.114 339.224C163.527 338.997 163.021 338.684 162.594 338.284C162.167 337.871 161.834 337.384 161.594 336.824C161.367 336.264 161.254 335.644 161.254 334.964V332.944C161.254 332.037 161.454 331.237 161.854 330.544C162.267 329.851 162.841 329.311 163.574 328.924C164.307 328.524 165.147 328.324 166.094 328.324ZM166.114 330.784C165.661 330.784 165.274 330.877 164.954 331.064C164.634 331.237 164.387 331.497 164.214 331.844C164.041 332.177 163.954 332.584 163.954 333.064V334.824C163.954 335.197 164.007 335.531 164.114 335.824C164.221 336.104 164.367 336.351 164.554 336.564C164.727 336.737 164.941 336.871 165.194 336.964C165.461 337.057 165.754 337.104 166.074 337.104C166.527 337.104 166.914 337.017 167.234 336.844C167.567 336.657 167.814 336.391 167.974 336.044C168.147 335.697 168.234 335.291 168.234 334.824V333.064C168.234 332.651 168.187 332.304 168.094 332.024C168.001 331.731 167.861 331.491 167.674 331.304C167.501 331.117 167.281 330.984 167.014 330.904C166.761 330.824 166.461 330.784 166.114 330.784ZM179.542 325.324C179.996 325.324 180.442 325.324 180.882 325.324C181.322 325.324 181.762 325.324 182.202 325.324C182.269 325.324 182.322 325.344 182.362 325.384C182.402 325.424 182.422 325.477 182.422 325.544C182.422 326.691 182.422 327.837 182.422 328.984C182.422 330.131 182.422 331.284 182.422 332.444C182.422 333.591 182.422 334.737 182.422 335.884C182.422 337.031 182.422 338.177 182.422 339.324C181.982 339.324 181.542 339.324 181.102 339.324C180.662 339.324 180.216 339.324 179.762 339.324C179.722 339.324 179.682 339.317 179.642 339.304C179.616 339.277 179.589 339.251 179.562 339.224C179.549 339.184 179.542 339.144 179.542 339.104C179.542 337.811 179.542 336.517 179.542 335.224C179.542 333.917 179.542 332.617 179.542 331.324C179.542 330.031 179.542 328.737 179.542 327.444C179.542 327.084 179.542 326.731 179.542 326.384C179.542 326.037 179.542 325.684 179.542 325.324ZM180.782 331.104H185.582C185.796 331.104 186.002 331.104 186.202 331.104C186.402 331.104 186.602 331.104 186.802 331.104L187.502 330.924L188.062 333.544H181.002C180.962 333.544 180.929 333.537 180.902 333.524C180.876 333.511 180.849 333.497 180.822 333.484C180.809 333.457 180.796 333.431 180.782 333.404C180.782 333.377 180.782 333.351 180.782 333.324V331.104ZM189.622 339.324C189.182 339.324 188.742 339.324 188.302 339.324C187.862 339.324 187.416 339.324 186.962 339.324C186.922 339.324 186.882 339.317 186.842 339.304C186.816 339.277 186.789 339.251 186.762 339.224C186.749 339.184 186.742 339.144 186.742 339.104C186.742 337.957 186.742 336.811 186.742 335.664C186.742 334.517 186.742 333.371 186.742 332.224C186.742 331.064 186.742 329.911 186.742 328.764C186.742 327.617 186.742 326.471 186.742 325.324C187.196 325.324 187.642 325.324 188.082 325.324C188.522 325.324 188.962 325.324 189.402 325.324C189.429 325.324 189.456 325.331 189.482 325.344C189.509 325.357 189.529 325.377 189.542 325.404C189.569 325.417 189.589 325.437 189.602 325.464C189.616 325.491 189.622 325.517 189.622 325.544C189.622 326.504 189.622 327.471 189.622 328.444C189.622 329.417 189.622 330.391 189.622 331.364C189.622 332.324 189.622 333.291 189.622 334.264C189.622 335.224 189.622 336.184 189.622 337.144C189.622 337.544 189.622 337.931 189.622 338.304C189.622 338.664 189.622 339.004 189.622 339.324ZM193.55 339.104C193.55 338.744 193.55 338.297 193.55 337.764C193.55 337.217 193.55 336.631 193.55 336.004C193.55 335.377 193.55 334.751 193.55 334.124C193.55 333.497 193.55 332.911 193.55 332.364C193.55 331.817 193.55 331.357 193.55 330.984H193.41C193.33 330.984 193.237 330.984 193.13 330.984C193.037 330.984 192.93 330.984 192.81 330.984C192.703 330.984 192.59 330.984 192.47 330.984C192.363 330.984 192.257 330.984 192.15 330.984C192.083 330.984 192.03 330.964 191.99 330.924C191.95 330.884 191.93 330.831 191.93 330.764C191.93 330.404 191.93 330.037 191.93 329.664C191.93 329.291 191.93 328.924 191.93 328.564C192.157 328.564 192.41 328.564 192.69 328.564C192.983 328.564 193.29 328.564 193.61 328.564C193.93 328.564 194.243 328.564 194.55 328.564C194.857 328.564 195.137 328.564 195.39 328.564C195.657 328.564 195.87 328.564 196.03 328.564C196.083 328.564 196.123 328.577 196.15 328.604C196.177 328.617 196.197 328.637 196.21 328.664C196.237 328.691 196.25 328.731 196.25 328.784C196.25 329.411 196.25 330.097 196.25 330.844C196.25 331.577 196.25 332.324 196.25 333.084C196.25 333.844 196.25 334.591 196.25 335.324C196.25 336.057 196.25 336.744 196.25 337.384C196.25 337.584 196.25 337.797 196.25 338.024C196.25 338.237 196.25 338.451 196.25 338.664C196.25 338.877 196.25 339.097 196.25 339.324C195.81 339.324 195.397 339.324 195.01 339.324C194.637 339.324 194.223 339.324 193.77 339.324C193.703 339.324 193.65 339.304 193.61 339.264C193.57 339.224 193.55 339.171 193.55 339.104ZM195.75 323.104C196.323 323.104 196.837 323.104 197.29 323.104C197.757 323.104 198.263 323.104 198.81 323.104C198.903 323.104 198.963 323.137 198.99 323.204C199.03 323.271 199.017 323.337 198.95 323.404C198.63 323.777 198.317 324.137 198.01 324.484C197.717 324.817 197.41 325.157 197.09 325.504C196.783 325.851 196.437 326.251 196.05 326.704C196.023 326.744 195.977 326.784 195.91 326.824C195.857 326.851 195.79 326.864 195.71 326.864C195.323 326.864 194.957 326.864 194.61 326.864C194.277 326.864 193.937 326.864 193.59 326.864C193.83 326.451 194.07 326.037 194.31 325.624C194.55 325.211 194.79 324.791 195.03 324.364C195.27 323.937 195.51 323.517 195.75 323.104ZM202.562 328.324C203.029 328.324 203.442 328.397 203.802 328.544C204.162 328.677 204.482 328.871 204.762 329.124C205.042 329.377 205.282 329.684 205.482 330.044H206.162V332.424C205.762 331.931 205.329 331.564 204.862 331.324C204.396 331.071 203.929 330.944 203.462 330.944C203.142 330.944 202.869 331.011 202.642 331.144C202.416 331.277 202.242 331.477 202.122 331.744C202.002 331.997 201.942 332.311 201.942 332.684V335.184C201.942 335.504 201.976 335.777 202.042 336.004C202.122 336.231 202.229 336.404 202.362 336.524C202.482 336.657 202.636 336.757 202.822 336.824C203.009 336.877 203.222 336.904 203.462 336.904C203.769 336.904 204.076 336.857 204.382 336.764C204.689 336.657 204.989 336.491 205.282 336.264C205.589 336.037 205.882 335.744 206.162 335.384V337.764H205.482C205.269 338.124 205.009 338.437 204.702 338.704C204.409 338.971 204.082 339.177 203.722 339.324C203.362 339.457 202.976 339.524 202.562 339.524C202.056 339.524 201.596 339.437 201.182 339.264C200.782 339.091 200.436 338.837 200.142 338.504C199.862 338.171 199.642 337.764 199.482 337.284C199.322 336.804 199.242 336.257 199.242 335.644V332.244C199.242 331.631 199.322 331.084 199.482 330.604C199.642 330.111 199.862 329.697 200.142 329.364C200.436 329.031 200.789 328.777 201.202 328.604C201.616 328.417 202.069 328.324 202.562 328.324ZM208.342 324.324C208.396 324.324 208.436 324.337 208.462 324.364C208.489 324.377 208.509 324.397 208.522 324.424C208.549 324.451 208.562 324.491 208.562 324.544C208.562 325.531 208.562 326.531 208.562 327.544C208.562 328.544 208.562 329.551 208.562 330.564C208.562 331.564 208.562 332.557 208.562 333.544C208.562 334.531 208.562 335.511 208.562 336.484C208.562 336.977 208.562 337.457 208.562 337.924C208.562 338.391 208.562 338.857 208.562 339.324C208.362 339.324 208.156 339.324 207.942 339.324C207.742 339.324 207.536 339.324 207.322 339.324C207.109 339.324 206.896 339.324 206.682 339.324C206.482 339.324 206.282 339.324 206.082 339.324C206.042 339.324 206.002 339.317 205.962 339.304C205.936 339.277 205.909 339.251 205.882 339.224C205.869 339.197 205.862 339.157 205.862 339.104C205.862 338.037 205.862 336.971 205.862 335.904C205.862 334.837 205.862 333.777 205.862 332.724C205.862 331.657 205.862 330.591 205.862 329.524C205.862 328.457 205.862 327.391 205.862 326.324C205.862 325.991 205.862 325.657 205.862 325.324C205.862 324.991 205.862 324.657 205.862 324.324C206.062 324.324 206.262 324.324 206.462 324.324C206.676 324.324 206.889 324.324 207.102 324.324C207.316 324.324 207.522 324.324 207.722 324.324C207.936 324.324 208.142 324.324 208.342 324.324ZM214.485 330.484H215.285C215.445 329.991 215.632 329.591 215.845 329.284C216.058 328.964 216.318 328.731 216.625 328.584C216.945 328.437 217.305 328.364 217.705 328.364C217.918 328.364 218.092 328.384 218.225 328.424C218.372 328.464 218.472 328.504 218.525 328.544C218.578 328.584 218.612 328.624 218.625 328.664C218.638 328.691 218.645 328.737 218.645 328.804C218.645 329.017 218.645 329.231 218.645 329.444C218.645 329.644 218.645 329.844 218.645 330.044C218.645 330.244 218.645 330.451 218.645 330.664C218.645 330.864 218.645 331.071 218.645 331.284H218.265C218.132 331.244 217.985 331.211 217.825 331.184C217.665 331.157 217.485 331.144 217.285 331.144C216.872 331.144 216.505 331.224 216.185 331.384C215.878 331.544 215.592 331.771 215.325 332.064C215.058 332.344 214.778 332.677 214.485 333.064V330.484ZM214.865 339.324C214.572 339.324 214.272 339.324 213.965 339.324C213.672 339.324 213.378 339.324 213.085 339.324C212.792 339.324 212.498 339.324 212.205 339.324C212.165 339.324 212.132 339.324 212.105 339.324C212.078 339.311 212.052 339.297 212.025 339.284C212.012 339.257 211.998 339.231 211.985 339.204C211.985 339.177 211.985 339.144 211.985 339.104C211.985 338.611 211.985 338.091 211.985 337.544C211.985 336.984 211.985 336.411 211.985 335.824C211.985 335.237 211.985 334.651 211.985 334.064C211.985 333.464 211.985 332.871 211.985 332.284C211.985 331.684 211.985 331.097 211.985 330.524C211.985 330.151 211.985 329.797 211.985 329.464C211.985 329.131 211.985 328.831 211.985 328.564C212.318 328.564 212.632 328.564 212.925 328.564C213.232 328.564 213.525 328.564 213.805 328.564C214.098 328.564 214.378 328.564 214.645 328.564C214.698 328.564 214.738 328.577 214.765 328.604C214.792 328.617 214.812 328.637 214.825 328.664C214.852 328.691 214.865 328.731 214.865 328.784C214.865 329.397 214.865 330.044 214.865 330.724C214.865 331.404 214.865 332.097 214.865 332.804C214.865 333.511 214.865 334.237 214.865 334.984C214.865 335.717 214.865 336.451 214.865 337.184C214.865 337.904 214.865 338.617 214.865 339.324ZM221.929 339.104C221.929 338.744 221.929 338.297 221.929 337.764C221.929 337.217 221.929 336.631 221.929 336.004C221.929 335.377 221.929 334.751 221.929 334.124C221.929 333.497 221.929 332.911 221.929 332.364C221.929 331.817 221.929 331.357 221.929 330.984H221.789C221.709 330.984 221.616 330.984 221.509 330.984C221.416 330.984 221.309 330.984 221.189 330.984C221.082 330.984 220.969 330.984 220.849 330.984C220.742 330.984 220.636 330.984 220.529 330.984C220.462 330.984 220.409 330.964 220.369 330.924C220.329 330.884 220.309 330.831 220.309 330.764C220.309 330.404 220.309 330.037 220.309 329.664C220.309 329.291 220.309 328.924 220.309 328.564C220.536 328.564 220.789 328.564 221.069 328.564C221.362 328.564 221.669 328.564 221.989 328.564C222.309 328.564 222.622 328.564 222.929 328.564C223.236 328.564 223.516 328.564 223.769 328.564C224.036 328.564 224.249 328.564 224.409 328.564C224.462 328.564 224.502 328.577 224.529 328.604C224.556 328.617 224.576 328.637 224.589 328.664C224.616 328.691 224.629 328.731 224.629 328.784C224.629 329.411 224.629 330.097 224.629 330.844C224.629 331.577 224.629 332.324 224.629 333.084C224.629 333.844 224.629 334.591 224.629 335.324C224.629 336.057 224.629 336.744 224.629 337.384C224.629 337.584 224.629 337.797 224.629 338.024C224.629 338.237 224.629 338.451 224.629 338.664C224.629 338.877 224.629 339.097 224.629 339.324C224.189 339.324 223.776 339.324 223.389 339.324C223.016 339.324 222.602 339.324 222.149 339.324C222.082 339.324 222.029 339.304 221.989 339.264C221.949 339.224 221.929 339.171 221.929 339.104ZM221.449 323.444C221.702 323.444 221.962 323.444 222.229 323.444C222.509 323.444 222.789 323.444 223.069 323.444C223.362 323.444 223.642 323.444 223.909 323.444C224.189 323.444 224.456 323.444 224.709 323.444C224.776 323.444 224.829 323.464 224.869 323.504C224.909 323.544 224.929 323.597 224.929 323.664V326.244C224.676 326.244 224.409 326.244 224.129 326.244C223.862 326.244 223.582 326.244 223.289 326.244C223.009 326.244 222.729 326.244 222.449 326.244C222.182 326.244 221.922 326.244 221.669 326.244C221.602 326.244 221.549 326.224 221.509 326.184C221.469 326.144 221.449 326.091 221.449 326.024V323.444ZM232.701 328.324C233.195 328.324 233.628 328.357 234.001 328.424C234.375 328.477 234.675 328.551 234.901 328.644C235.141 328.724 235.301 328.804 235.381 328.884C235.408 328.897 235.421 328.924 235.421 328.964C235.435 328.991 235.441 329.024 235.441 329.064C235.441 329.437 235.441 329.817 235.441 330.204C235.441 330.591 235.441 330.977 235.441 331.364H235.061C234.701 331.204 234.328 331.084 233.941 331.004C233.555 330.924 233.135 330.884 232.681 330.884C232.241 330.884 231.848 330.971 231.501 331.144C231.155 331.304 230.888 331.564 230.701 331.924C230.515 332.284 230.421 332.751 230.421 333.324V334.584C230.421 335.011 230.475 335.384 230.581 335.704C230.688 336.011 230.855 336.264 231.081 336.464C231.268 336.651 231.495 336.791 231.761 336.884C232.028 336.964 232.335 337.004 232.681 337.004C232.988 337.004 233.275 336.991 233.541 336.964C233.808 336.924 234.068 336.871 234.321 336.804C234.575 336.737 234.821 336.651 235.061 336.544H235.441C235.441 336.931 235.441 337.317 235.441 337.704C235.441 338.091 235.441 338.477 235.441 338.864C235.441 338.891 235.435 338.917 235.421 338.944C235.421 338.971 235.408 338.997 235.381 339.024C235.315 339.091 235.161 339.171 234.921 339.264C234.695 339.344 234.388 339.411 234.001 339.464C233.628 339.531 233.195 339.564 232.701 339.564C231.901 339.564 231.188 339.457 230.561 339.244C229.935 339.031 229.401 338.717 228.961 338.304C228.521 337.877 228.188 337.364 227.961 336.764C227.735 336.164 227.621 335.484 227.621 334.724V333.284C227.621 332.297 227.835 331.437 228.261 330.704C228.688 329.957 229.281 329.377 230.041 328.964C230.801 328.537 231.688 328.324 232.701 328.324ZM246.661 332.504C246.661 332.837 246.661 333.164 246.661 333.484C246.661 333.791 246.661 334.111 246.661 334.444C246.661 334.764 246.661 335.091 246.661 335.424C246.661 335.744 246.661 336.057 246.661 336.364C246.661 336.471 246.668 336.564 246.681 336.644C246.708 336.724 246.748 336.791 246.801 336.844C246.841 336.884 246.895 336.917 246.961 336.944C247.041 336.957 247.128 336.964 247.221 336.964C247.261 336.964 247.295 336.964 247.321 336.964C247.361 336.964 247.401 336.964 247.441 336.964H247.821C247.821 337.324 247.821 337.684 247.821 338.044C247.821 338.391 247.821 338.744 247.821 339.104C247.821 339.171 247.801 339.224 247.761 339.264C247.721 339.304 247.668 339.324 247.601 339.324C247.535 339.324 247.368 339.324 247.101 339.324C246.848 339.324 246.621 339.324 246.421 339.324C246.048 339.324 245.715 339.264 245.421 339.144C245.128 339.024 244.868 338.857 244.641 338.644C244.415 338.417 244.241 338.151 244.121 337.844C244.001 337.537 243.941 337.191 243.941 336.804C243.941 336.391 243.941 335.971 243.941 335.544C243.941 335.117 243.941 334.697 243.941 334.284C243.941 334.057 243.941 333.844 243.941 333.644C243.941 333.431 243.941 333.217 243.941 333.004C243.941 332.791 243.941 332.577 243.941 332.364C243.941 331.977 243.875 331.677 243.741 331.464C243.608 331.237 243.388 331.077 243.081 330.984C242.788 330.891 242.388 330.844 241.881 330.844C241.508 330.844 241.141 330.864 240.781 330.904C240.435 330.944 240.088 330.997 239.741 331.064C239.408 331.131 239.068 331.224 238.721 331.344H238.341C238.341 330.984 238.341 330.624 238.341 330.264C238.341 329.904 238.341 329.551 238.341 329.204C238.341 329.151 238.348 329.111 238.361 329.084C238.375 329.057 238.388 329.037 238.401 329.024C238.481 328.944 238.701 328.851 239.061 328.744C239.435 328.637 239.875 328.551 240.381 328.484C240.888 328.404 241.388 328.364 241.881 328.364C242.721 328.364 243.441 328.444 244.041 328.604C244.641 328.751 245.135 328.991 245.521 329.324C245.908 329.657 246.195 330.091 246.381 330.624C246.568 331.144 246.661 331.771 246.661 332.504ZM240.261 336.284C240.261 336.564 240.335 336.777 240.481 336.924C240.641 337.057 240.881 337.124 241.201 337.124C241.561 337.124 241.915 337.084 242.261 337.004C242.608 336.924 242.948 336.791 243.281 336.604C243.628 336.417 243.975 336.177 244.321 335.884V337.604H243.721C243.548 338.004 243.301 338.351 242.981 338.644C242.675 338.924 242.315 339.144 241.901 339.304C241.488 339.451 241.035 339.524 240.541 339.524C239.928 339.524 239.395 339.404 238.941 339.164C238.501 338.924 238.161 338.591 237.921 338.164C237.681 337.724 237.561 337.217 237.561 336.644V335.944C237.561 335.504 237.635 335.111 237.781 334.764C237.928 334.417 238.135 334.117 238.401 333.864C238.681 333.611 239.015 333.417 239.401 333.284C239.788 333.137 240.221 333.064 240.701 333.064C241.168 333.064 241.621 333.064 242.061 333.064C242.515 333.064 242.941 333.064 243.341 333.064C243.755 333.064 244.141 333.064 244.501 333.064C244.621 333.064 244.708 333.171 244.761 333.384C244.828 333.597 244.868 333.837 244.881 334.104C244.895 334.357 244.901 334.571 244.901 334.744C244.475 334.744 244.061 334.744 243.661 334.744C243.261 334.744 242.855 334.744 242.441 334.744C242.041 334.744 241.628 334.744 241.201 334.744C241.041 334.744 240.901 334.764 240.781 334.804C240.675 334.844 240.581 334.904 240.501 334.984C240.435 335.064 240.375 335.157 240.321 335.264C240.281 335.357 240.261 335.464 240.261 335.584V336.284Z" fill="#010101"/>
</svg>
