<svg width="300" height="403" viewBox="0 0 300 403" fill="none" xmlns="http://www.w3.org/2000/svg">
<path d="M245.483 151.078H54.5096C49.9523 151.078 46.2578 154.774 46.2578 159.333V394.415C46.2578 398.975 49.9523 402.671 54.5096 402.671H245.483C250.04 402.671 253.735 398.975 253.735 394.415V159.333C253.735 154.774 250.04 151.078 245.483 151.078Z" fill="#6BA03A"/>
<path d="M291.748 0.18335H8.25202C3.69469 0.18335 0.000244141 3.87925 0.000244141 8.43838V380.403C0.000244141 384.962 3.69469 388.658 8.25202 388.658H291.748C296.306 388.658 300 384.962 300 380.403V8.43838C300 3.87925 296.306 0.18335 291.748 0.18335Z" fill="#92C154"/>
<path d="M180.89 200.635C182.311 200.635 183.462 199.484 183.462 198.063C183.462 196.642 182.311 195.49 180.89 195.49C179.47 195.49 178.318 196.642 178.318 198.063C178.318 199.484 179.47 200.635 180.89 200.635Z" fill="#6BA03A"/>
<path d="M81.0165 216.561L81.3948 109.665L168.334 109.28V232.686C168.334 232.686 167.055 242.261 160.034 242.261C153.013 242.392 149.032 237.666 148.42 232.177L148.544 225.662L63.5228 225.531C63.5228 225.531 59.8232 240.48 72.3315 242.268H160.034" stroke="#6BA03A" stroke-width="3.9005" stroke-miterlimit="10"/>
<path d="M81.0447 219.532C82.4879 219.532 83.6577 218.362 83.6577 216.918C83.6577 215.475 82.4879 214.304 81.0447 214.304C79.6016 214.304 78.4316 215.475 78.4316 216.918C78.4316 218.362 79.6016 219.532 81.0447 219.532Z" fill="#6BA03A"/>
<path d="M147.526 191.741H101.804C101.075 191.741 100.375 192.031 99.8594 192.547C99.3435 193.063 99.0537 193.763 99.0537 194.492C99.0537 195.222 99.3435 195.922 99.8594 196.438C100.375 196.954 101.075 197.244 101.804 197.244H147.526C148.255 197.244 148.955 196.954 149.471 196.438C149.987 195.922 150.277 195.222 150.277 194.492C150.277 193.763 149.987 193.063 149.471 192.547C148.955 192.031 148.255 191.741 147.526 191.741Z" fill="#6BA03A"/>
<path d="M128.719 206.936H100.738C99.8101 206.936 99.0605 208.167 99.0605 209.688C99.0605 211.208 99.8101 212.439 100.738 212.439H128.719C129.647 212.439 130.397 211.215 130.397 209.688C130.397 208.161 129.647 206.936 128.719 206.936Z" fill="#6BA03A"/>
<path d="M218.643 144.783H180.176C178.904 144.783 177.865 146.014 177.865 147.534C177.865 149.055 178.904 150.286 180.176 150.286H218.643C219.922 150.286 220.953 149.062 220.953 147.534C220.953 146.007 219.922 144.783 218.643 144.783Z" fill="#6BA03A"/>
<path d="M218.643 160.708H180.176C178.904 160.708 177.865 161.933 177.865 163.46C177.865 164.987 178.904 166.212 180.176 166.212H218.643C219.922 166.212 220.953 164.98 220.953 163.46C220.953 161.94 219.922 160.708 218.643 160.708Z" fill="#6BA03A"/>
<path d="M199.636 177.307H179.103C178.415 177.307 177.865 178.539 177.865 180.059C177.865 181.579 178.422 182.81 179.103 182.81H199.636C200.324 182.81 200.867 181.586 200.867 180.059C200.867 178.532 200.317 177.307 199.636 177.307Z" fill="#6BA03A"/>
<path d="M131.724 128.439L111.307 155.955C111.303 155.963 111.3 155.972 111.3 155.981C111.3 155.991 111.302 156 111.306 156.008C111.31 156.016 111.316 156.023 111.323 156.028C111.331 156.034 111.339 156.037 111.349 156.038H122.165C122.173 156.038 122.181 156.039 122.188 156.042C122.194 156.046 122.201 156.05 122.205 156.056C122.21 156.062 122.213 156.07 122.215 156.077C122.216 156.085 122.216 156.092 122.213 156.1L117.929 177.109C117.929 177.157 117.991 177.191 118.019 177.15L139.783 148.712C139.79 148.704 139.796 148.695 139.797 148.685C139.799 148.675 139.798 148.664 139.793 148.655C139.788 148.646 139.781 148.638 139.772 148.633C139.762 148.629 139.752 148.627 139.742 148.629H127.653C127.645 148.629 127.637 148.628 127.63 148.625C127.623 148.621 127.617 148.616 127.613 148.61C127.608 148.604 127.605 148.597 127.603 148.59C127.602 148.582 127.602 148.574 127.605 148.567L131.813 128.494C131.82 128.482 131.823 128.467 131.819 128.454C131.816 128.44 131.808 128.429 131.796 128.421C131.784 128.414 131.77 128.412 131.756 128.415C131.743 128.418 131.731 128.427 131.724 128.439Z" stroke="#6BA03A" stroke-width="3.9005" stroke-miterlimit="10"/>
<path d="M195.119 94.0965C195.106 94.0795 195.089 94.0656 195.07 94.056C195.051 94.0465 195.03 94.0415 195.008 94.0415C194.987 94.0415 194.966 94.0465 194.947 94.056C194.928 94.0656 194.911 94.0795 194.898 94.0965C191.797 99.236 188.969 104.536 186.427 109.974C185.555 111.915 185.189 114.044 185.361 116.165C185.449 117.58 185.933 118.941 186.758 120.094C187.582 121.247 188.713 122.145 190.023 122.686C191.942 123.544 194.051 123.89 196.143 123.691C200.798 123.34 202.683 122.315 203.962 119.13C204.671 117.274 204.976 115.288 204.858 113.305C204.739 111.321 204.199 109.386 203.274 107.628C199.478 100.13 196.006 95.1697 195.119 94.0965Z" stroke="#6BA03A" stroke-width="3.9005" stroke-miterlimit="10"/>
<path d="M150.27 96.2508V72.5864H236.989V198.084H180.65" stroke="#6BA03A" stroke-width="3.9005" stroke-miterlimit="10"/>
<path d="M150.27 98.8579C151.683 98.8579 152.828 97.7121 152.828 96.2988C152.828 94.8855 151.683 93.7397 150.27 93.7397C148.857 93.7397 147.712 94.8855 147.712 96.2988C147.712 97.7121 148.857 98.8579 150.27 98.8579Z" fill="#6BA03A"/>
<path d="M40.4726 301.668C39.5126 301.668 38.6726 301.542 37.9526 301.288C37.2326 301.048 36.6326 300.695 36.1526 300.228C35.6726 299.762 35.3126 299.188 35.0726 298.508C34.8459 297.828 34.7326 297.055 34.7326 296.188V292.148C34.7326 291.362 34.8526 290.648 35.0926 290.008C35.3326 289.355 35.6859 288.795 36.1526 288.328C36.6326 287.862 37.2126 287.502 37.8926 287.248C38.5859 286.995 39.3726 286.868 40.2526 286.868C40.9326 286.868 41.5393 286.935 42.0726 287.068C42.6193 287.188 43.0793 287.348 43.4526 287.548C43.8393 287.735 44.1393 287.935 44.3526 288.148C44.3793 288.175 44.3993 288.208 44.4126 288.248C44.4259 288.288 44.4326 288.328 44.4326 288.368C44.4459 288.408 44.4526 288.448 44.4526 288.488C44.4526 288.982 44.4526 289.548 44.4526 290.188C44.4526 290.815 44.4526 291.415 44.4526 291.988C44.0659 291.988 43.6793 291.988 43.2926 291.988C42.9059 291.988 42.5193 291.988 42.1326 291.988C42.0659 291.988 42.0126 291.968 41.9726 291.928C41.9326 291.888 41.9126 291.835 41.9126 291.768C41.9126 291.528 41.9126 291.288 41.9126 291.048C41.9126 290.808 41.9126 290.542 41.9126 290.248C41.9126 289.942 41.9126 289.588 41.9126 289.188L42.4726 290.028C42.1393 289.815 41.7926 289.668 41.4326 289.588C41.0726 289.495 40.6659 289.448 40.2126 289.448C39.6793 289.448 39.2126 289.548 38.8126 289.748C38.4259 289.935 38.1259 290.235 37.9126 290.648C37.7126 291.062 37.6126 291.588 37.6126 292.228V295.968C37.6126 296.568 37.6659 297.075 37.7726 297.488C37.8926 297.888 38.0859 298.222 38.3526 298.488C38.5926 298.728 38.8926 298.902 39.2526 299.008C39.6259 299.102 40.0393 299.148 40.4926 299.148C41.2259 299.148 41.8726 299.062 42.4326 298.888C42.9926 298.715 43.5793 298.435 44.1926 298.048H44.5726C44.5726 298.235 44.5726 298.422 44.5726 298.608C44.5726 298.782 44.5726 298.962 44.5726 299.148C44.5726 299.322 44.5726 299.502 44.5726 299.688C44.5726 299.862 44.5726 300.048 44.5726 300.248C44.5726 300.315 44.5593 300.375 44.5326 300.428C44.5193 300.482 44.4926 300.522 44.4526 300.548C44.2659 300.748 43.9793 300.935 43.5926 301.108C43.2059 301.268 42.7459 301.402 42.2126 301.508C41.6793 301.615 41.0993 301.668 40.4726 301.668ZM51.6448 290.268C52.3648 290.268 53.0181 290.382 53.6048 290.608C54.2048 290.835 54.7181 291.155 55.1448 291.568C55.5714 291.968 55.8981 292.448 56.1248 293.008C56.3648 293.568 56.4848 294.188 56.4848 294.868V296.888C56.4848 297.795 56.2781 298.595 55.8648 299.288C55.4648 299.982 54.8981 300.528 54.1648 300.928C53.4448 301.315 52.6048 301.508 51.6448 301.508C50.9248 301.508 50.2648 301.395 49.6648 301.168C49.0781 300.942 48.5714 300.628 48.1448 300.228C47.7181 299.815 47.3848 299.328 47.1448 298.768C46.9181 298.208 46.8048 297.588 46.8048 296.908V294.888C46.8048 293.982 47.0048 293.182 47.4048 292.488C47.8181 291.795 48.3914 291.255 49.1248 290.868C49.8581 290.468 50.6981 290.268 51.6448 290.268ZM51.6648 292.728C51.2114 292.728 50.8248 292.822 50.5048 293.008C50.1848 293.182 49.9381 293.442 49.7648 293.788C49.5914 294.122 49.5048 294.528 49.5048 295.008V296.768C49.5048 297.142 49.5581 297.475 49.6648 297.768C49.7714 298.048 49.9181 298.295 50.1048 298.508C50.2781 298.682 50.4914 298.815 50.7448 298.908C51.0114 299.002 51.3048 299.048 51.6248 299.048C52.0781 299.048 52.4648 298.962 52.7848 298.788C53.1181 298.602 53.3648 298.335 53.5248 297.988C53.6981 297.642 53.7848 297.235 53.7848 296.768V295.008C53.7848 294.595 53.7381 294.248 53.6448 293.968C53.5514 293.675 53.4114 293.435 53.2248 293.248C53.0514 293.062 52.8314 292.928 52.5648 292.848C52.3114 292.768 52.0114 292.728 51.6648 292.728ZM68.297 301.268C67.857 301.268 67.4436 301.268 67.057 301.268C66.6836 301.268 66.2703 301.268 65.817 301.268C65.777 301.268 65.737 301.262 65.697 301.248C65.6703 301.222 65.6436 301.195 65.617 301.168C65.6036 301.142 65.597 301.102 65.597 301.048C65.597 300.262 65.597 299.475 65.597 298.688C65.597 297.888 65.597 297.095 65.597 296.308C65.597 295.522 65.597 294.735 65.597 293.948C65.597 293.588 65.517 293.322 65.357 293.148C65.197 292.975 64.9436 292.888 64.597 292.888C64.3703 292.888 64.117 292.928 63.837 293.008C63.5703 293.075 63.297 293.182 63.017 293.328C62.7503 293.462 62.4903 293.635 62.237 293.848C61.9836 294.062 61.7503 294.315 61.537 294.608V292.248H62.237C62.5036 291.848 62.797 291.502 63.117 291.208C63.4503 290.915 63.8103 290.688 64.197 290.528C64.597 290.355 65.0236 290.268 65.477 290.268C65.9036 290.268 66.2903 290.342 66.637 290.488C66.997 290.622 67.297 290.828 67.537 291.108C67.7903 291.375 67.977 291.702 68.097 292.088C68.2303 292.475 68.297 292.908 68.297 293.388C68.297 294.028 68.297 294.675 68.297 295.328C68.297 295.982 68.297 296.635 68.297 297.288C68.297 297.942 68.297 298.602 68.297 299.268C68.297 299.602 68.297 299.935 68.297 300.268C68.297 300.602 68.297 300.935 68.297 301.268ZM61.857 301.268C61.5636 301.268 61.2836 301.268 61.017 301.268C60.7636 301.268 60.497 301.268 60.217 301.268C59.9503 301.268 59.6703 301.268 59.377 301.268C59.337 301.268 59.3036 301.268 59.277 301.268C59.2503 301.255 59.2236 301.242 59.197 301.228C59.1836 301.202 59.1703 301.175 59.157 301.148C59.157 301.122 59.157 301.088 59.157 301.048C59.157 300.328 59.157 299.615 59.157 298.908C59.157 298.188 59.157 297.475 59.157 296.768C59.157 296.048 59.157 295.335 59.157 294.628C59.157 293.908 59.157 293.188 59.157 292.468C59.157 292.095 59.157 291.742 59.157 291.408C59.157 291.075 59.157 290.775 59.157 290.508C59.4903 290.508 59.7903 290.508 60.057 290.508C60.337 290.508 60.6036 290.508 60.857 290.508C61.1236 290.508 61.3836 290.508 61.637 290.508C61.6903 290.508 61.7303 290.522 61.757 290.548C61.7836 290.562 61.8036 290.582 61.817 290.608C61.8436 290.635 61.857 290.675 61.857 290.728C61.857 291.888 61.857 293.055 61.857 294.228C61.857 295.402 61.857 296.575 61.857 297.748C61.857 298.922 61.857 300.095 61.857 301.268ZM74.9892 298.848C75.7892 298.848 76.3358 298.762 76.6292 298.588C76.9225 298.402 77.0692 298.188 77.0692 297.948C77.0692 297.802 77.0292 297.668 76.9492 297.548C76.8825 297.428 76.7558 297.328 76.5692 297.248C76.3958 297.155 76.1425 297.082 75.8092 297.028L73.7492 296.728C73.1092 296.622 72.5758 296.442 72.1492 296.188C71.7225 295.922 71.4025 295.588 71.1892 295.188C70.9892 294.788 70.8892 294.342 70.8892 293.848C70.8892 293.288 70.9958 292.795 71.2092 292.368C71.4358 291.928 71.7625 291.555 72.1892 291.248C72.6158 290.942 73.1425 290.708 73.7692 290.548C74.3958 290.388 75.1092 290.308 75.9092 290.308C76.3358 290.308 76.7292 290.328 77.0892 290.368C77.4492 290.395 77.7758 290.435 78.0692 290.488C78.3625 290.542 78.6225 290.602 78.8492 290.668C78.9425 290.695 79.0092 290.728 79.0492 290.768C79.1025 290.795 79.1292 290.835 79.1292 290.888C79.1425 290.942 79.1492 291.022 79.1492 291.128C79.1492 291.408 79.1492 291.762 79.1492 292.188C79.1492 292.602 79.1492 292.988 79.1492 293.348H78.7892C78.4292 293.255 78.0825 293.175 77.7492 293.108C77.4158 293.042 77.0758 292.995 76.7292 292.968C76.3825 292.942 76.0158 292.928 75.6292 292.928C75.0958 292.928 74.6758 292.968 74.3692 293.048C74.0758 293.115 73.8692 293.208 73.7492 293.328C73.6292 293.448 73.5692 293.588 73.5692 293.748C73.5692 293.895 73.6025 294.028 73.6692 294.148C73.7492 294.255 73.8758 294.342 74.0492 294.408C74.2225 294.475 74.4625 294.535 74.7692 294.588L76.6492 294.868C77.3025 294.948 77.8558 295.122 78.3092 295.388C78.7625 295.642 79.1092 295.982 79.3492 296.408C79.6025 296.822 79.7292 297.322 79.7292 297.908C79.7292 298.628 79.5425 299.255 79.1692 299.788C78.8092 300.322 78.2758 300.735 77.5692 301.028C76.8625 301.322 75.9958 301.468 74.9692 301.468C74.4892 301.468 74.0425 301.448 73.6292 301.408C73.2158 301.382 72.8292 301.335 72.4692 301.268C72.1225 301.215 71.8092 301.148 71.5292 301.068C71.2492 300.988 71.0092 300.902 70.8092 300.808C70.7292 300.782 70.6758 300.748 70.6492 300.708C70.6358 300.668 70.6292 300.595 70.6292 300.488C70.6292 300.182 70.6292 299.815 70.6292 299.388C70.6292 298.962 70.6292 298.548 70.6292 298.148H70.9892C71.3092 298.282 71.6158 298.395 71.9092 298.488C72.2158 298.568 72.5225 298.635 72.8292 298.688C73.1492 298.742 73.4825 298.782 73.8292 298.808C74.1892 298.835 74.5758 298.848 74.9892 298.848ZM84.6252 290.508C84.6786 290.508 84.7186 290.522 84.7452 290.548C84.7719 290.562 84.7919 290.582 84.8052 290.608C84.8319 290.635 84.8452 290.675 84.8452 290.728C84.8452 291.315 84.8452 291.922 84.8452 292.548C84.8452 293.162 84.8452 293.775 84.8452 294.388C84.8452 295.002 84.8452 295.602 84.8452 296.188C84.8452 296.762 84.8452 297.308 84.8452 297.828C84.8452 298.122 84.9186 298.348 85.0652 298.508C85.2252 298.668 85.4452 298.748 85.7252 298.748C86.0319 298.748 86.3186 298.722 86.5852 298.668C86.8652 298.602 87.1252 298.508 87.3652 298.388C87.6186 298.255 87.8586 298.088 88.0852 297.888C88.3252 297.688 88.5452 297.448 88.7452 297.168V299.528H88.0452C87.8052 299.942 87.5386 300.295 87.2452 300.588C86.9519 300.882 86.6186 301.108 86.2452 301.268C85.8852 301.428 85.4519 301.508 84.9452 301.508C84.5452 301.508 84.1719 301.435 83.8252 301.288C83.4786 301.155 83.1786 300.955 82.9252 300.688C82.6719 300.422 82.4786 300.102 82.3452 299.728C82.2119 299.355 82.1452 298.942 82.1452 298.488C82.1452 297.888 82.1452 297.288 82.1452 296.688C82.1452 296.088 82.1452 295.488 82.1452 294.888C82.1452 294.288 82.1452 293.688 82.1452 293.088C82.1452 292.662 82.1452 292.235 82.1452 291.808C82.1452 291.368 82.1452 290.935 82.1452 290.508C82.5586 290.508 82.9719 290.508 83.3852 290.508C83.8119 290.508 84.2252 290.508 84.6252 290.508ZM90.9052 290.508C90.9586 290.508 90.9986 290.522 91.0252 290.548C91.0519 290.562 91.0719 290.582 91.0852 290.608C91.1119 290.635 91.1252 290.675 91.1252 290.728C91.1252 291.688 91.1252 292.642 91.1252 293.588C91.1252 294.535 91.1252 295.488 91.1252 296.448C91.1252 297.395 91.1252 298.348 91.1252 299.308C91.1252 299.562 91.1252 299.802 91.1252 300.028C91.1252 300.255 91.1252 300.475 91.1252 300.688C91.1252 300.902 91.1252 301.095 91.1252 301.268C90.8319 301.268 90.5386 301.268 90.2452 301.268C89.9652 301.268 89.6852 301.268 89.4052 301.268C89.1386 301.268 88.8786 301.268 88.6252 301.268C88.5852 301.268 88.5452 301.262 88.5052 301.248C88.4786 301.222 88.4519 301.195 88.4252 301.168C88.4119 301.142 88.4052 301.102 88.4052 301.048C88.4052 299.875 88.4052 298.702 88.4052 297.528C88.4052 296.355 88.4052 295.188 88.4052 294.028C88.4052 292.855 88.4052 291.682 88.4052 290.508C88.6986 290.508 88.9786 290.508 89.2452 290.508C89.5252 290.508 89.7986 290.508 90.0652 290.508C90.3452 290.508 90.6252 290.508 90.9052 290.508ZM94.2974 288.848C94.2974 288.355 94.2974 287.902 94.2974 287.488C94.2974 287.075 94.2974 286.668 94.2974 286.268C94.6708 286.268 94.9374 286.268 95.0974 286.268C95.2574 286.268 95.3708 286.268 95.4374 286.268C95.5174 286.268 95.5841 286.268 95.6374 286.268C95.7041 286.268 95.8174 286.268 95.9774 286.268C96.1374 286.268 96.4041 286.268 96.7774 286.268C96.8308 286.268 96.8708 286.282 96.8974 286.308C96.9241 286.322 96.9441 286.342 96.9574 286.368C96.9841 286.395 96.9974 286.435 96.9974 286.488C96.9974 287.262 96.9974 288.035 96.9974 288.808C96.9974 289.568 96.9974 290.328 96.9974 291.088C96.9974 291.848 96.9974 292.615 96.9974 293.388C96.9974 294.148 96.9974 294.915 96.9974 295.688C96.9974 296.448 96.9974 297.215 96.9974 297.988C96.9974 298.122 97.0041 298.228 97.0174 298.308C97.0441 298.388 97.0908 298.462 97.1574 298.528C97.2241 298.595 97.3041 298.642 97.3974 298.668C97.4908 298.695 97.6108 298.708 97.7574 298.708C97.8108 298.708 97.8774 298.708 97.9574 298.708C98.0508 298.708 98.1374 298.708 98.2174 298.708C98.3108 298.708 98.3908 298.708 98.4574 298.708C98.5374 298.708 98.5908 298.708 98.6174 298.708H98.7974C98.7974 299.068 98.7974 299.462 98.7974 299.888C98.7974 300.302 98.7974 300.688 98.7974 301.048C98.7974 301.115 98.7774 301.168 98.7374 301.208C98.6974 301.248 98.6441 301.268 98.5774 301.268C98.5374 301.268 98.4908 301.268 98.4374 301.268C98.3974 301.268 98.3241 301.268 98.2174 301.268C98.1241 301.268 97.9841 301.268 97.7974 301.268C97.6108 301.268 97.3508 301.268 97.0174 301.268C96.5641 301.268 96.1708 301.208 95.8374 301.088C95.5041 300.955 95.2174 300.768 94.9774 300.528C94.7508 300.275 94.5774 299.962 94.4574 299.588C94.3508 299.202 94.2974 298.748 94.2974 298.228C94.2974 297.455 94.2974 296.682 94.2974 295.908C94.2974 295.122 94.2974 294.335 94.2974 293.548C94.2974 292.762 94.2974 291.982 94.2974 291.208C94.2974 290.422 94.2974 289.635 94.2974 288.848ZM99.6288 290.508H107.349C107.429 290.508 107.489 290.528 107.529 290.568C107.569 290.608 107.589 290.662 107.589 290.728C107.589 291.008 107.589 291.268 107.589 291.508C107.589 291.748 107.589 291.995 107.589 292.248C107.589 292.502 107.589 292.762 107.589 293.028H99.8688C99.8422 293.028 99.8155 293.022 99.7888 293.008C99.7622 292.995 99.7355 292.982 99.7088 292.968C99.6822 292.942 99.6622 292.915 99.6488 292.888C99.6355 292.862 99.6288 292.835 99.6288 292.808C99.6288 292.542 99.6288 292.282 99.6288 292.028C99.6288 291.775 99.6288 291.528 99.6288 291.288C99.6288 291.048 99.6288 290.788 99.6288 290.508ZM107.589 298.688C107.589 299.088 107.589 299.488 107.589 299.888C107.589 300.275 107.589 300.662 107.589 301.048C107.589 301.102 107.569 301.155 107.529 301.208C107.489 301.248 107.436 301.268 107.369 301.268C107.236 301.268 107.096 301.268 106.949 301.268C106.816 301.268 106.676 301.268 106.529 301.268C106.396 301.268 106.262 301.268 106.129 301.268C105.996 301.268 105.856 301.268 105.709 301.268C105.016 301.268 104.396 301.188 103.849 301.028C103.302 300.855 102.836 300.595 102.449 300.248C102.062 299.902 101.769 299.455 101.569 298.908C101.369 298.362 101.269 297.715 101.269 296.968C101.269 296.315 101.269 295.668 101.269 295.028C101.269 294.388 101.269 293.748 101.269 293.108C101.269 292.468 101.269 291.828 101.269 291.188C101.269 290.548 101.269 289.908 101.269 289.268C101.269 288.922 101.269 288.588 101.269 288.268C101.269 287.935 101.269 287.602 101.269 287.268C101.682 287.268 102.096 287.268 102.509 287.268C102.936 287.268 103.349 287.268 103.749 287.268C103.789 287.268 103.822 287.282 103.849 287.308C103.889 287.322 103.916 287.348 103.929 287.388C103.956 287.415 103.969 287.448 103.969 287.488C103.969 288.262 103.969 289.035 103.969 289.808C103.969 290.568 103.969 291.335 103.969 292.108C103.969 292.882 103.969 293.655 103.969 294.428C103.969 295.188 103.969 295.955 103.969 296.728C103.969 297.128 104.009 297.455 104.089 297.708C104.169 297.962 104.289 298.168 104.449 298.328C104.596 298.462 104.776 298.555 104.989 298.608C105.216 298.662 105.489 298.688 105.809 298.688C105.982 298.688 106.149 298.688 106.309 298.688C106.482 298.688 106.656 298.688 106.829 298.688C107.002 298.688 107.176 298.688 107.349 298.688H107.589ZM114.809 290.268C115.529 290.268 116.182 290.382 116.769 290.608C117.369 290.835 117.882 291.155 118.309 291.568C118.736 291.968 119.062 292.448 119.289 293.008C119.529 293.568 119.649 294.188 119.649 294.868V296.888C119.649 297.795 119.442 298.595 119.029 299.288C118.629 299.982 118.062 300.528 117.329 300.928C116.609 301.315 115.769 301.508 114.809 301.508C114.089 301.508 113.429 301.395 112.829 301.168C112.242 300.942 111.736 300.628 111.309 300.228C110.882 299.815 110.549 299.328 110.309 298.768C110.082 298.208 109.969 297.588 109.969 296.908V294.888C109.969 293.982 110.169 293.182 110.569 292.488C110.982 291.795 111.556 291.255 112.289 290.868C113.022 290.468 113.862 290.268 114.809 290.268ZM114.829 292.728C114.376 292.728 113.989 292.822 113.669 293.008C113.349 293.182 113.102 293.442 112.929 293.788C112.756 294.122 112.669 294.528 112.669 295.008V296.768C112.669 297.142 112.722 297.475 112.829 297.768C112.936 298.048 113.082 298.295 113.269 298.508C113.442 298.682 113.656 298.815 113.909 298.908C114.176 299.002 114.469 299.048 114.789 299.048C115.242 299.048 115.629 298.962 115.949 298.788C116.282 298.602 116.529 298.335 116.689 297.988C116.862 297.642 116.949 297.235 116.949 296.768V295.008C116.949 294.595 116.902 294.248 116.809 293.968C116.716 293.675 116.576 293.435 116.389 293.248C116.216 293.062 115.996 292.928 115.729 292.848C115.476 292.768 115.176 292.728 114.829 292.728ZM124.821 292.428H125.621C125.781 291.935 125.968 291.535 126.181 291.228C126.394 290.908 126.654 290.675 126.961 290.528C127.281 290.382 127.641 290.308 128.041 290.308C128.254 290.308 128.428 290.328 128.561 290.368C128.708 290.408 128.808 290.448 128.861 290.488C128.914 290.528 128.948 290.568 128.961 290.608C128.974 290.635 128.981 290.682 128.981 290.748C128.981 290.962 128.981 291.175 128.981 291.388C128.981 291.588 128.981 291.788 128.981 291.988C128.981 292.188 128.981 292.395 128.981 292.608C128.981 292.808 128.981 293.015 128.981 293.228H128.601C128.468 293.188 128.321 293.155 128.161 293.128C128.001 293.102 127.821 293.088 127.621 293.088C127.208 293.088 126.841 293.168 126.521 293.328C126.214 293.488 125.928 293.715 125.661 294.008C125.394 294.288 125.114 294.622 124.821 295.008V292.428ZM125.201 301.268C124.908 301.268 124.608 301.268 124.301 301.268C124.008 301.268 123.714 301.268 123.421 301.268C123.128 301.268 122.834 301.268 122.541 301.268C122.501 301.268 122.468 301.268 122.441 301.268C122.414 301.255 122.388 301.242 122.361 301.228C122.348 301.202 122.334 301.175 122.321 301.148C122.321 301.122 122.321 301.088 122.321 301.048C122.321 300.555 122.321 300.035 122.321 299.488C122.321 298.928 122.321 298.355 122.321 297.768C122.321 297.182 122.321 296.595 122.321 296.008C122.321 295.408 122.321 294.815 122.321 294.228C122.321 293.628 122.321 293.042 122.321 292.468C122.321 292.095 122.321 291.742 122.321 291.408C122.321 291.075 122.321 290.775 122.321 290.508C122.654 290.508 122.968 290.508 123.261 290.508C123.568 290.508 123.861 290.508 124.141 290.508C124.434 290.508 124.714 290.508 124.981 290.508C125.034 290.508 125.074 290.522 125.101 290.548C125.128 290.562 125.148 290.582 125.161 290.608C125.188 290.635 125.201 290.675 125.201 290.728C125.201 291.342 125.201 291.988 125.201 292.668C125.201 293.348 125.201 294.042 125.201 294.748C125.201 295.455 125.201 296.182 125.201 296.928C125.201 297.662 125.201 298.395 125.201 299.128C125.201 299.848 125.201 300.562 125.201 301.268ZM132.265 301.048C132.265 300.688 132.265 300.242 132.265 299.708C132.265 299.162 132.265 298.575 132.265 297.948C132.265 297.322 132.265 296.695 132.265 296.068C132.265 295.442 132.265 294.855 132.265 294.308C132.265 293.762 132.265 293.302 132.265 292.928H132.125C132.045 292.928 131.952 292.928 131.845 292.928C131.752 292.928 131.645 292.928 131.525 292.928C131.418 292.928 131.305 292.928 131.185 292.928C131.078 292.928 130.972 292.928 130.865 292.928C130.798 292.928 130.745 292.908 130.705 292.868C130.665 292.828 130.645 292.775 130.645 292.708C130.645 292.348 130.645 291.982 130.645 291.608C130.645 291.235 130.645 290.868 130.645 290.508C130.872 290.508 131.125 290.508 131.405 290.508C131.698 290.508 132.005 290.508 132.325 290.508C132.645 290.508 132.958 290.508 133.265 290.508C133.572 290.508 133.852 290.508 134.105 290.508C134.372 290.508 134.585 290.508 134.745 290.508C134.798 290.508 134.838 290.522 134.865 290.548C134.892 290.562 134.912 290.582 134.925 290.608C134.952 290.635 134.965 290.675 134.965 290.728C134.965 291.355 134.965 292.042 134.965 292.788C134.965 293.522 134.965 294.268 134.965 295.028C134.965 295.788 134.965 296.535 134.965 297.268C134.965 298.002 134.965 298.688 134.965 299.328C134.965 299.528 134.965 299.742 134.965 299.968C134.965 300.182 134.965 300.395 134.965 300.608C134.965 300.822 134.965 301.042 134.965 301.268C134.525 301.268 134.112 301.268 133.725 301.268C133.352 301.268 132.938 301.268 132.485 301.268C132.418 301.268 132.365 301.248 132.325 301.208C132.285 301.168 132.265 301.115 132.265 301.048ZM131.785 285.388C132.038 285.388 132.298 285.388 132.565 285.388C132.845 285.388 133.125 285.388 133.405 285.388C133.698 285.388 133.978 285.388 134.245 285.388C134.525 285.388 134.792 285.388 135.045 285.388C135.112 285.388 135.165 285.408 135.205 285.448C135.245 285.488 135.265 285.542 135.265 285.608V288.188C135.012 288.188 134.745 288.188 134.465 288.188C134.198 288.188 133.918 288.188 133.625 288.188C133.345 288.188 133.065 288.188 132.785 288.188C132.518 288.188 132.258 288.188 132.005 288.188C131.938 288.188 131.885 288.168 131.845 288.128C131.805 288.088 131.785 288.035 131.785 287.968V285.388ZM146.997 294.448C146.997 294.782 146.997 295.108 146.997 295.428C146.997 295.735 146.997 296.055 146.997 296.388C146.997 296.708 146.997 297.035 146.997 297.368C146.997 297.688 146.997 298.002 146.997 298.308C146.997 298.415 147.004 298.508 147.017 298.588C147.044 298.668 147.084 298.735 147.137 298.788C147.177 298.828 147.23 298.862 147.297 298.888C147.377 298.902 147.464 298.908 147.557 298.908C147.597 298.908 147.63 298.908 147.657 298.908C147.697 298.908 147.737 298.908 147.777 298.908H148.157C148.157 299.268 148.157 299.628 148.157 299.988C148.157 300.335 148.157 300.688 148.157 301.048C148.157 301.115 148.137 301.168 148.097 301.208C148.057 301.248 148.004 301.268 147.937 301.268C147.87 301.268 147.704 301.268 147.437 301.268C147.184 301.268 146.957 301.268 146.757 301.268C146.384 301.268 146.05 301.208 145.757 301.088C145.464 300.968 145.204 300.802 144.977 300.588C144.75 300.362 144.577 300.095 144.457 299.788C144.337 299.482 144.277 299.135 144.277 298.748C144.277 298.335 144.277 297.915 144.277 297.488C144.277 297.062 144.277 296.642 144.277 296.228C144.277 296.002 144.277 295.788 144.277 295.588C144.277 295.375 144.277 295.162 144.277 294.948C144.277 294.735 144.277 294.522 144.277 294.308C144.277 293.922 144.21 293.622 144.077 293.408C143.944 293.182 143.724 293.022 143.417 292.928C143.124 292.835 142.724 292.788 142.217 292.788C141.844 292.788 141.477 292.808 141.117 292.848C140.77 292.888 140.424 292.942 140.077 293.008C139.744 293.075 139.404 293.168 139.057 293.288H138.677C138.677 292.928 138.677 292.568 138.677 292.208C138.677 291.848 138.677 291.495 138.677 291.148C138.677 291.095 138.684 291.055 138.697 291.028C138.71 291.002 138.724 290.982 138.737 290.968C138.817 290.888 139.037 290.795 139.397 290.688C139.77 290.582 140.21 290.495 140.717 290.428C141.224 290.348 141.724 290.308 142.217 290.308C143.057 290.308 143.777 290.388 144.377 290.548C144.977 290.695 145.47 290.935 145.857 291.268C146.244 291.602 146.53 292.035 146.717 292.568C146.904 293.088 146.997 293.715 146.997 294.448ZM140.597 298.228C140.597 298.508 140.67 298.722 140.817 298.868C140.977 299.002 141.217 299.068 141.537 299.068C141.897 299.068 142.25 299.028 142.597 298.948C142.944 298.868 143.284 298.735 143.617 298.548C143.964 298.362 144.31 298.122 144.657 297.828V299.548H144.057C143.884 299.948 143.637 300.295 143.317 300.588C143.01 300.868 142.65 301.088 142.237 301.248C141.824 301.395 141.37 301.468 140.877 301.468C140.264 301.468 139.73 301.348 139.277 301.108C138.837 300.868 138.497 300.535 138.257 300.108C138.017 299.668 137.897 299.162 137.897 298.588V297.888C137.897 297.448 137.97 297.055 138.117 296.708C138.264 296.362 138.47 296.062 138.737 295.808C139.017 295.555 139.35 295.362 139.737 295.228C140.124 295.082 140.557 295.008 141.037 295.008C141.504 295.008 141.957 295.008 142.397 295.008C142.85 295.008 143.277 295.008 143.677 295.008C144.09 295.008 144.477 295.008 144.837 295.008C144.957 295.008 145.044 295.115 145.097 295.328C145.164 295.542 145.204 295.782 145.217 296.048C145.23 296.302 145.237 296.515 145.237 296.688C144.81 296.688 144.397 296.688 143.997 296.688C143.597 296.688 143.19 296.688 142.777 296.688C142.377 296.688 141.964 296.688 141.537 296.688C141.377 296.688 141.237 296.708 141.117 296.748C141.01 296.788 140.917 296.848 140.837 296.928C140.77 297.008 140.71 297.102 140.657 297.208C140.617 297.302 140.597 297.408 140.597 297.528V298.228ZM155.365 287.268H164.545C164.585 287.268 164.619 287.282 164.645 287.308C164.672 287.322 164.699 287.348 164.725 287.388C164.752 287.415 164.765 287.448 164.765 287.488C164.765 287.902 164.765 288.275 164.765 288.608C164.765 288.928 164.765 289.295 164.765 289.708H155.585C155.545 289.708 155.505 289.702 155.465 289.688C155.439 289.662 155.412 289.635 155.385 289.608C155.372 289.568 155.365 289.528 155.365 289.488C155.365 289.075 155.365 288.702 155.365 288.368C155.365 288.035 155.365 287.668 155.365 287.268ZM158.105 293.048H163.365C163.405 293.048 163.439 293.062 163.465 293.088C163.505 293.115 163.532 293.142 163.545 293.168C163.572 293.195 163.585 293.228 163.585 293.268C163.585 293.548 163.585 293.808 163.585 294.048C163.585 294.275 163.585 294.502 163.585 294.728C163.585 294.942 163.585 295.168 163.585 295.408H158.105V293.048ZM156.565 301.268C156.525 301.268 156.492 301.262 156.465 301.248C156.439 301.235 156.412 301.222 156.385 301.208C156.372 301.182 156.359 301.155 156.345 301.128C156.332 301.102 156.325 301.075 156.325 301.048C156.325 300.688 156.325 300.168 156.325 299.488C156.325 298.795 156.325 298.008 156.325 297.128C156.325 296.235 156.325 295.302 156.325 294.328C156.325 293.342 156.325 292.368 156.325 291.408C156.325 290.435 156.325 289.542 156.325 288.728H159.365L159.205 289.168C159.205 289.475 159.205 289.788 159.205 290.108C159.205 290.428 159.205 290.748 159.205 291.068C159.205 291.682 159.205 292.315 159.205 292.968C159.205 293.622 159.205 294.275 159.205 294.928C159.205 295.582 159.205 296.242 159.205 296.908C159.205 297.562 159.205 298.202 159.205 298.828H164.545C164.612 298.828 164.665 298.848 164.705 298.888C164.745 298.928 164.765 298.982 164.765 299.048C164.765 299.435 164.765 299.808 164.765 300.168C164.765 300.515 164.765 300.882 164.765 301.268H156.565ZM176.441 301.268C176.001 301.268 175.588 301.268 175.201 301.268C174.828 301.268 174.415 301.268 173.961 301.268C173.921 301.268 173.881 301.262 173.841 301.248C173.815 301.222 173.788 301.195 173.761 301.168C173.748 301.142 173.741 301.102 173.741 301.048C173.741 300.262 173.741 299.475 173.741 298.688C173.741 297.888 173.741 297.095 173.741 296.308C173.741 295.522 173.741 294.735 173.741 293.948C173.741 293.588 173.661 293.322 173.501 293.148C173.341 292.975 173.088 292.888 172.741 292.888C172.515 292.888 172.261 292.928 171.981 293.008C171.715 293.075 171.441 293.182 171.161 293.328C170.895 293.462 170.635 293.635 170.381 293.848C170.128 294.062 169.895 294.315 169.681 294.608V292.248H170.381C170.648 291.848 170.941 291.502 171.261 291.208C171.595 290.915 171.955 290.688 172.341 290.528C172.741 290.355 173.168 290.268 173.621 290.268C174.048 290.268 174.435 290.342 174.781 290.488C175.141 290.622 175.441 290.828 175.681 291.108C175.935 291.375 176.121 291.702 176.241 292.088C176.375 292.475 176.441 292.908 176.441 293.388C176.441 294.028 176.441 294.675 176.441 295.328C176.441 295.982 176.441 296.635 176.441 297.288C176.441 297.942 176.441 298.602 176.441 299.268C176.441 299.602 176.441 299.935 176.441 300.268C176.441 300.602 176.441 300.935 176.441 301.268ZM170.001 301.268C169.708 301.268 169.428 301.268 169.161 301.268C168.908 301.268 168.641 301.268 168.361 301.268C168.095 301.268 167.815 301.268 167.521 301.268C167.481 301.268 167.448 301.268 167.421 301.268C167.395 301.255 167.368 301.242 167.341 301.228C167.328 301.202 167.315 301.175 167.301 301.148C167.301 301.122 167.301 301.088 167.301 301.048C167.301 300.328 167.301 299.615 167.301 298.908C167.301 298.188 167.301 297.475 167.301 296.768C167.301 296.048 167.301 295.335 167.301 294.628C167.301 293.908 167.301 293.188 167.301 292.468C167.301 292.095 167.301 291.742 167.301 291.408C167.301 291.075 167.301 290.775 167.301 290.508C167.635 290.508 167.935 290.508 168.201 290.508C168.481 290.508 168.748 290.508 169.001 290.508C169.268 290.508 169.528 290.508 169.781 290.508C169.835 290.508 169.875 290.522 169.901 290.548C169.928 290.562 169.948 290.582 169.961 290.608C169.988 290.635 170.001 290.675 170.001 290.728C170.001 291.888 170.001 293.055 170.001 294.228C170.001 295.402 170.001 296.575 170.001 297.748C170.001 298.922 170.001 300.095 170.001 301.268ZM183.814 290.268C184.72 290.268 185.507 290.455 186.174 290.828C186.854 291.202 187.38 291.722 187.754 292.388C188.127 293.055 188.314 293.835 188.314 294.728V296.388C188.314 296.428 188.307 296.468 188.294 296.508C188.28 296.535 188.254 296.555 188.214 296.568C188.187 296.582 188.154 296.588 188.114 296.588H183.514C183.287 296.588 183.054 296.588 182.814 296.588C182.587 296.588 182.36 296.588 182.134 296.588H181.314L181.254 294.908H185.694C185.694 294.855 185.694 294.808 185.694 294.768C185.694 294.728 185.694 294.682 185.694 294.628C185.694 294.242 185.654 293.915 185.574 293.648C185.494 293.368 185.367 293.148 185.194 292.988C185.047 292.828 184.86 292.715 184.634 292.648C184.407 292.582 184.134 292.548 183.814 292.548C183.147 292.548 182.647 292.715 182.314 293.048C181.994 293.368 181.834 293.895 181.834 294.628V297.068C181.834 297.388 181.874 297.675 181.954 297.928C182.047 298.168 182.174 298.375 182.334 298.548C182.547 298.762 182.827 298.915 183.174 299.008C183.534 299.102 183.947 299.148 184.414 299.148C184.894 299.148 185.32 299.128 185.694 299.088C186.067 299.035 186.414 298.968 186.734 298.888C187.054 298.795 187.367 298.695 187.674 298.588H188.054C188.054 298.922 188.054 299.262 188.054 299.608C188.054 299.942 188.054 300.282 188.054 300.628C188.054 300.655 188.047 300.682 188.034 300.708C188.02 300.735 188 300.762 187.974 300.788C187.867 300.895 187.627 301.002 187.254 301.108C186.894 301.215 186.454 301.308 185.934 301.388C185.427 301.468 184.907 301.508 184.374 301.508C183.507 301.508 182.74 301.408 182.074 301.208C181.42 300.995 180.874 300.695 180.434 300.308C180.007 299.922 179.68 299.455 179.454 298.908C179.24 298.348 179.134 297.722 179.134 297.028V294.748C179.134 294.068 179.24 293.455 179.454 292.908C179.68 292.362 180 291.895 180.414 291.508C180.827 291.108 181.32 290.802 181.894 290.588C182.467 290.375 183.107 290.268 183.814 290.268ZM193.786 292.428H194.586C194.746 291.935 194.933 291.535 195.146 291.228C195.359 290.908 195.619 290.675 195.926 290.528C196.246 290.382 196.606 290.308 197.006 290.308C197.219 290.308 197.393 290.328 197.526 290.368C197.673 290.408 197.773 290.448 197.826 290.488C197.879 290.528 197.913 290.568 197.926 290.608C197.939 290.635 197.946 290.682 197.946 290.748C197.946 290.962 197.946 291.175 197.946 291.388C197.946 291.588 197.946 291.788 197.946 291.988C197.946 292.188 197.946 292.395 197.946 292.608C197.946 292.808 197.946 293.015 197.946 293.228H197.566C197.433 293.188 197.286 293.155 197.126 293.128C196.966 293.102 196.786 293.088 196.586 293.088C196.173 293.088 195.806 293.168 195.486 293.328C195.179 293.488 194.893 293.715 194.626 294.008C194.359 294.288 194.079 294.622 193.786 295.008V292.428ZM194.166 301.268C193.873 301.268 193.573 301.268 193.266 301.268C192.973 301.268 192.679 301.268 192.386 301.268C192.093 301.268 191.799 301.268 191.506 301.268C191.466 301.268 191.433 301.268 191.406 301.268C191.379 301.255 191.353 301.242 191.326 301.228C191.313 301.202 191.299 301.175 191.286 301.148C191.286 301.122 191.286 301.088 191.286 301.048C191.286 300.555 191.286 300.035 191.286 299.488C191.286 298.928 191.286 298.355 191.286 297.768C191.286 297.182 191.286 296.595 191.286 296.008C191.286 295.408 191.286 294.815 191.286 294.228C191.286 293.628 191.286 293.042 191.286 292.468C191.286 292.095 191.286 291.742 191.286 291.408C191.286 291.075 191.286 290.775 191.286 290.508C191.619 290.508 191.933 290.508 192.226 290.508C192.533 290.508 192.826 290.508 193.106 290.508C193.399 290.508 193.679 290.508 193.946 290.508C193.999 290.508 194.039 290.522 194.066 290.548C194.093 290.562 194.113 290.582 194.126 290.608C194.153 290.635 194.166 290.675 194.166 290.728C194.166 291.342 194.166 291.988 194.166 292.668C194.166 293.348 194.166 294.042 194.166 294.748C194.166 295.455 194.166 296.182 194.166 296.928C194.166 297.662 194.166 298.395 194.166 299.128C194.166 299.848 194.166 300.562 194.166 301.268ZM200.574 299.728C200.574 299.422 200.628 299.148 200.734 298.908C200.841 298.655 201.008 298.435 201.234 298.248C201.474 298.062 201.774 297.915 202.134 297.808V297.168L203.394 297.648C203.354 297.848 203.321 298.055 203.294 298.268C203.281 298.468 203.274 298.682 203.274 298.908C203.274 299.068 203.308 299.182 203.374 299.248C203.441 299.302 203.554 299.328 203.714 299.328H206.294C207.081 299.328 207.728 299.462 208.234 299.728C208.741 299.995 209.114 300.368 209.354 300.848C209.608 301.315 209.734 301.855 209.734 302.468V303.208C209.734 303.662 209.661 304.075 209.514 304.448C209.381 304.822 209.168 305.142 208.874 305.408C208.581 305.688 208.214 305.902 207.774 306.048C207.348 306.195 206.841 306.268 206.254 306.268H202.174C201.481 306.268 200.901 306.175 200.434 305.988C199.981 305.815 199.634 305.555 199.394 305.208C199.168 304.875 199.054 304.455 199.054 303.948V303.588C199.054 303.188 199.134 302.835 199.294 302.528C199.468 302.222 199.708 301.968 200.014 301.768C200.321 301.568 200.681 301.435 201.094 301.368V300.608L202.574 301.508C202.348 301.575 202.174 301.668 202.054 301.788C201.948 301.908 201.861 302.042 201.794 302.188C201.741 302.348 201.714 302.528 201.714 302.728V303.348C201.714 303.575 201.748 303.762 201.814 303.908C201.894 304.055 202.014 304.162 202.174 304.228C202.334 304.295 202.548 304.328 202.814 304.328H205.974C206.174 304.328 206.341 304.302 206.474 304.248C206.608 304.208 206.714 304.148 206.794 304.068C206.888 303.975 206.954 303.848 206.994 303.688C207.034 303.542 207.054 303.375 207.054 303.188V302.648C207.054 302.275 206.974 302.008 206.814 301.848C206.654 301.688 206.374 301.608 205.974 301.608H202.374C202.068 301.608 201.774 301.522 201.494 301.348C201.228 301.188 201.008 300.962 200.834 300.668C200.661 300.375 200.574 300.062 200.574 299.728ZM205.354 292.488L207.234 292.348V292.888C207.701 293.048 208.041 293.268 208.254 293.548C208.468 293.828 208.574 294.195 208.574 294.648V294.948C208.574 295.535 208.408 296.035 208.074 296.448C207.754 296.862 207.261 297.188 206.594 297.428C205.941 297.655 205.121 297.768 204.134 297.768C203.148 297.768 202.308 297.635 201.614 297.368C200.934 297.088 200.421 296.688 200.074 296.168C199.728 295.648 199.554 295.028 199.554 294.308V293.868C199.554 293.135 199.728 292.508 200.074 291.988C200.421 291.455 200.934 291.048 201.614 290.768C202.308 290.475 203.148 290.328 204.134 290.328C205.041 290.328 205.948 290.328 206.854 290.328C207.761 290.328 208.668 290.328 209.574 290.328C209.574 290.662 209.574 291.002 209.574 291.348C209.574 291.682 209.574 292.022 209.574 292.368C209.574 292.422 209.554 292.475 209.514 292.528C209.474 292.568 209.421 292.588 209.354 292.588C208.781 292.588 208.221 292.588 207.674 292.588C207.128 292.588 206.568 292.588 205.994 292.588C205.421 292.588 204.801 292.588 204.134 292.588C203.494 292.588 203.008 292.702 202.674 292.928C202.341 293.155 202.174 293.508 202.174 293.988V294.328C202.174 294.528 202.201 294.695 202.254 294.828C202.321 294.962 202.408 295.088 202.514 295.208C202.674 295.368 202.888 295.488 203.154 295.568C203.421 295.648 203.748 295.688 204.134 295.688C204.774 295.688 205.241 295.575 205.534 295.348C205.828 295.108 205.974 294.748 205.974 294.268V293.848C205.974 293.662 205.954 293.495 205.914 293.348C205.874 293.188 205.808 293.042 205.714 292.908C205.634 292.775 205.514 292.635 205.354 292.488ZM216.001 290.268C216.908 290.268 217.695 290.455 218.361 290.828C219.041 291.202 219.568 291.722 219.941 292.388C220.315 293.055 220.501 293.835 220.501 294.728V296.388C220.501 296.428 220.495 296.468 220.481 296.508C220.468 296.535 220.441 296.555 220.401 296.568C220.375 296.582 220.341 296.588 220.301 296.588H215.701C215.475 296.588 215.241 296.588 215.001 296.588C214.775 296.588 214.548 296.588 214.321 296.588H213.501L213.441 294.908H217.881C217.881 294.855 217.881 294.808 217.881 294.768C217.881 294.728 217.881 294.682 217.881 294.628C217.881 294.242 217.841 293.915 217.761 293.648C217.681 293.368 217.555 293.148 217.381 292.988C217.235 292.828 217.048 292.715 216.821 292.648C216.595 292.582 216.321 292.548 216.001 292.548C215.335 292.548 214.835 292.715 214.501 293.048C214.181 293.368 214.021 293.895 214.021 294.628V297.068C214.021 297.388 214.061 297.675 214.141 297.928C214.235 298.168 214.361 298.375 214.521 298.548C214.735 298.762 215.015 298.915 215.361 299.008C215.721 299.102 216.135 299.148 216.601 299.148C217.081 299.148 217.508 299.128 217.881 299.088C218.255 299.035 218.601 298.968 218.921 298.888C219.241 298.795 219.555 298.695 219.861 298.588H220.241C220.241 298.922 220.241 299.262 220.241 299.608C220.241 299.942 220.241 300.282 220.241 300.628C220.241 300.655 220.235 300.682 220.221 300.708C220.208 300.735 220.188 300.762 220.161 300.788C220.055 300.895 219.815 301.002 219.441 301.108C219.081 301.215 218.641 301.308 218.121 301.388C217.615 301.468 217.095 301.508 216.561 301.508C215.695 301.508 214.928 301.408 214.261 301.208C213.608 300.995 213.061 300.695 212.621 300.308C212.195 299.922 211.868 299.455 211.641 298.908C211.428 298.348 211.321 297.722 211.321 297.028V294.748C211.321 294.068 211.428 293.455 211.641 292.908C211.868 292.362 212.188 291.895 212.601 291.508C213.015 291.108 213.508 290.802 214.081 290.588C214.655 290.375 215.295 290.268 216.001 290.268ZM216.921 285.048C217.495 285.048 218.008 285.048 218.461 285.048C218.928 285.048 219.435 285.048 219.981 285.048C220.075 285.048 220.135 285.082 220.161 285.148C220.201 285.215 220.188 285.282 220.121 285.348C219.801 285.722 219.488 286.082 219.181 286.428C218.888 286.762 218.581 287.102 218.261 287.448C217.955 287.795 217.608 288.195 217.221 288.648C217.195 288.688 217.148 288.728 217.081 288.768C217.028 288.795 216.961 288.808 216.881 288.808C216.495 288.808 216.128 288.808 215.781 288.808C215.448 288.808 215.108 288.808 214.761 288.808C215.001 288.395 215.241 287.982 215.481 287.568C215.721 287.155 215.961 286.735 216.201 286.308C216.441 285.882 216.681 285.462 216.921 285.048ZM222.578 290.508H230.298C230.378 290.508 230.438 290.528 230.478 290.568C230.518 290.608 230.538 290.662 230.538 290.728C230.538 291.008 230.538 291.268 230.538 291.508C230.538 291.748 230.538 291.995 230.538 292.248C230.538 292.502 230.538 292.762 230.538 293.028H222.818C222.791 293.028 222.765 293.022 222.738 293.008C222.711 292.995 222.685 292.982 222.658 292.968C222.631 292.942 222.611 292.915 222.598 292.888C222.585 292.862 222.578 292.835 222.578 292.808C222.578 292.542 222.578 292.282 222.578 292.028C222.578 291.775 222.578 291.528 222.578 291.288C222.578 291.048 222.578 290.788 222.578 290.508ZM230.538 298.688C230.538 299.088 230.538 299.488 230.538 299.888C230.538 300.275 230.538 300.662 230.538 301.048C230.538 301.102 230.518 301.155 230.478 301.208C230.438 301.248 230.385 301.268 230.318 301.268C230.185 301.268 230.045 301.268 229.898 301.268C229.765 301.268 229.625 301.268 229.478 301.268C229.345 301.268 229.211 301.268 229.078 301.268C228.945 301.268 228.805 301.268 228.658 301.268C227.965 301.268 227.345 301.188 226.798 301.028C226.251 300.855 225.785 300.595 225.398 300.248C225.011 299.902 224.718 299.455 224.518 298.908C224.318 298.362 224.218 297.715 224.218 296.968C224.218 296.315 224.218 295.668 224.218 295.028C224.218 294.388 224.218 293.748 224.218 293.108C224.218 292.468 224.218 291.828 224.218 291.188C224.218 290.548 224.218 289.908 224.218 289.268C224.218 288.922 224.218 288.588 224.218 288.268C224.218 287.935 224.218 287.602 224.218 287.268C224.631 287.268 225.045 287.268 225.458 287.268C225.885 287.268 226.298 287.268 226.698 287.268C226.738 287.268 226.771 287.282 226.798 287.308C226.838 287.322 226.865 287.348 226.878 287.388C226.905 287.415 226.918 287.448 226.918 287.488C226.918 288.262 226.918 289.035 226.918 289.808C226.918 290.568 226.918 291.335 226.918 292.108C226.918 292.882 226.918 293.655 226.918 294.428C226.918 295.188 226.918 295.955 226.918 296.728C226.918 297.128 226.958 297.455 227.038 297.708C227.118 297.962 227.238 298.168 227.398 298.328C227.545 298.462 227.725 298.555 227.938 298.608C228.165 298.662 228.438 298.688 228.758 298.688C228.931 298.688 229.098 298.688 229.258 298.688C229.431 298.688 229.605 298.688 229.778 298.688C229.951 298.688 230.125 298.688 230.298 298.688H230.538ZM233.827 301.048C233.827 300.688 233.827 300.242 233.827 299.708C233.827 299.162 233.827 298.575 233.827 297.948C233.827 297.322 233.827 296.695 233.827 296.068C233.827 295.442 233.827 294.855 233.827 294.308C233.827 293.762 233.827 293.302 233.827 292.928H233.687C233.607 292.928 233.514 292.928 233.407 292.928C233.314 292.928 233.207 292.928 233.087 292.928C232.981 292.928 232.867 292.928 232.747 292.928C232.641 292.928 232.534 292.928 232.427 292.928C232.361 292.928 232.307 292.908 232.267 292.868C232.227 292.828 232.207 292.775 232.207 292.708C232.207 292.348 232.207 291.982 232.207 291.608C232.207 291.235 232.207 290.868 232.207 290.508C232.434 290.508 232.687 290.508 232.967 290.508C233.261 290.508 233.567 290.508 233.887 290.508C234.207 290.508 234.521 290.508 234.827 290.508C235.134 290.508 235.414 290.508 235.667 290.508C235.934 290.508 236.147 290.508 236.307 290.508C236.361 290.508 236.401 290.522 236.427 290.548C236.454 290.562 236.474 290.582 236.487 290.608C236.514 290.635 236.527 290.675 236.527 290.728C236.527 291.355 236.527 292.042 236.527 292.788C236.527 293.522 236.527 294.268 236.527 295.028C236.527 295.788 236.527 296.535 236.527 297.268C236.527 298.002 236.527 298.688 236.527 299.328C236.527 299.528 236.527 299.742 236.527 299.968C236.527 300.182 236.527 300.395 236.527 300.608C236.527 300.822 236.527 301.042 236.527 301.268C236.087 301.268 235.674 301.268 235.287 301.268C234.914 301.268 234.501 301.268 234.047 301.268C233.981 301.268 233.927 301.248 233.887 301.208C233.847 301.168 233.827 301.115 233.827 301.048ZM233.347 285.388C233.601 285.388 233.861 285.388 234.127 285.388C234.407 285.388 234.687 285.388 234.967 285.388C235.261 285.388 235.541 285.388 235.807 285.388C236.087 285.388 236.354 285.388 236.607 285.388C236.674 285.388 236.727 285.408 236.767 285.448C236.807 285.488 236.827 285.542 236.827 285.608V288.188C236.574 288.188 236.307 288.188 236.027 288.188C235.761 288.188 235.481 288.188 235.187 288.188C234.907 288.188 234.627 288.188 234.347 288.188C234.081 288.188 233.821 288.188 233.567 288.188C233.501 288.188 233.447 288.168 233.407 288.128C233.367 288.088 233.347 288.035 233.347 287.968V285.388ZM244.6 290.268C245.093 290.268 245.526 290.302 245.9 290.368C246.273 290.422 246.573 290.495 246.8 290.588C247.04 290.668 247.2 290.748 247.28 290.828C247.306 290.842 247.32 290.868 247.32 290.908C247.333 290.935 247.34 290.968 247.34 291.008C247.34 291.382 247.34 291.762 247.34 292.148C247.34 292.535 247.34 292.922 247.34 293.308H246.96C246.6 293.148 246.226 293.028 245.84 292.948C245.453 292.868 245.033 292.828 244.58 292.828C244.14 292.828 243.746 292.915 243.4 293.088C243.053 293.248 242.786 293.508 242.6 293.868C242.413 294.228 242.32 294.695 242.32 295.268V296.528C242.32 296.955 242.373 297.328 242.48 297.648C242.586 297.955 242.753 298.208 242.98 298.408C243.166 298.595 243.393 298.735 243.66 298.828C243.926 298.908 244.233 298.948 244.58 298.948C244.886 298.948 245.173 298.935 245.44 298.908C245.706 298.868 245.966 298.815 246.22 298.748C246.473 298.682 246.72 298.595 246.96 298.488H247.34C247.34 298.875 247.34 299.262 247.34 299.648C247.34 300.035 247.34 300.422 247.34 300.808C247.34 300.835 247.333 300.862 247.32 300.888C247.32 300.915 247.306 300.942 247.28 300.968C247.213 301.035 247.06 301.115 246.82 301.208C246.593 301.288 246.286 301.355 245.9 301.408C245.526 301.475 245.093 301.508 244.6 301.508C243.8 301.508 243.086 301.402 242.46 301.188C241.833 300.975 241.3 300.662 240.86 300.248C240.42 299.822 240.086 299.308 239.86 298.708C239.633 298.108 239.52 297.428 239.52 296.668V295.228C239.52 294.242 239.733 293.382 240.16 292.648C240.586 291.902 241.18 291.322 241.94 290.908C242.7 290.482 243.586 290.268 244.6 290.268ZM258.56 294.448C258.56 294.782 258.56 295.108 258.56 295.428C258.56 295.735 258.56 296.055 258.56 296.388C258.56 296.708 258.56 297.035 258.56 297.368C258.56 297.688 258.56 298.002 258.56 298.308C258.56 298.415 258.566 298.508 258.58 298.588C258.606 298.668 258.646 298.735 258.7 298.788C258.74 298.828 258.793 298.862 258.86 298.888C258.94 298.902 259.026 298.908 259.12 298.908C259.16 298.908 259.193 298.908 259.22 298.908C259.26 298.908 259.3 298.908 259.34 298.908H259.72C259.72 299.268 259.72 299.628 259.72 299.988C259.72 300.335 259.72 300.688 259.72 301.048C259.72 301.115 259.7 301.168 259.66 301.208C259.62 301.248 259.566 301.268 259.5 301.268C259.433 301.268 259.266 301.268 259 301.268C258.746 301.268 258.52 301.268 258.32 301.268C257.946 301.268 257.613 301.208 257.32 301.088C257.026 300.968 256.766 300.802 256.54 300.588C256.313 300.362 256.14 300.095 256.02 299.788C255.9 299.482 255.84 299.135 255.84 298.748C255.84 298.335 255.84 297.915 255.84 297.488C255.84 297.062 255.84 296.642 255.84 296.228C255.84 296.002 255.84 295.788 255.84 295.588C255.84 295.375 255.84 295.162 255.84 294.948C255.84 294.735 255.84 294.522 255.84 294.308C255.84 293.922 255.773 293.622 255.64 293.408C255.506 293.182 255.286 293.022 254.98 292.928C254.686 292.835 254.286 292.788 253.78 292.788C253.406 292.788 253.04 292.808 252.68 292.848C252.333 292.888 251.986 292.942 251.64 293.008C251.306 293.075 250.966 293.168 250.62 293.288H250.24C250.24 292.928 250.24 292.568 250.24 292.208C250.24 291.848 250.24 291.495 250.24 291.148C250.24 291.095 250.246 291.055 250.26 291.028C250.273 291.002 250.286 290.982 250.3 290.968C250.38 290.888 250.6 290.795 250.96 290.688C251.333 290.582 251.773 290.495 252.28 290.428C252.786 290.348 253.286 290.308 253.78 290.308C254.62 290.308 255.34 290.388 255.94 290.548C256.54 290.695 257.033 290.935 257.42 291.268C257.806 291.602 258.093 292.035 258.28 292.568C258.466 293.088 258.56 293.715 258.56 294.448ZM252.16 298.228C252.16 298.508 252.233 298.722 252.38 298.868C252.54 299.002 252.78 299.068 253.1 299.068C253.46 299.068 253.813 299.028 254.16 298.948C254.506 298.868 254.846 298.735 255.18 298.548C255.526 298.362 255.873 298.122 256.22 297.828V299.548H255.62C255.446 299.948 255.2 300.295 254.88 300.588C254.573 300.868 254.213 301.088 253.8 301.248C253.386 301.395 252.933 301.468 252.44 301.468C251.826 301.468 251.293 301.348 250.84 301.108C250.4 300.868 250.06 300.535 249.82 300.108C249.58 299.668 249.46 299.162 249.46 298.588V297.888C249.46 297.448 249.533 297.055 249.68 296.708C249.826 296.362 250.033 296.062 250.3 295.808C250.58 295.555 250.913 295.362 251.3 295.228C251.686 295.082 252.12 295.008 252.6 295.008C253.066 295.008 253.52 295.008 253.96 295.008C254.413 295.008 254.84 295.008 255.24 295.008C255.653 295.008 256.04 295.008 256.4 295.008C256.52 295.008 256.606 295.115 256.66 295.328C256.726 295.542 256.766 295.782 256.78 296.048C256.793 296.302 256.8 296.515 256.8 296.688C256.373 296.688 255.96 296.688 255.56 296.688C255.16 296.688 254.753 296.688 254.34 296.688C253.94 296.688 253.526 296.688 253.1 296.688C252.94 296.688 252.8 296.708 252.68 296.748C252.573 296.788 252.48 296.848 252.4 296.928C252.333 297.008 252.273 297.102 252.22 297.208C252.18 297.302 252.16 297.408 252.16 297.528V298.228ZM111.861 314.268C112.767 314.268 113.554 314.455 114.221 314.828C114.901 315.202 115.427 315.722 115.801 316.388C116.174 317.055 116.361 317.835 116.361 318.728V320.388C116.361 320.428 116.354 320.468 116.341 320.508C116.327 320.535 116.301 320.555 116.261 320.568C116.234 320.582 116.201 320.588 116.161 320.588H111.561C111.334 320.588 111.101 320.588 110.861 320.588C110.634 320.588 110.407 320.588 110.181 320.588H109.361L109.301 318.908H113.741C113.741 318.855 113.741 318.808 113.741 318.768C113.741 318.728 113.741 318.682 113.741 318.628C113.741 318.242 113.701 317.915 113.621 317.648C113.541 317.368 113.414 317.148 113.241 316.988C113.094 316.828 112.907 316.715 112.681 316.648C112.454 316.582 112.181 316.548 111.861 316.548C111.194 316.548 110.694 316.715 110.361 317.048C110.041 317.368 109.881 317.895 109.881 318.628V321.068C109.881 321.388 109.921 321.675 110.001 321.928C110.094 322.168 110.221 322.375 110.381 322.548C110.594 322.762 110.874 322.915 111.221 323.008C111.581 323.102 111.994 323.148 112.461 323.148C112.941 323.148 113.367 323.128 113.741 323.088C114.114 323.035 114.461 322.968 114.781 322.888C115.101 322.795 115.414 322.695 115.721 322.588H116.101C116.101 322.922 116.101 323.262 116.101 323.608C116.101 323.942 116.101 324.282 116.101 324.628C116.101 324.655 116.094 324.682 116.081 324.708C116.067 324.735 116.047 324.762 116.021 324.788C115.914 324.895 115.674 325.002 115.301 325.108C114.941 325.215 114.501 325.308 113.981 325.388C113.474 325.468 112.954 325.508 112.421 325.508C111.554 325.508 110.787 325.408 110.121 325.208C109.467 324.995 108.921 324.695 108.481 324.308C108.054 323.922 107.727 323.455 107.501 322.908C107.287 322.348 107.181 321.722 107.181 321.028V318.748C107.181 318.068 107.287 317.455 107.501 316.908C107.727 316.362 108.047 315.895 108.461 315.508C108.874 315.108 109.367 314.802 109.941 314.588C110.514 314.375 111.154 314.268 111.861 314.268ZM125.269 311.268C125.722 311.268 126.169 311.268 126.609 311.268C127.049 311.268 127.489 311.268 127.929 311.268C127.996 311.268 128.049 311.288 128.089 311.328C128.129 311.368 128.149 311.422 128.149 311.488C128.149 312.635 128.149 313.782 128.149 314.928C128.149 316.075 128.149 317.228 128.149 318.388C128.149 319.535 128.149 320.682 128.149 321.828C128.149 322.975 128.149 324.122 128.149 325.268C127.709 325.268 127.269 325.268 126.829 325.268C126.389 325.268 125.942 325.268 125.489 325.268C125.449 325.268 125.409 325.262 125.369 325.248C125.342 325.222 125.316 325.195 125.289 325.168C125.276 325.128 125.269 325.088 125.269 325.048C125.269 323.755 125.269 322.462 125.269 321.168C125.269 319.862 125.269 318.562 125.269 317.268C125.269 315.975 125.269 314.682 125.269 313.388C125.269 313.028 125.269 312.675 125.269 312.328C125.269 311.982 125.269 311.628 125.269 311.268ZM126.509 317.048H131.309C131.522 317.048 131.729 317.048 131.929 317.048C132.129 317.048 132.329 317.048 132.529 317.048L133.229 316.868L133.789 319.488H126.729C126.689 319.488 126.656 319.482 126.629 319.468C126.602 319.455 126.576 319.442 126.549 319.428C126.536 319.402 126.522 319.375 126.509 319.348C126.509 319.322 126.509 319.295 126.509 319.268V317.048ZM135.349 325.268C134.909 325.268 134.469 325.268 134.029 325.268C133.589 325.268 133.142 325.268 132.689 325.268C132.649 325.268 132.609 325.262 132.569 325.248C132.542 325.222 132.516 325.195 132.489 325.168C132.476 325.128 132.469 325.088 132.469 325.048C132.469 323.902 132.469 322.755 132.469 321.608C132.469 320.462 132.469 319.315 132.469 318.168C132.469 317.008 132.469 315.855 132.469 314.708C132.469 313.562 132.469 312.415 132.469 311.268C132.922 311.268 133.369 311.268 133.809 311.268C134.249 311.268 134.689 311.268 135.129 311.268C135.156 311.268 135.182 311.275 135.209 311.288C135.236 311.302 135.256 311.322 135.269 311.348C135.296 311.362 135.316 311.382 135.329 311.408C135.342 311.435 135.349 311.462 135.349 311.488C135.349 312.448 135.349 313.415 135.349 314.388C135.349 315.362 135.349 316.335 135.349 317.308C135.349 318.268 135.349 319.235 135.349 320.208C135.349 321.168 135.349 322.128 135.349 323.088C135.349 323.488 135.349 323.875 135.349 324.248C135.349 324.608 135.349 324.948 135.349 325.268ZM139.277 325.048C139.277 324.688 139.277 324.242 139.277 323.708C139.277 323.162 139.277 322.575 139.277 321.948C139.277 321.322 139.277 320.695 139.277 320.068C139.277 319.442 139.277 318.855 139.277 318.308C139.277 317.762 139.277 317.302 139.277 316.928H139.137C139.057 316.928 138.963 316.928 138.857 316.928C138.763 316.928 138.657 316.928 138.537 316.928C138.43 316.928 138.317 316.928 138.197 316.928C138.09 316.928 137.983 316.928 137.877 316.928C137.81 316.928 137.757 316.908 137.717 316.868C137.677 316.828 137.657 316.775 137.657 316.708C137.657 316.348 137.657 315.982 137.657 315.608C137.657 315.235 137.657 314.868 137.657 314.508C137.883 314.508 138.137 314.508 138.417 314.508C138.71 314.508 139.017 314.508 139.337 314.508C139.657 314.508 139.97 314.508 140.277 314.508C140.583 314.508 140.863 314.508 141.117 314.508C141.383 314.508 141.597 314.508 141.757 314.508C141.81 314.508 141.85 314.522 141.877 314.548C141.903 314.562 141.923 314.582 141.937 314.608C141.963 314.635 141.977 314.675 141.977 314.728C141.977 315.355 141.977 316.042 141.977 316.788C141.977 317.522 141.977 318.268 141.977 319.028C141.977 319.788 141.977 320.535 141.977 321.268C141.977 322.002 141.977 322.688 141.977 323.328C141.977 323.528 141.977 323.742 141.977 323.968C141.977 324.182 141.977 324.395 141.977 324.608C141.977 324.822 141.977 325.042 141.977 325.268C141.537 325.268 141.123 325.268 140.737 325.268C140.363 325.268 139.95 325.268 139.497 325.268C139.43 325.268 139.377 325.248 139.337 325.208C139.297 325.168 139.277 325.115 139.277 325.048ZM141.477 309.048C142.05 309.048 142.563 309.048 143.017 309.048C143.483 309.048 143.99 309.048 144.537 309.048C144.63 309.048 144.69 309.082 144.717 309.148C144.757 309.215 144.743 309.282 144.677 309.348C144.357 309.722 144.043 310.082 143.737 310.428C143.443 310.762 143.137 311.102 142.817 311.448C142.51 311.795 142.163 312.195 141.777 312.648C141.75 312.688 141.703 312.728 141.637 312.768C141.583 312.795 141.517 312.808 141.437 312.808C141.05 312.808 140.683 312.808 140.337 312.808C140.003 312.808 139.663 312.808 139.317 312.808C139.557 312.395 139.797 311.982 140.037 311.568C140.277 311.155 140.517 310.735 140.757 310.308C140.997 309.882 141.237 309.462 141.477 309.048ZM148.289 314.268C148.756 314.268 149.169 314.342 149.529 314.488C149.889 314.622 150.209 314.815 150.489 315.068C150.769 315.322 151.009 315.628 151.209 315.988H151.889V318.368C151.489 317.875 151.056 317.508 150.589 317.268C150.122 317.015 149.656 316.888 149.189 316.888C148.869 316.888 148.596 316.955 148.369 317.088C148.142 317.222 147.969 317.422 147.849 317.688C147.729 317.942 147.669 318.255 147.669 318.628V321.128C147.669 321.448 147.702 321.722 147.769 321.948C147.849 322.175 147.956 322.348 148.089 322.468C148.209 322.602 148.362 322.702 148.549 322.768C148.736 322.822 148.949 322.848 149.189 322.848C149.496 322.848 149.802 322.802 150.109 322.708C150.416 322.602 150.716 322.435 151.009 322.208C151.316 321.982 151.609 321.688 151.889 321.328V323.708H151.209C150.996 324.068 150.736 324.382 150.429 324.648C150.136 324.915 149.809 325.122 149.449 325.268C149.089 325.402 148.702 325.468 148.289 325.468C147.782 325.468 147.322 325.382 146.909 325.208C146.509 325.035 146.162 324.782 145.869 324.448C145.589 324.115 145.369 323.708 145.209 323.228C145.049 322.748 144.969 322.202 144.969 321.588V318.188C144.969 317.575 145.049 317.028 145.209 316.548C145.369 316.055 145.589 315.642 145.869 315.308C146.162 314.975 146.516 314.722 146.929 314.548C147.342 314.362 147.796 314.268 148.289 314.268ZM154.069 310.268C154.122 310.268 154.162 310.282 154.189 310.308C154.216 310.322 154.236 310.342 154.249 310.368C154.276 310.395 154.289 310.435 154.289 310.488C154.289 311.475 154.289 312.475 154.289 313.488C154.289 314.488 154.289 315.495 154.289 316.508C154.289 317.508 154.289 318.502 154.289 319.488C154.289 320.475 154.289 321.455 154.289 322.428C154.289 322.922 154.289 323.402 154.289 323.868C154.289 324.335 154.289 324.802 154.289 325.268C154.089 325.268 153.882 325.268 153.669 325.268C153.469 325.268 153.262 325.268 153.049 325.268C152.836 325.268 152.622 325.268 152.409 325.268C152.209 325.268 152.009 325.268 151.809 325.268C151.769 325.268 151.729 325.262 151.689 325.248C151.662 325.222 151.636 325.195 151.609 325.168C151.596 325.142 151.589 325.102 151.589 325.048C151.589 323.982 151.589 322.915 151.589 321.848C151.589 320.782 151.589 319.722 151.589 318.668C151.589 317.602 151.589 316.535 151.589 315.468C151.589 314.402 151.589 313.335 151.589 312.268C151.589 311.935 151.589 311.602 151.589 311.268C151.589 310.935 151.589 310.602 151.589 310.268C151.789 310.268 151.989 310.268 152.189 310.268C152.402 310.268 152.616 310.268 152.829 310.268C153.042 310.268 153.249 310.268 153.449 310.268C153.662 310.268 153.869 310.268 154.069 310.268ZM160.212 316.428H161.012C161.172 315.935 161.358 315.535 161.572 315.228C161.785 314.908 162.045 314.675 162.352 314.528C162.672 314.382 163.032 314.308 163.432 314.308C163.645 314.308 163.818 314.328 163.952 314.368C164.098 314.408 164.198 314.448 164.252 314.488C164.305 314.528 164.338 314.568 164.352 314.608C164.365 314.635 164.372 314.682 164.372 314.748C164.372 314.962 164.372 315.175 164.372 315.388C164.372 315.588 164.372 315.788 164.372 315.988C164.372 316.188 164.372 316.395 164.372 316.608C164.372 316.808 164.372 317.015 164.372 317.228H163.992C163.858 317.188 163.712 317.155 163.552 317.128C163.392 317.102 163.212 317.088 163.012 317.088C162.598 317.088 162.232 317.168 161.912 317.328C161.605 317.488 161.318 317.715 161.052 318.008C160.785 318.288 160.505 318.622 160.212 319.008V316.428ZM160.592 325.268C160.298 325.268 159.998 325.268 159.692 325.268C159.398 325.268 159.105 325.268 158.812 325.268C158.518 325.268 158.225 325.268 157.932 325.268C157.892 325.268 157.858 325.268 157.832 325.268C157.805 325.255 157.778 325.242 157.752 325.228C157.738 325.202 157.725 325.175 157.712 325.148C157.712 325.122 157.712 325.088 157.712 325.048C157.712 324.555 157.712 324.035 157.712 323.488C157.712 322.928 157.712 322.355 157.712 321.768C157.712 321.182 157.712 320.595 157.712 320.008C157.712 319.408 157.712 318.815 157.712 318.228C157.712 317.628 157.712 317.042 157.712 316.468C157.712 316.095 157.712 315.742 157.712 315.408C157.712 315.075 157.712 314.775 157.712 314.508C158.045 314.508 158.358 314.508 158.652 314.508C158.958 314.508 159.252 314.508 159.532 314.508C159.825 314.508 160.105 314.508 160.372 314.508C160.425 314.508 160.465 314.522 160.492 314.548C160.518 314.562 160.538 314.582 160.552 314.608C160.578 314.635 160.592 314.675 160.592 314.728C160.592 315.342 160.592 315.988 160.592 316.668C160.592 317.348 160.592 318.042 160.592 318.748C160.592 319.455 160.592 320.182 160.592 320.928C160.592 321.662 160.592 322.395 160.592 323.128C160.592 323.848 160.592 324.562 160.592 325.268ZM167.656 325.048C167.656 324.688 167.656 324.242 167.656 323.708C167.656 323.162 167.656 322.575 167.656 321.948C167.656 321.322 167.656 320.695 167.656 320.068C167.656 319.442 167.656 318.855 167.656 318.308C167.656 317.762 167.656 317.302 167.656 316.928H167.516C167.436 316.928 167.342 316.928 167.236 316.928C167.142 316.928 167.036 316.928 166.916 316.928C166.809 316.928 166.696 316.928 166.576 316.928C166.469 316.928 166.362 316.928 166.256 316.928C166.189 316.928 166.136 316.908 166.096 316.868C166.056 316.828 166.036 316.775 166.036 316.708C166.036 316.348 166.036 315.982 166.036 315.608C166.036 315.235 166.036 314.868 166.036 314.508C166.262 314.508 166.516 314.508 166.796 314.508C167.089 314.508 167.396 314.508 167.716 314.508C168.036 314.508 168.349 314.508 168.656 314.508C168.962 314.508 169.242 314.508 169.496 314.508C169.762 314.508 169.976 314.508 170.136 314.508C170.189 314.508 170.229 314.522 170.256 314.548C170.282 314.562 170.302 314.582 170.316 314.608C170.342 314.635 170.356 314.675 170.356 314.728C170.356 315.355 170.356 316.042 170.356 316.788C170.356 317.522 170.356 318.268 170.356 319.028C170.356 319.788 170.356 320.535 170.356 321.268C170.356 322.002 170.356 322.688 170.356 323.328C170.356 323.528 170.356 323.742 170.356 323.968C170.356 324.182 170.356 324.395 170.356 324.608C170.356 324.822 170.356 325.042 170.356 325.268C169.916 325.268 169.502 325.268 169.116 325.268C168.742 325.268 168.329 325.268 167.876 325.268C167.809 325.268 167.756 325.248 167.716 325.208C167.676 325.168 167.656 325.115 167.656 325.048ZM167.176 309.388C167.429 309.388 167.689 309.388 167.956 309.388C168.236 309.388 168.516 309.388 168.796 309.388C169.089 309.388 169.369 309.388 169.636 309.388C169.916 309.388 170.182 309.388 170.436 309.388C170.502 309.388 170.556 309.408 170.596 309.448C170.636 309.488 170.656 309.542 170.656 309.608V312.188C170.402 312.188 170.136 312.188 169.856 312.188C169.589 312.188 169.309 312.188 169.016 312.188C168.736 312.188 168.456 312.188 168.176 312.188C167.909 312.188 167.649 312.188 167.396 312.188C167.329 312.188 167.276 312.168 167.236 312.128C167.196 312.088 167.176 312.035 167.176 311.968V309.388ZM178.428 314.268C178.921 314.268 179.354 314.302 179.728 314.368C180.101 314.422 180.401 314.495 180.628 314.588C180.868 314.668 181.028 314.748 181.108 314.828C181.134 314.842 181.148 314.868 181.148 314.908C181.161 314.935 181.168 314.968 181.168 315.008C181.168 315.382 181.168 315.762 181.168 316.148C181.168 316.535 181.168 316.922 181.168 317.308H180.788C180.428 317.148 180.054 317.028 179.668 316.948C179.281 316.868 178.861 316.828 178.408 316.828C177.968 316.828 177.574 316.915 177.228 317.088C176.881 317.248 176.614 317.508 176.428 317.868C176.241 318.228 176.148 318.695 176.148 319.268V320.528C176.148 320.955 176.201 321.328 176.308 321.648C176.414 321.955 176.581 322.208 176.808 322.408C176.994 322.595 177.221 322.735 177.488 322.828C177.754 322.908 178.061 322.948 178.408 322.948C178.714 322.948 179.001 322.935 179.268 322.908C179.534 322.868 179.794 322.815 180.048 322.748C180.301 322.682 180.548 322.595 180.788 322.488H181.168C181.168 322.875 181.168 323.262 181.168 323.648C181.168 324.035 181.168 324.422 181.168 324.808C181.168 324.835 181.161 324.862 181.148 324.888C181.148 324.915 181.134 324.942 181.108 324.968C181.041 325.035 180.888 325.115 180.648 325.208C180.421 325.288 180.114 325.355 179.728 325.408C179.354 325.475 178.921 325.508 178.428 325.508C177.628 325.508 176.914 325.402 176.288 325.188C175.661 324.975 175.128 324.662 174.688 324.248C174.248 323.822 173.914 323.308 173.688 322.708C173.461 322.108 173.348 321.428 173.348 320.668V319.228C173.348 318.242 173.561 317.382 173.988 316.648C174.414 315.902 175.008 315.322 175.768 314.908C176.528 314.482 177.414 314.268 178.428 314.268ZM192.388 318.448C192.388 318.782 192.388 319.108 192.388 319.428C192.388 319.735 192.388 320.055 192.388 320.388C192.388 320.708 192.388 321.035 192.388 321.368C192.388 321.688 192.388 322.002 192.388 322.308C192.388 322.415 192.394 322.508 192.408 322.588C192.434 322.668 192.474 322.735 192.528 322.788C192.568 322.828 192.621 322.862 192.688 322.888C192.768 322.902 192.854 322.908 192.948 322.908C192.988 322.908 193.021 322.908 193.048 322.908C193.088 322.908 193.128 322.908 193.168 322.908H193.548C193.548 323.268 193.548 323.628 193.548 323.988C193.548 324.335 193.548 324.688 193.548 325.048C193.548 325.115 193.528 325.168 193.488 325.208C193.448 325.248 193.394 325.268 193.328 325.268C193.261 325.268 193.094 325.268 192.828 325.268C192.574 325.268 192.348 325.268 192.148 325.268C191.774 325.268 191.441 325.208 191.148 325.088C190.854 324.968 190.594 324.802 190.368 324.588C190.141 324.362 189.968 324.095 189.848 323.788C189.728 323.482 189.668 323.135 189.668 322.748C189.668 322.335 189.668 321.915 189.668 321.488C189.668 321.062 189.668 320.642 189.668 320.228C189.668 320.002 189.668 319.788 189.668 319.588C189.668 319.375 189.668 319.162 189.668 318.948C189.668 318.735 189.668 318.522 189.668 318.308C189.668 317.922 189.601 317.622 189.468 317.408C189.334 317.182 189.114 317.022 188.808 316.928C188.514 316.835 188.114 316.788 187.608 316.788C187.234 316.788 186.868 316.808 186.508 316.848C186.161 316.888 185.814 316.942 185.468 317.008C185.134 317.075 184.794 317.168 184.448 317.288H184.068C184.068 316.928 184.068 316.568 184.068 316.208C184.068 315.848 184.068 315.495 184.068 315.148C184.068 315.095 184.074 315.055 184.088 315.028C184.101 315.002 184.114 314.982 184.128 314.968C184.208 314.888 184.428 314.795 184.788 314.688C185.161 314.582 185.601 314.495 186.108 314.428C186.614 314.348 187.114 314.308 187.608 314.308C188.448 314.308 189.168 314.388 189.768 314.548C190.368 314.695 190.861 314.935 191.248 315.268C191.634 315.602 191.921 316.035 192.108 316.568C192.294 317.088 192.388 317.715 192.388 318.448ZM185.988 322.228C185.988 322.508 186.061 322.722 186.208 322.868C186.368 323.002 186.608 323.068 186.928 323.068C187.288 323.068 187.641 323.028 187.988 322.948C188.334 322.868 188.674 322.735 189.008 322.548C189.354 322.362 189.701 322.122 190.048 321.828V323.548H189.448C189.274 323.948 189.028 324.295 188.708 324.588C188.401 324.868 188.041 325.088 187.628 325.248C187.214 325.395 186.761 325.468 186.268 325.468C185.654 325.468 185.121 325.348 184.668 325.108C184.228 324.868 183.888 324.535 183.648 324.108C183.408 323.668 183.288 323.162 183.288 322.588V321.888C183.288 321.448 183.361 321.055 183.508 320.708C183.654 320.362 183.861 320.062 184.128 319.808C184.408 319.555 184.741 319.362 185.128 319.228C185.514 319.082 185.948 319.008 186.428 319.008C186.894 319.008 187.348 319.008 187.788 319.008C188.241 319.008 188.668 319.008 189.068 319.008C189.481 319.008 189.868 319.008 190.228 319.008C190.348 319.008 190.434 319.115 190.488 319.328C190.554 319.542 190.594 319.782 190.608 320.048C190.621 320.302 190.628 320.515 190.628 320.688C190.201 320.688 189.788 320.688 189.388 320.688C188.988 320.688 188.581 320.688 188.168 320.688C187.768 320.688 187.354 320.688 186.928 320.688C186.768 320.688 186.628 320.708 186.508 320.748C186.401 320.788 186.308 320.848 186.228 320.928C186.161 321.008 186.101 321.102 186.048 321.208C186.008 321.302 185.988 321.408 185.988 321.528V322.228Z" fill="#010101"/>
</svg>
