<svg width="300" height="403" viewBox="0 0 300 403" fill="none" xmlns="http://www.w3.org/2000/svg">
<path d="M4.08324 0.992379C3.09093 1.42431 1.81218 2.48993 1.24158 3.36062C0.243585 4.88432 0.198118 12.0521 0.0378487 193.087C-0.074681 320.51 0.0594441 381.883 0.454435 383.253C0.775542 384.366 1.70192 385.9 2.5135 386.663L3.98889 388.05L25.1138 388.334L46.2393 388.618L253.965 388.334H275.05H296.135L298.067 386.402L300 384.469V194.845C300 29.9523 299.892 5.01276 299.172 3.62148C298.717 2.7417 297.464 1.60334 296.387 1.09241C294.59 0.239909 282.539 0.164889 150.158 0.185349C28.7363 0.204103 5.60182 0.331977 4.08324 0.992379Z" fill="#92C154"/>
<path d="M47.4718 399.152C46.5823 397.694 46.3243 396.281 46.3226 392.866L46.3203 388.462H150.041H253.762L253.76 392.582C253.76 397.616 252.6 400.267 249.783 401.674C247.913 402.609 241.974 402.668 150.165 402.669C42.7051 402.67 49.7638 402.912 47.4718 399.152Z" fill="#6BA03A"/>
<path fill-rule="evenodd" clip-rule="evenodd" d="M66.5654 73.841L64.7092 75.4994L64.5648 156.391C64.429 232.537 64.479 237.4 65.4173 239.264C65.9658 240.354 67.0536 241.565 67.835 241.955C68.9512 242.513 86.5724 242.667 149.959 242.672C228.896 242.678 230.702 242.654 232.475 241.573C233.692 240.831 234.484 239.759 234.887 238.307C235.295 236.839 235.488 210.796 235.49 156.988C235.493 71.6541 235.617 75.2334 232.585 73.1096C231.377 72.2633 224.196 72.1826 149.841 72.1826H68.4215L66.5654 73.841ZM68.4232 76.6918C68.026 77.4346 67.835 103.685 67.835 157.639C67.835 229.47 67.9248 237.576 68.7279 238.379C69.5315 239.182 77.6825 239.272 149.959 239.272C222.235 239.272 230.387 239.182 231.19 238.379C231.993 237.576 232.083 229.47 232.083 157.639C232.083 103.685 231.892 77.4346 231.495 76.6918C230.917 75.6131 229.408 75.5926 149.959 75.5926C70.5102 75.5926 69.0007 75.6131 68.4232 76.6918ZM144.662 86.0516C140.579 87.0814 137.31 89.581 135.216 93.2717L133.477 96.3367L133.193 130.721C132.876 169.117 133.132 166.832 128.756 170.348C125.372 173.067 120.971 180.025 119.207 185.443C114.977 198.434 117.802 209.713 127.78 219.668C134.188 226.061 140.035 228.764 148.822 229.396C163.615 230.46 176.924 221.497 181.558 207.348C182.662 203.977 182.915 202.045 182.887 197.216C182.826 186.781 179.987 180.567 171.967 173.312C170.046 171.573 168.082 169.399 167.603 168.481C166.848 167.033 166.731 162.175 166.728 132.111L166.725 97.4126L165.254 94.4607C162.595 89.1257 157.835 86.1943 150.812 85.568C149.078 85.4134 146.339 85.6288 144.662 86.0516ZM144.96 89.4446C141.751 90.342 139.145 92.6062 137.681 95.7684C136.695 97.8974 136.628 100.131 136.616 130.939C136.607 155.315 136.422 164.442 135.904 166.176C135.422 167.784 133.913 169.84 131.073 172.756C124.263 179.748 120.69 188.038 120.69 196.846C120.69 207.183 127.826 218.122 137.74 222.982C142.958 225.54 147.483 226.431 153.085 226.005C170.485 224.679 182.02 209.799 179.284 192.205C178.306 185.915 175.995 181.871 170.133 176.187C167.391 173.53 164.8 170.717 164.374 169.936C163.752 168.795 163.543 161.451 163.315 132.668L163.031 96.8204L161.465 94.4556C158.533 90.0265 151.029 87.7481 144.96 89.4446ZM84.885 94.9159C84.2598 95.5411 83.7483 96.6919 83.7483 97.4734C83.7483 98.2548 84.2598 99.4057 84.885 100.031C85.9739 101.12 86.7792 101.168 104.168 101.168C124.301 101.168 124.1 101.204 124.1 97.4734C124.1 93.7423 124.301 93.7792 104.168 93.7792C86.7792 93.7792 85.9739 93.827 84.885 94.9159ZM176.665 94.5652C175.944 95.0932 175.591 96.0474 175.591 97.4734C175.591 101.171 175.573 101.168 195.71 101.168C215.846 101.168 215.829 101.171 215.829 97.4734C215.829 93.7758 215.846 93.7792 195.71 93.7792C181.31 93.7792 177.527 93.9355 176.665 94.5652ZM98.0703 108.101C97.6952 108.476 97.3883 109.832 97.3883 111.113C97.3883 112.395 97.6952 113.75 98.0703 114.126C99.0359 115.091 122.452 115.091 123.418 114.126C123.793 113.75 124.1 112.395 124.1 111.113C124.1 109.832 123.793 108.476 123.418 108.101C122.452 107.136 99.0359 107.136 98.0703 108.101ZM176.342 108.325C175.929 108.823 175.591 110.078 175.591 111.113C175.591 114.756 175.779 114.808 189.13 114.808C197.734 114.808 201.36 114.613 201.848 114.126C202.685 113.288 202.74 110.01 201.941 108.518C201.388 107.485 200.634 107.419 189.223 107.419C178.819 107.419 176.987 107.548 176.342 108.325ZM147.726 112.859C146.705 113.88 146.626 114.488 147.336 115.84C147.612 116.366 147.945 131.179 148.074 148.758L148.31 180.72L145.336 181.584C137.137 183.968 131.866 192.66 133.686 200.793C134.574 204.761 137.171 208.704 140.326 210.876C150.156 217.638 163.066 212.703 165.933 201.088C166.683 198.048 166.728 196.843 166.19 194.252C164.951 188.282 160.945 183.76 155.169 181.809L152.232 180.817L151.876 174.95C151.222 164.196 151.326 117.252 152.007 115.759C153.326 112.864 149.985 110.601 147.726 112.859ZM84.885 122.196C84.2598 122.821 83.7483 123.972 83.7483 124.753C83.7483 125.535 84.2598 126.686 84.885 127.311C85.9739 128.4 86.7792 128.447 103.962 128.447C115.241 128.447 122.31 128.229 123.001 127.859C123.799 127.432 124.1 126.664 124.1 125.058C124.1 120.978 124.505 121.059 104.168 121.059C86.7792 121.059 85.9739 121.107 84.885 122.196ZM176.665 121.845C175.944 122.373 175.591 123.327 175.591 124.753C175.591 128.451 175.573 128.447 195.71 128.447C215.846 128.447 215.829 128.451 215.829 124.753C215.829 121.056 215.846 121.059 195.71 121.059C181.31 121.059 177.527 121.215 176.665 121.845ZM98.3829 135.313C97.207 135.998 96.9853 140.321 98.0703 141.405C99.0359 142.371 122.452 142.371 123.418 141.405C123.793 141.03 124.1 139.675 124.1 138.393C124.1 137.112 123.793 135.756 123.418 135.381C122.547 134.51 99.8674 134.448 98.3829 135.313ZM176.342 135.604C175.929 136.103 175.591 137.358 175.591 138.393C175.591 142.036 175.779 142.087 189.13 142.087C197.734 142.087 201.36 141.893 201.848 141.405C202.826 140.427 202.689 136.645 201.637 135.592C200.292 134.247 177.459 134.259 176.342 135.604ZM84.3365 150.007C83.5085 151.554 83.6045 152.996 84.6332 154.464C85.5158 155.725 85.555 155.727 103.709 155.727C115.163 155.727 122.309 155.51 123.001 155.139C123.755 154.736 124.1 153.947 124.1 152.628C124.1 148.657 125.441 148.907 104.167 148.907C85.7244 148.907 84.9003 148.953 84.3365 150.007ZM175.803 150.367C175.098 152.223 175.647 154.459 176.983 155.174C177.59 155.499 185.321 155.727 195.71 155.727C206.099 155.727 213.83 155.499 214.437 155.174C215.772 154.459 216.321 152.223 215.616 150.367L215.061 148.907H195.71H176.358L175.803 150.367ZM145.631 184.894C142.47 186.076 140.156 187.96 138.597 190.621C133.405 199.48 139.698 210.481 149.959 210.481C157.38 210.481 162.907 204.964 162.965 197.5C163.005 192.334 160.311 187.832 155.774 185.486C153.392 184.254 148.157 183.949 145.631 184.894Z" fill="#6BA03A"/>
</svg>
