<svg width="300" height="403" viewBox="0 0 300 403" fill="none" xmlns="http://www.w3.org/2000/svg">
<path d="M4.08324 0.992379C3.09093 1.42431 1.81218 2.48993 1.24158 3.36062C0.243585 4.88432 0.198118 12.0521 0.0378487 193.087C-0.074681 320.51 0.0594441 381.883 0.454435 383.253C0.775542 384.366 1.70192 385.9 2.5135 386.663L3.98889 388.05L25.1138 388.334L46.2393 388.618L253.965 388.334H275.05H296.135L298.067 386.402L300 384.469V194.845C300 29.9523 299.892 5.01276 299.172 3.62148C298.717 2.7417 297.464 1.60334 296.387 1.09241C294.59 0.239909 282.539 0.164889 150.158 0.185349C28.7363 0.204103 5.60182 0.331977 4.08324 0.992379Z" fill="#92C154"/>
<path d="M47.4718 399.152C46.5823 397.694 46.3243 396.281 46.3226 392.866L46.3203 388.462H150.041H253.762L253.76 392.582C253.76 397.616 252.6 400.267 249.783 401.674C247.913 402.609 241.974 402.668 150.165 402.669C42.7051 402.67 49.7638 402.912 47.4718 399.152Z" fill="#6BA03A"/>
<path fill-rule="evenodd" clip-rule="evenodd" d="M66.5654 73.841L64.7092 75.4994L64.5648 156.391C64.429 232.537 64.479 237.4 65.4173 239.264C65.9658 240.354 67.0536 241.565 67.835 241.955C68.9512 242.513 86.5724 242.667 149.959 242.672C228.896 242.678 230.702 242.654 232.475 241.573C233.692 240.831 234.484 239.759 234.887 238.307C235.295 236.839 235.488 210.796 235.49 156.988C235.493 71.6541 235.617 75.2334 232.585 73.1096C231.377 72.2633 224.196 72.1826 149.841 72.1826H68.4215L66.5654 73.841ZM68.4232 76.6918C68.026 77.4346 67.835 103.685 67.835 157.639C67.835 229.47 67.9248 237.576 68.7279 238.379C69.5315 239.182 77.6825 239.272 149.959 239.272C222.235 239.272 230.387 239.182 231.19 238.379C231.993 237.576 232.083 229.47 232.083 157.639C232.083 103.685 231.892 77.4346 231.495 76.6918C230.917 75.6131 229.408 75.5926 149.959 75.5926C70.5102 75.5926 69.0007 75.6131 68.4232 76.6918ZM144.662 86.0516C140.579 87.0814 137.31 89.581 135.216 93.2717L133.477 96.3367L133.193 130.721C132.876 169.117 133.132 166.832 128.756 170.348C125.372 173.067 120.971 180.025 119.207 185.443C114.977 198.434 117.802 209.713 127.78 219.668C134.188 226.061 140.035 228.764 148.822 229.396C163.615 230.46 176.924 221.497 181.558 207.348C182.662 203.977 182.915 202.045 182.887 197.216C182.826 186.781 179.987 180.567 171.967 173.312C170.046 171.573 168.082 169.399 167.603 168.481C166.848 167.033 166.731 162.175 166.728 132.111L166.725 97.4126L165.254 94.4607C162.595 89.1257 157.835 86.1943 150.812 85.568C149.078 85.4134 146.339 85.6288 144.662 86.0516ZM144.96 89.4446C141.751 90.342 139.145 92.6062 137.681 95.7684C136.695 97.8974 136.628 100.131 136.616 130.939C136.607 155.315 136.422 164.442 135.904 166.176C135.422 167.784 133.913 169.84 131.073 172.756C124.263 179.748 120.69 188.038 120.69 196.846C120.69 207.183 127.826 218.122 137.74 222.982C142.958 225.54 147.483 226.431 153.085 226.005C170.485 224.679 182.02 209.799 179.284 192.205C178.306 185.915 175.995 181.871 170.133 176.187C167.391 173.53 164.8 170.717 164.374 169.936C163.752 168.795 163.543 161.451 163.315 132.668L163.031 96.8204L161.465 94.4556C158.533 90.0265 151.029 87.7481 144.96 89.4446ZM84.885 94.9159C84.2598 95.5411 83.7483 96.6919 83.7483 97.4734C83.7483 98.2548 84.2598 99.4057 84.885 100.031C85.9739 101.12 86.7792 101.168 104.168 101.168C124.301 101.168 124.1 101.204 124.1 97.4734C124.1 93.7423 124.301 93.7792 104.168 93.7792C86.7792 93.7792 85.9739 93.827 84.885 94.9159ZM176.665 94.5652C175.944 95.0932 175.591 96.0474 175.591 97.4734C175.591 101.171 175.573 101.168 195.71 101.168C215.846 101.168 215.829 101.171 215.829 97.4734C215.829 93.7758 215.846 93.7792 195.71 93.7792C181.31 93.7792 177.527 93.9355 176.665 94.5652ZM98.0703 108.101C97.6952 108.476 97.3883 109.832 97.3883 111.113C97.3883 112.395 97.6952 113.75 98.0703 114.126C99.0359 115.091 122.452 115.091 123.418 114.126C123.793 113.75 124.1 112.395 124.1 111.113C124.1 109.832 123.793 108.476 123.418 108.101C122.452 107.136 99.0359 107.136 98.0703 108.101ZM176.342 108.325C175.929 108.823 175.591 110.078 175.591 111.113C175.591 114.756 175.779 114.808 189.13 114.808C197.734 114.808 201.36 114.613 201.848 114.126C202.685 113.288 202.74 110.01 201.941 108.518C201.388 107.485 200.634 107.419 189.223 107.419C178.819 107.419 176.987 107.548 176.342 108.325ZM147.726 112.859C146.705 113.88 146.626 114.488 147.336 115.84C147.612 116.366 147.945 131.179 148.074 148.758L148.31 180.72L145.336 181.584C137.137 183.968 131.866 192.66 133.686 200.793C134.574 204.761 137.171 208.704 140.326 210.876C150.156 217.638 163.066 212.703 165.933 201.088C166.683 198.048 166.728 196.843 166.19 194.252C164.951 188.282 160.945 183.76 155.169 181.809L152.232 180.817L151.876 174.95C151.222 164.196 151.326 117.252 152.007 115.759C153.326 112.864 149.985 110.601 147.726 112.859ZM84.885 122.196C84.2598 122.821 83.7483 123.972 83.7483 124.753C83.7483 125.535 84.2598 126.686 84.885 127.311C85.9739 128.4 86.7792 128.447 103.962 128.447C115.241 128.447 122.31 128.229 123.001 127.859C123.799 127.432 124.1 126.664 124.1 125.058C124.1 120.978 124.505 121.059 104.168 121.059C86.7792 121.059 85.9739 121.107 84.885 122.196ZM176.665 121.845C175.944 122.373 175.591 123.327 175.591 124.753C175.591 128.451 175.573 128.447 195.71 128.447C215.846 128.447 215.829 128.451 215.829 124.753C215.829 121.056 215.846 121.059 195.71 121.059C181.31 121.059 177.527 121.215 176.665 121.845ZM98.3829 135.313C97.207 135.998 96.9853 140.321 98.0703 141.405C99.0359 142.371 122.452 142.371 123.418 141.405C123.793 141.03 124.1 139.675 124.1 138.393C124.1 137.112 123.793 135.756 123.418 135.381C122.547 134.51 99.8674 134.448 98.3829 135.313ZM176.342 135.604C175.929 136.103 175.591 137.358 175.591 138.393C175.591 142.036 175.779 142.087 189.13 142.087C197.734 142.087 201.36 141.893 201.848 141.405C202.826 140.427 202.689 136.645 201.637 135.592C200.292 134.247 177.459 134.259 176.342 135.604ZM84.3365 150.007C83.5085 151.554 83.6045 152.996 84.6332 154.464C85.5158 155.725 85.555 155.727 103.709 155.727C115.163 155.727 122.309 155.51 123.001 155.139C123.755 154.736 124.1 153.947 124.1 152.628C124.1 148.657 125.441 148.907 104.167 148.907C85.7244 148.907 84.9003 148.953 84.3365 150.007ZM175.803 150.367C175.098 152.223 175.647 154.459 176.983 155.174C177.59 155.499 185.321 155.727 195.71 155.727C206.099 155.727 213.83 155.499 214.437 155.174C215.772 154.459 216.321 152.223 215.616 150.367L215.061 148.907H195.71H176.358L175.803 150.367ZM145.631 184.894C142.47 186.076 140.156 187.96 138.597 190.621C133.405 199.48 139.698 210.481 149.959 210.481C157.38 210.481 162.907 204.964 162.965 197.5C163.005 192.334 160.311 187.832 155.774 185.486C153.392 184.254 148.157 183.949 145.631 184.894Z" fill="#6BA03A"/>
<path d="M89.1867 301.672C88.7467 301.672 88.3067 301.672 87.8667 301.672C87.4267 301.672 86.98 301.672 86.5267 301.672C86.46 301.672 86.4067 301.652 86.3667 301.612C86.3267 301.572 86.3067 301.519 86.3067 301.452C86.3067 300.372 86.3067 299.332 86.3067 298.332C86.3067 297.319 86.3067 296.312 86.3067 295.312C86.3067 294.312 86.3067 293.306 86.3067 292.292C86.3067 291.266 86.3067 290.226 86.3067 289.172H89.4067L89.1867 289.712C89.1867 290.072 89.1867 290.412 89.1867 290.732C89.1867 291.039 89.1867 291.359 89.1867 291.692C89.1867 292.559 89.1867 293.432 89.1867 294.312C89.1867 295.179 89.1867 296.059 89.1867 296.952C89.1867 297.832 89.1867 298.752 89.1867 299.712C89.1867 300.072 89.1867 300.419 89.1867 300.752C89.1867 301.086 89.1867 301.392 89.1867 301.672ZM85.3267 287.672C86.2333 287.672 87.1933 287.672 88.2067 287.672C89.22 287.672 90.1333 287.672 90.9467 287.672C91.6 287.672 92.18 287.732 92.6867 287.852C93.1933 287.972 93.6267 288.152 93.9867 288.392C94.36 288.619 94.66 288.906 94.8867 289.252C95.1267 289.586 95.3067 289.979 95.4267 290.432C95.5467 290.872 95.6067 291.366 95.6067 291.912V293.132C95.6067 293.799 95.52 294.399 95.3467 294.932C95.1733 295.452 94.9 295.899 94.5267 296.272C94.1667 296.632 93.6867 296.912 93.0867 297.112C92.5 297.299 91.7933 297.392 90.9667 297.392C90.62 297.392 90.2667 297.392 89.9067 297.392C89.5467 297.392 89.1867 297.392 88.8267 297.392L88.6067 297.472V294.952C89.0467 294.952 89.4733 294.952 89.8867 294.952C90.3 294.952 90.66 294.952 90.9667 294.952C91.26 294.952 91.5133 294.919 91.7267 294.852C91.9533 294.786 92.14 294.686 92.2867 294.552C92.4333 294.419 92.54 294.246 92.6067 294.032C92.6733 293.819 92.7067 293.552 92.7067 293.232V291.772C92.7067 291.466 92.6733 291.212 92.6067 291.012C92.5533 290.799 92.46 290.626 92.3267 290.492C92.1933 290.346 92.0133 290.246 91.7867 290.192C91.56 290.126 91.2867 290.092 90.9667 290.092C90.38 290.092 89.78 290.092 89.1667 290.092C88.5533 290.092 87.94 290.092 87.3267 290.092C86.7133 290.092 86.12 290.092 85.5467 290.092C85.48 290.092 85.4267 290.072 85.3867 290.032C85.3467 289.992 85.3267 289.939 85.3267 289.872C85.3267 289.486 85.3267 289.119 85.3267 288.772C85.3267 288.426 85.3267 288.059 85.3267 287.672ZM100.739 292.832H101.539C101.699 292.339 101.886 291.939 102.099 291.632C102.312 291.312 102.572 291.079 102.879 290.932C103.199 290.786 103.559 290.712 103.959 290.712C104.172 290.712 104.346 290.732 104.479 290.772C104.626 290.812 104.726 290.852 104.779 290.892C104.832 290.932 104.866 290.972 104.879 291.012C104.892 291.039 104.899 291.086 104.899 291.152C104.899 291.366 104.899 291.579 104.899 291.792C104.899 291.992 104.899 292.192 104.899 292.392C104.899 292.592 104.899 292.799 104.899 293.012C104.899 293.212 104.899 293.419 104.899 293.632H104.519C104.386 293.592 104.239 293.559 104.079 293.532C103.919 293.506 103.739 293.492 103.539 293.492C103.126 293.492 102.759 293.572 102.439 293.732C102.132 293.892 101.846 294.119 101.579 294.412C101.312 294.692 101.032 295.026 100.739 295.412V292.832ZM101.119 301.672C100.826 301.672 100.526 301.672 100.219 301.672C99.9255 301.672 99.6322 301.672 99.3389 301.672C99.0455 301.672 98.7522 301.672 98.4589 301.672C98.4189 301.672 98.3855 301.672 98.3589 301.672C98.3322 301.659 98.3055 301.646 98.2789 301.632C98.2655 301.606 98.2522 301.579 98.2389 301.552C98.2389 301.526 98.2389 301.492 98.2389 301.452C98.2389 300.959 98.2389 300.439 98.2389 299.892C98.2389 299.332 98.2389 298.759 98.2389 298.172C98.2389 297.586 98.2389 296.999 98.2389 296.412C98.2389 295.812 98.2389 295.219 98.2389 294.632C98.2389 294.032 98.2389 293.446 98.2389 292.872C98.2389 292.499 98.2389 292.146 98.2389 291.812C98.2389 291.479 98.2389 291.179 98.2389 290.912C98.5722 290.912 98.8855 290.912 99.1789 290.912C99.4855 290.912 99.7789 290.912 100.059 290.912C100.352 290.912 100.632 290.912 100.899 290.912C100.952 290.912 100.992 290.926 101.019 290.952C101.046 290.966 101.066 290.986 101.079 291.012C101.106 291.039 101.119 291.079 101.119 291.132C101.119 291.746 101.119 292.392 101.119 293.072C101.119 293.752 101.119 294.446 101.119 295.152C101.119 295.859 101.119 296.586 101.119 297.332C101.119 298.066 101.119 298.799 101.119 299.532C101.119 300.252 101.119 300.966 101.119 301.672ZM111.527 290.672C112.247 290.672 112.901 290.786 113.487 291.012C114.087 291.239 114.601 291.559 115.027 291.972C115.454 292.372 115.781 292.852 116.007 293.412C116.247 293.972 116.367 294.592 116.367 295.272V297.292C116.367 298.199 116.161 298.999 115.747 299.692C115.347 300.386 114.781 300.932 114.047 301.332C113.327 301.719 112.487 301.912 111.527 301.912C110.807 301.912 110.147 301.799 109.547 301.572C108.961 301.346 108.454 301.032 108.027 300.632C107.601 300.219 107.267 299.732 107.027 299.172C106.801 298.612 106.687 297.992 106.687 297.312V295.292C106.687 294.386 106.887 293.586 107.287 292.892C107.701 292.199 108.274 291.659 109.007 291.272C109.741 290.872 110.581 290.672 111.527 290.672ZM111.547 293.132C111.094 293.132 110.707 293.226 110.387 293.412C110.067 293.586 109.821 293.846 109.647 294.192C109.474 294.526 109.387 294.932 109.387 295.412V297.172C109.387 297.546 109.441 297.879 109.547 298.172C109.654 298.452 109.801 298.699 109.987 298.912C110.161 299.086 110.374 299.219 110.627 299.312C110.894 299.406 111.187 299.452 111.507 299.452C111.961 299.452 112.347 299.366 112.667 299.192C113.001 299.006 113.247 298.739 113.407 298.392C113.581 298.046 113.667 297.639 113.667 297.172V295.412C113.667 294.999 113.621 294.652 113.527 294.372C113.434 294.079 113.294 293.839 113.107 293.652C112.934 293.466 112.714 293.332 112.447 293.252C112.194 293.172 111.894 293.132 111.547 293.132ZM122.72 290.912C122.773 290.912 122.813 290.926 122.84 290.952C122.866 290.966 122.886 290.986 122.9 291.012C122.926 291.039 122.94 291.079 122.94 291.132C122.94 291.812 122.94 292.486 122.94 293.152C122.94 293.819 122.94 294.492 122.94 295.172C122.94 295.839 122.94 296.526 122.94 297.232C122.94 297.939 122.94 298.666 122.94 299.412C122.94 300.159 122.94 300.946 122.94 301.772C122.94 302.492 122.873 303.106 122.74 303.612C122.62 304.119 122.433 304.519 122.18 304.812C121.926 305.119 121.606 305.339 121.22 305.472C120.846 305.606 120.406 305.672 119.9 305.672C119.46 305.672 119.08 305.652 118.76 305.612C118.44 305.572 118.18 305.512 117.98 305.432C117.78 305.352 117.626 305.266 117.52 305.172C117.506 305.146 117.493 305.119 117.48 305.092C117.466 305.066 117.46 305.039 117.46 305.012C117.46 304.599 117.46 304.159 117.46 303.692C117.46 303.239 117.46 302.806 117.46 302.392H117.84C118.013 302.486 118.166 302.559 118.3 302.612C118.446 302.679 118.586 302.719 118.72 302.732C118.853 302.759 119 302.772 119.16 302.772C119.346 302.772 119.5 302.746 119.62 302.692C119.753 302.652 119.866 302.592 119.96 302.512C120.013 302.446 120.06 302.372 120.1 302.292C120.14 302.212 120.166 302.119 120.18 302.012C120.206 301.919 120.22 301.806 120.22 301.672C120.22 300.792 120.22 299.992 120.22 299.272C120.22 298.539 120.22 297.852 120.22 297.212C120.22 296.572 120.22 295.952 120.22 295.352C120.22 294.739 120.22 294.112 120.22 293.472H120.1C120.033 293.472 119.94 293.472 119.82 293.472C119.7 293.472 119.573 293.472 119.44 293.472C119.306 293.472 119.173 293.472 119.04 293.472C118.906 293.472 118.786 293.472 118.68 293.472C118.613 293.472 118.56 293.452 118.52 293.412C118.48 293.372 118.46 293.319 118.46 293.252C118.46 292.866 118.46 292.479 118.46 292.092C118.46 291.706 118.46 291.312 118.46 290.912C118.926 290.912 119.36 290.912 119.76 290.912C120.16 290.912 120.533 290.912 120.88 290.912C121.226 290.912 121.553 290.912 121.86 290.912C122.166 290.912 122.453 290.912 122.72 290.912ZM119.8 285.792C120.053 285.792 120.313 285.792 120.58 285.792C120.86 285.792 121.14 285.792 121.42 285.792C121.713 285.792 121.993 285.792 122.26 285.792C122.54 285.792 122.806 285.792 123.06 285.792C123.126 285.792 123.18 285.812 123.22 285.852C123.26 285.892 123.28 285.946 123.28 286.012V288.592C123.026 288.592 122.76 288.592 122.48 288.592C122.213 288.592 121.933 288.592 121.64 288.592C121.36 288.592 121.08 288.592 120.8 288.592C120.533 288.592 120.273 288.592 120.02 288.592C119.953 288.592 119.9 288.572 119.86 288.532C119.82 288.492 119.8 288.439 119.8 288.372V285.792ZM130.552 290.672C131.458 290.672 132.245 290.859 132.912 291.232C133.592 291.606 134.118 292.126 134.492 292.792C134.865 293.459 135.052 294.239 135.052 295.132V296.792C135.052 296.832 135.045 296.872 135.032 296.912C135.018 296.939 134.992 296.959 134.952 296.972C134.925 296.986 134.892 296.992 134.852 296.992H130.252C130.025 296.992 129.792 296.992 129.552 296.992C129.325 296.992 129.098 296.992 128.872 296.992H128.052L127.992 295.312H132.432C132.432 295.259 132.432 295.212 132.432 295.172C132.432 295.132 132.432 295.086 132.432 295.032C132.432 294.646 132.392 294.319 132.312 294.052C132.232 293.772 132.105 293.552 131.932 293.392C131.785 293.232 131.598 293.119 131.372 293.052C131.145 292.986 130.872 292.952 130.552 292.952C129.885 292.952 129.385 293.119 129.052 293.452C128.732 293.772 128.572 294.299 128.572 295.032V297.472C128.572 297.792 128.612 298.079 128.692 298.332C128.785 298.572 128.912 298.779 129.072 298.952C129.285 299.166 129.565 299.319 129.912 299.412C130.272 299.506 130.685 299.552 131.152 299.552C131.632 299.552 132.058 299.532 132.432 299.492C132.805 299.439 133.152 299.372 133.472 299.292C133.792 299.199 134.105 299.099 134.412 298.992H134.792C134.792 299.326 134.792 299.666 134.792 300.012C134.792 300.346 134.792 300.686 134.792 301.032C134.792 301.059 134.785 301.086 134.772 301.112C134.758 301.139 134.738 301.166 134.712 301.192C134.605 301.299 134.365 301.406 133.992 301.512C133.632 301.619 133.192 301.712 132.672 301.792C132.165 301.872 131.645 301.912 131.112 301.912C130.245 301.912 129.478 301.812 128.812 301.612C128.158 301.399 127.612 301.099 127.172 300.712C126.745 300.326 126.418 299.859 126.192 299.312C125.978 298.752 125.872 298.126 125.872 297.432V295.152C125.872 294.472 125.978 293.859 126.192 293.312C126.418 292.766 126.738 292.299 127.152 291.912C127.565 291.512 128.058 291.206 128.632 290.992C129.205 290.779 129.845 290.672 130.552 290.672ZM142.744 290.672C143.237 290.672 143.671 290.706 144.044 290.772C144.417 290.826 144.717 290.899 144.944 290.992C145.184 291.072 145.344 291.152 145.424 291.232C145.451 291.246 145.464 291.272 145.464 291.312C145.477 291.339 145.484 291.372 145.484 291.412C145.484 291.786 145.484 292.166 145.484 292.552C145.484 292.939 145.484 293.326 145.484 293.712H145.104C144.744 293.552 144.371 293.432 143.984 293.352C143.597 293.272 143.177 293.232 142.724 293.232C142.284 293.232 141.891 293.319 141.544 293.492C141.197 293.652 140.931 293.912 140.744 294.272C140.557 294.632 140.464 295.099 140.464 295.672V296.932C140.464 297.359 140.517 297.732 140.624 298.052C140.731 298.359 140.897 298.612 141.124 298.812C141.311 298.999 141.537 299.139 141.804 299.232C142.071 299.312 142.377 299.352 142.724 299.352C143.031 299.352 143.317 299.339 143.584 299.312C143.851 299.272 144.111 299.219 144.364 299.152C144.617 299.086 144.864 298.999 145.104 298.892H145.484C145.484 299.279 145.484 299.666 145.484 300.052C145.484 300.439 145.484 300.826 145.484 301.212C145.484 301.239 145.477 301.266 145.464 301.292C145.464 301.319 145.451 301.346 145.424 301.372C145.357 301.439 145.204 301.519 144.964 301.612C144.737 301.692 144.431 301.759 144.044 301.812C143.671 301.879 143.237 301.912 142.744 301.912C141.944 301.912 141.231 301.806 140.604 301.592C139.977 301.379 139.444 301.066 139.004 300.652C138.564 300.226 138.231 299.712 138.004 299.112C137.777 298.512 137.664 297.832 137.664 297.072V295.632C137.664 294.646 137.877 293.786 138.304 293.052C138.731 292.306 139.324 291.726 140.084 291.312C140.844 290.886 141.731 290.672 142.744 290.672ZM147.324 290.912H155.044C155.124 290.912 155.184 290.932 155.224 290.972C155.264 291.012 155.284 291.066 155.284 291.132C155.284 291.412 155.284 291.672 155.284 291.912C155.284 292.152 155.284 292.399 155.284 292.652C155.284 292.906 155.284 293.166 155.284 293.432H147.564C147.537 293.432 147.511 293.426 147.484 293.412C147.457 293.399 147.431 293.386 147.404 293.372C147.377 293.346 147.357 293.319 147.344 293.292C147.331 293.266 147.324 293.239 147.324 293.212C147.324 292.946 147.324 292.686 147.324 292.432C147.324 292.179 147.324 291.932 147.324 291.692C147.324 291.452 147.324 291.192 147.324 290.912ZM155.284 299.092C155.284 299.492 155.284 299.892 155.284 300.292C155.284 300.679 155.284 301.066 155.284 301.452C155.284 301.506 155.264 301.559 155.224 301.612C155.184 301.652 155.131 301.672 155.064 301.672C154.931 301.672 154.791 301.672 154.644 301.672C154.511 301.672 154.371 301.672 154.224 301.672C154.091 301.672 153.957 301.672 153.824 301.672C153.691 301.672 153.551 301.672 153.404 301.672C152.711 301.672 152.091 301.592 151.544 301.432C150.997 301.259 150.531 300.999 150.144 300.652C149.757 300.306 149.464 299.859 149.264 299.312C149.064 298.766 148.964 298.119 148.964 297.372C148.964 296.719 148.964 296.072 148.964 295.432C148.964 294.792 148.964 294.152 148.964 293.512C148.964 292.872 148.964 292.232 148.964 291.592C148.964 290.952 148.964 290.312 148.964 289.672C148.964 289.326 148.964 288.992 148.964 288.672C148.964 288.339 148.964 288.006 148.964 287.672C149.377 287.672 149.791 287.672 150.204 287.672C150.631 287.672 151.044 287.672 151.444 287.672C151.484 287.672 151.517 287.686 151.544 287.712C151.584 287.726 151.611 287.752 151.624 287.792C151.651 287.819 151.664 287.852 151.664 287.892C151.664 288.666 151.664 289.439 151.664 290.212C151.664 290.972 151.664 291.739 151.664 292.512C151.664 293.286 151.664 294.059 151.664 294.832C151.664 295.592 151.664 296.359 151.664 297.132C151.664 297.532 151.704 297.859 151.784 298.112C151.864 298.366 151.984 298.572 152.144 298.732C152.291 298.866 152.471 298.959 152.684 299.012C152.911 299.066 153.184 299.092 153.504 299.092C153.677 299.092 153.844 299.092 154.004 299.092C154.177 299.092 154.351 299.092 154.524 299.092C154.697 299.092 154.871 299.092 155.044 299.092H155.284ZM162.504 290.672C163.224 290.672 163.877 290.786 164.464 291.012C165.064 291.239 165.577 291.559 166.004 291.972C166.431 292.372 166.757 292.852 166.984 293.412C167.224 293.972 167.344 294.592 167.344 295.272V297.292C167.344 298.199 167.137 298.999 166.724 299.692C166.324 300.386 165.757 300.932 165.024 301.332C164.304 301.719 163.464 301.912 162.504 301.912C161.784 301.912 161.124 301.799 160.524 301.572C159.937 301.346 159.431 301.032 159.004 300.632C158.577 300.219 158.244 299.732 158.004 299.172C157.777 298.612 157.664 297.992 157.664 297.312V295.292C157.664 294.386 157.864 293.586 158.264 292.892C158.677 292.199 159.251 291.659 159.984 291.272C160.717 290.872 161.557 290.672 162.504 290.672ZM162.524 293.132C162.071 293.132 161.684 293.226 161.364 293.412C161.044 293.586 160.797 293.846 160.624 294.192C160.451 294.526 160.364 294.932 160.364 295.412V297.172C160.364 297.546 160.417 297.879 160.524 298.172C160.631 298.452 160.777 298.699 160.964 298.912C161.137 299.086 161.351 299.219 161.604 299.312C161.871 299.406 162.164 299.452 162.484 299.452C162.937 299.452 163.324 299.366 163.644 299.192C163.977 299.006 164.224 298.739 164.384 298.392C164.557 298.046 164.644 297.639 164.644 297.172V295.412C164.644 294.999 164.597 294.652 164.504 294.372C164.411 294.079 164.271 293.839 164.084 293.652C163.911 293.466 163.691 293.332 163.424 293.252C163.171 293.172 162.871 293.132 162.524 293.132ZM173.661 299.252C174.461 299.252 175.008 299.166 175.301 298.992C175.594 298.806 175.741 298.592 175.741 298.352C175.741 298.206 175.701 298.072 175.621 297.952C175.554 297.832 175.428 297.732 175.241 297.652C175.068 297.559 174.814 297.486 174.481 297.432L172.421 297.132C171.781 297.026 171.248 296.846 170.821 296.592C170.394 296.326 170.074 295.992 169.861 295.592C169.661 295.192 169.561 294.746 169.561 294.252C169.561 293.692 169.668 293.199 169.881 292.772C170.108 292.332 170.434 291.959 170.861 291.652C171.288 291.346 171.814 291.112 172.441 290.952C173.068 290.792 173.781 290.712 174.581 290.712C175.008 290.712 175.401 290.732 175.761 290.772C176.121 290.799 176.448 290.839 176.741 290.892C177.034 290.946 177.294 291.006 177.521 291.072C177.614 291.099 177.681 291.132 177.721 291.172C177.774 291.199 177.801 291.239 177.801 291.292C177.814 291.346 177.821 291.426 177.821 291.532C177.821 291.812 177.821 292.166 177.821 292.592C177.821 293.006 177.821 293.392 177.821 293.752H177.461C177.101 293.659 176.754 293.579 176.421 293.512C176.088 293.446 175.748 293.399 175.401 293.372C175.054 293.346 174.688 293.332 174.301 293.332C173.768 293.332 173.348 293.372 173.041 293.452C172.748 293.519 172.541 293.612 172.421 293.732C172.301 293.852 172.241 293.992 172.241 294.152C172.241 294.299 172.274 294.432 172.341 294.552C172.421 294.659 172.548 294.746 172.721 294.812C172.894 294.879 173.134 294.939 173.441 294.992L175.321 295.272C175.974 295.352 176.528 295.526 176.981 295.792C177.434 296.046 177.781 296.386 178.021 296.812C178.274 297.226 178.401 297.726 178.401 298.312C178.401 299.032 178.214 299.659 177.841 300.192C177.481 300.726 176.948 301.139 176.241 301.432C175.534 301.726 174.668 301.872 173.641 301.872C173.161 301.872 172.714 301.852 172.301 301.812C171.888 301.786 171.501 301.739 171.141 301.672C170.794 301.619 170.481 301.552 170.201 301.472C169.921 301.392 169.681 301.306 169.481 301.212C169.401 301.186 169.348 301.152 169.321 301.112C169.308 301.072 169.301 300.999 169.301 300.892C169.301 300.586 169.301 300.219 169.301 299.792C169.301 299.366 169.301 298.952 169.301 298.552H169.661C169.981 298.686 170.288 298.799 170.581 298.892C170.888 298.972 171.194 299.039 171.501 299.092C171.821 299.146 172.154 299.186 172.501 299.212C172.861 299.239 173.248 299.252 173.661 299.252ZM189.773 290.672C190.24 290.672 190.653 290.746 191.013 290.892C191.373 291.026 191.693 291.219 191.973 291.472C192.253 291.726 192.493 292.032 192.693 292.392H193.373V294.772C192.973 294.279 192.54 293.912 192.073 293.672C191.606 293.419 191.14 293.292 190.673 293.292C190.353 293.292 190.08 293.359 189.853 293.492C189.626 293.626 189.453 293.826 189.333 294.092C189.213 294.346 189.153 294.659 189.153 295.032V297.532C189.153 297.852 189.186 298.126 189.253 298.352C189.333 298.579 189.44 298.752 189.573 298.872C189.693 299.006 189.846 299.106 190.033 299.172C190.22 299.226 190.433 299.252 190.673 299.252C190.98 299.252 191.286 299.206 191.593 299.112C191.9 299.006 192.2 298.839 192.493 298.612C192.8 298.386 193.093 298.092 193.373 297.732V300.112H192.693C192.48 300.472 192.22 300.786 191.913 301.052C191.62 301.319 191.293 301.526 190.933 301.672C190.573 301.806 190.186 301.872 189.773 301.872C189.266 301.872 188.806 301.786 188.393 301.612C187.993 301.439 187.646 301.186 187.353 300.852C187.073 300.519 186.853 300.112 186.693 299.632C186.533 299.152 186.453 298.606 186.453 297.992V294.592C186.453 293.979 186.533 293.432 186.693 292.952C186.853 292.459 187.073 292.046 187.353 291.712C187.646 291.379 188 291.126 188.413 290.952C188.826 290.766 189.28 290.672 189.773 290.672ZM195.553 286.672C195.606 286.672 195.646 286.686 195.673 286.712C195.7 286.726 195.72 286.746 195.733 286.772C195.76 286.799 195.773 286.839 195.773 286.892C195.773 287.879 195.773 288.879 195.773 289.892C195.773 290.892 195.773 291.899 195.773 292.912C195.773 293.912 195.773 294.906 195.773 295.892C195.773 296.879 195.773 297.859 195.773 298.832C195.773 299.326 195.773 299.806 195.773 300.272C195.773 300.739 195.773 301.206 195.773 301.672C195.573 301.672 195.366 301.672 195.153 301.672C194.953 301.672 194.746 301.672 194.533 301.672C194.32 301.672 194.106 301.672 193.893 301.672C193.693 301.672 193.493 301.672 193.293 301.672C193.253 301.672 193.213 301.666 193.173 301.652C193.146 301.626 193.12 301.599 193.093 301.572C193.08 301.546 193.073 301.506 193.073 301.452C193.073 300.386 193.073 299.319 193.073 298.252C193.073 297.186 193.073 296.126 193.073 295.072C193.073 294.006 193.073 292.939 193.073 291.872C193.073 290.806 193.073 289.739 193.073 288.672C193.073 288.339 193.073 288.006 193.073 287.672C193.073 287.339 193.073 287.006 193.073 286.672C193.273 286.672 193.473 286.672 193.673 286.672C193.886 286.672 194.1 286.672 194.313 286.672C194.526 286.672 194.733 286.672 194.933 286.672C195.146 286.672 195.353 286.672 195.553 286.672ZM203.325 290.672C204.232 290.672 205.019 290.859 205.685 291.232C206.365 291.606 206.892 292.126 207.265 292.792C207.639 293.459 207.825 294.239 207.825 295.132V296.792C207.825 296.832 207.819 296.872 207.805 296.912C207.792 296.939 207.765 296.959 207.725 296.972C207.699 296.986 207.665 296.992 207.625 296.992H203.025C202.799 296.992 202.565 296.992 202.325 296.992C202.099 296.992 201.872 296.992 201.645 296.992H200.825L200.765 295.312H205.205C205.205 295.259 205.205 295.212 205.205 295.172C205.205 295.132 205.205 295.086 205.205 295.032C205.205 294.646 205.165 294.319 205.085 294.052C205.005 293.772 204.879 293.552 204.705 293.392C204.559 293.232 204.372 293.119 204.145 293.052C203.919 292.986 203.645 292.952 203.325 292.952C202.659 292.952 202.159 293.119 201.825 293.452C201.505 293.772 201.345 294.299 201.345 295.032V297.472C201.345 297.792 201.385 298.079 201.465 298.332C201.559 298.572 201.685 298.779 201.845 298.952C202.059 299.166 202.339 299.319 202.685 299.412C203.045 299.506 203.459 299.552 203.925 299.552C204.405 299.552 204.832 299.532 205.205 299.492C205.579 299.439 205.925 299.372 206.245 299.292C206.565 299.199 206.879 299.099 207.185 298.992H207.565C207.565 299.326 207.565 299.666 207.565 300.012C207.565 300.346 207.565 300.686 207.565 301.032C207.565 301.059 207.559 301.086 207.545 301.112C207.532 301.139 207.512 301.166 207.485 301.192C207.379 301.299 207.139 301.406 206.765 301.512C206.405 301.619 205.965 301.712 205.445 301.792C204.939 301.872 204.419 301.912 203.885 301.912C203.019 301.912 202.252 301.812 201.585 301.612C200.932 301.399 200.385 301.099 199.945 300.712C199.519 300.326 199.192 299.859 198.965 299.312C198.752 298.752 198.645 298.126 198.645 297.432V295.152C198.645 294.472 198.752 293.859 198.965 293.312C199.192 292.766 199.512 292.299 199.925 291.912C200.339 291.512 200.832 291.206 201.405 290.992C201.979 290.779 202.619 290.672 203.325 290.672ZM35.6775 326.072C34.7175 326.072 33.8775 325.946 33.1575 325.692C32.4375 325.452 31.8375 325.099 31.3575 324.632C30.8775 324.166 30.5175 323.592 30.2775 322.912C30.0509 322.232 29.9375 321.459 29.9375 320.592V316.552C29.9375 315.766 30.0575 315.052 30.2975 314.412C30.5375 313.759 30.8909 313.199 31.3575 312.732C31.8375 312.266 32.4175 311.906 33.0975 311.652C33.7909 311.399 34.5775 311.272 35.4575 311.272C36.1375 311.272 36.7442 311.339 37.2775 311.472C37.8242 311.592 38.2842 311.752 38.6575 311.952C39.0442 312.139 39.3442 312.339 39.5575 312.552C39.5842 312.579 39.6042 312.612 39.6175 312.652C39.6309 312.692 39.6375 312.732 39.6375 312.772C39.6509 312.812 39.6575 312.852 39.6575 312.892C39.6575 313.386 39.6575 313.952 39.6575 314.592C39.6575 315.219 39.6575 315.819 39.6575 316.392C39.2709 316.392 38.8842 316.392 38.4975 316.392C38.1109 316.392 37.7242 316.392 37.3375 316.392C37.2709 316.392 37.2175 316.372 37.1775 316.332C37.1375 316.292 37.1175 316.239 37.1175 316.172C37.1175 315.932 37.1175 315.692 37.1175 315.452C37.1175 315.212 37.1175 314.946 37.1175 314.652C37.1175 314.346 37.1175 313.992 37.1175 313.592L37.6775 314.432C37.3442 314.219 36.9975 314.072 36.6375 313.992C36.2775 313.899 35.8709 313.852 35.4175 313.852C34.8842 313.852 34.4175 313.952 34.0175 314.152C33.6309 314.339 33.3309 314.639 33.1175 315.052C32.9175 315.466 32.8175 315.992 32.8175 316.632V320.372C32.8175 320.972 32.8709 321.479 32.9775 321.892C33.0975 322.292 33.2909 322.626 33.5575 322.892C33.7975 323.132 34.0975 323.306 34.4575 323.412C34.8309 323.506 35.2442 323.552 35.6975 323.552C36.4309 323.552 37.0775 323.466 37.6375 323.292C38.1975 323.119 38.7842 322.839 39.3975 322.452H39.7775C39.7775 322.639 39.7775 322.826 39.7775 323.012C39.7775 323.186 39.7775 323.366 39.7775 323.552C39.7775 323.726 39.7775 323.906 39.7775 324.092C39.7775 324.266 39.7775 324.452 39.7775 324.652C39.7775 324.719 39.7642 324.779 39.7375 324.832C39.7242 324.886 39.6975 324.926 39.6575 324.952C39.4709 325.152 39.1842 325.339 38.7975 325.512C38.4109 325.672 37.9509 325.806 37.4175 325.912C36.8842 326.019 36.3042 326.072 35.6775 326.072ZM46.8497 314.672C47.5697 314.672 48.223 314.786 48.8097 315.012C49.4097 315.239 49.923 315.559 50.3497 315.972C50.7764 316.372 51.1031 316.852 51.3297 317.412C51.5697 317.972 51.6897 318.592 51.6897 319.272V321.292C51.6897 322.199 51.4831 322.999 51.0697 323.692C50.6697 324.386 50.1031 324.932 49.3697 325.332C48.6497 325.719 47.8097 325.912 46.8497 325.912C46.1297 325.912 45.4697 325.799 44.8697 325.572C44.283 325.346 43.7764 325.032 43.3497 324.632C42.923 324.219 42.5897 323.732 42.3497 323.172C42.123 322.612 42.0097 321.992 42.0097 321.312V319.292C42.0097 318.386 42.2097 317.586 42.6097 316.892C43.023 316.199 43.5964 315.659 44.3297 315.272C45.063 314.872 45.903 314.672 46.8497 314.672ZM46.8697 317.132C46.4164 317.132 46.0297 317.226 45.7097 317.412C45.3897 317.586 45.143 317.846 44.9697 318.192C44.7964 318.526 44.7097 318.932 44.7097 319.412V321.172C44.7097 321.546 44.763 321.879 44.8697 322.172C44.9764 322.452 45.123 322.699 45.3097 322.912C45.483 323.086 45.6964 323.219 45.9497 323.312C46.2164 323.406 46.5097 323.452 46.8297 323.452C47.283 323.452 47.6697 323.366 47.9897 323.192C48.3231 323.006 48.5697 322.739 48.7297 322.392C48.903 322.046 48.9897 321.639 48.9897 321.172V319.412C48.9897 318.999 48.943 318.652 48.8497 318.372C48.7564 318.079 48.6164 317.839 48.4297 317.652C48.2564 317.466 48.0364 317.332 47.7697 317.252C47.5164 317.172 47.2164 317.132 46.8697 317.132ZM68.3219 325.672C68.0819 325.672 67.7952 325.672 67.4619 325.672C67.1286 325.672 66.8019 325.672 66.4819 325.672C66.1619 325.672 65.8886 325.672 65.6619 325.672C65.6219 325.672 65.5819 325.666 65.5419 325.652C65.5152 325.626 65.4886 325.599 65.4619 325.572C65.4486 325.546 65.4419 325.506 65.4419 325.452C65.4419 324.959 65.4419 324.466 65.4419 323.972C65.4419 323.479 65.4419 322.992 65.4419 322.512C65.4419 322.019 65.4419 321.532 65.4419 321.052C65.4419 320.572 65.4419 320.106 65.4419 319.652C65.4419 319.199 65.4419 318.759 65.4419 318.332C65.4419 317.972 65.3752 317.719 65.2419 317.572C65.1086 317.426 64.9019 317.352 64.6219 317.352C64.3686 317.352 64.1219 317.426 63.8819 317.572C63.6419 317.706 63.4086 317.912 63.1819 318.192C62.9552 318.472 62.7419 318.826 62.5419 319.252L62.1419 316.452H63.1619C63.3752 316.052 63.6019 315.726 63.8419 315.472C64.0952 315.206 64.3886 315.006 64.7219 314.872C65.0552 314.739 65.4286 314.672 65.8419 314.672C66.1619 314.672 66.4686 314.732 66.7619 314.852C67.0686 314.959 67.3352 315.132 67.5619 315.372C67.8019 315.599 67.9886 315.886 68.1219 316.232C68.2552 316.566 68.3219 316.966 68.3219 317.432C68.3219 317.819 68.3219 318.252 68.3219 318.732C68.3219 319.212 68.3219 319.726 68.3219 320.272C68.3219 320.806 68.3219 321.359 68.3219 321.932C68.3219 322.506 68.3219 323.086 68.3219 323.672C68.3219 324.006 68.3219 324.339 68.3219 324.672C68.3219 325.006 68.3219 325.339 68.3219 325.672ZM62.7819 325.672C62.5819 325.672 62.3019 325.672 61.9419 325.672C61.5819 325.672 61.2352 325.672 60.9019 325.672C60.5686 325.672 60.3086 325.672 60.1219 325.672C60.0819 325.672 60.0419 325.666 60.0019 325.652C59.9752 325.626 59.9486 325.599 59.9219 325.572C59.9086 325.546 59.9019 325.506 59.9019 325.452C59.9019 324.959 59.9019 324.466 59.9019 323.972C59.9019 323.466 59.9019 322.972 59.9019 322.492C59.9019 322.012 59.9019 321.532 59.9019 321.052C59.9019 320.572 59.9019 320.106 59.9019 319.652C59.9019 319.199 59.9019 318.752 59.9019 318.312C59.9019 318.072 59.8752 317.879 59.8219 317.732C59.7686 317.586 59.6886 317.486 59.5819 317.432C59.4752 317.379 59.3486 317.352 59.2019 317.352C58.9486 317.352 58.6952 317.426 58.4419 317.572C58.1886 317.706 57.9352 317.919 57.6819 318.212C57.4419 318.492 57.2019 318.852 56.9619 319.292L56.4619 316.452H57.4419C57.6819 316.079 57.9419 315.759 58.2219 315.492C58.5019 315.226 58.8086 315.026 59.1419 314.892C59.4752 314.746 59.8219 314.672 60.1819 314.672C60.5419 314.672 60.8752 314.726 61.1819 314.832C61.5019 314.939 61.7819 315.099 62.0219 315.312C62.2619 315.526 62.4486 315.799 62.5819 316.132C62.7152 316.466 62.7819 316.859 62.7819 317.312C62.7819 317.579 62.7819 317.952 62.7819 318.432C62.7819 318.912 62.7819 319.499 62.7819 320.192C62.7819 320.886 62.7819 321.692 62.7819 322.612C62.7819 323.519 62.7819 324.539 62.7819 325.672ZM57.2419 325.672C57.0552 325.672 56.8419 325.672 56.6019 325.672C56.3752 325.672 56.1419 325.672 55.9019 325.672C55.6619 325.672 55.4219 325.672 55.1819 325.672C54.9552 325.672 54.7552 325.672 54.5819 325.672C54.5419 325.672 54.5086 325.672 54.4819 325.672C54.4552 325.659 54.4286 325.646 54.4019 325.632C54.3886 325.606 54.3752 325.579 54.3619 325.552C54.3619 325.526 54.3619 325.492 54.3619 325.452C54.3619 324.492 54.3619 323.539 54.3619 322.592C54.3619 321.646 54.3619 320.699 54.3619 319.752C54.3619 318.806 54.3619 317.859 54.3619 316.912C54.3619 316.552 54.3619 316.206 54.3619 315.872C54.3619 315.539 54.3619 315.219 54.3619 314.912C54.5086 314.912 54.6752 314.912 54.8619 314.912C55.0486 314.912 55.2419 314.912 55.4419 314.912C55.6552 314.912 55.8552 314.912 56.0419 314.912C56.2286 314.912 56.3952 314.912 56.5419 314.912C56.5419 314.912 56.5752 315.032 56.6419 315.272C56.7219 315.499 56.8019 315.766 56.8819 316.072C56.9752 316.379 57.0552 316.652 57.1219 316.892C57.2019 317.132 57.2419 317.252 57.2419 317.252C57.2419 318.132 57.2419 319.039 57.2419 319.972C57.2419 320.906 57.2419 321.852 57.2419 322.812C57.2419 323.759 57.2419 324.712 57.2419 325.672ZM71.3541 314.912C71.6474 314.912 71.9274 314.912 72.1941 314.912C72.4608 314.912 72.7274 314.912 72.9941 314.912C73.2741 314.912 73.5541 314.912 73.8341 314.912C73.8874 314.912 73.9274 314.926 73.9541 314.952C73.9808 314.966 74.0008 314.986 74.0141 315.012C74.0408 315.039 74.0541 315.079 74.0541 315.132C74.0541 316.346 74.0541 317.559 74.0541 318.772C74.0541 319.986 74.0541 321.199 74.0541 322.412C74.0541 323.626 74.0541 324.839 74.0541 326.052C74.0541 327.266 74.0541 328.472 74.0541 329.672C73.7741 329.672 73.4941 329.672 73.2141 329.672C72.9474 329.672 72.6808 329.672 72.4141 329.672C72.1474 329.672 71.8674 329.672 71.5741 329.672C71.5341 329.672 71.4941 329.659 71.4541 329.632C71.4274 329.619 71.4008 329.592 71.3741 329.552C71.3608 329.526 71.3541 329.492 71.3541 329.452C71.3541 328.412 71.3541 327.372 71.3541 326.332C71.3541 325.292 71.3541 324.246 71.3541 323.192C71.3541 322.139 71.3541 321.092 71.3541 320.052C71.3541 319.012 71.3541 317.972 71.3541 316.932C71.3541 316.559 71.3541 316.206 71.3541 315.872C71.3541 315.539 71.3541 315.219 71.3541 314.912ZM77.3541 314.672C78.0341 314.672 78.6208 314.826 79.1141 315.132C79.6074 315.439 79.9874 315.886 80.2541 316.472C80.5341 317.059 80.6741 317.759 80.6741 318.572V321.952C80.6741 322.566 80.5941 323.119 80.4341 323.612C80.2741 324.092 80.0474 324.506 79.7541 324.852C79.4741 325.186 79.1274 325.439 78.7141 325.612C78.3141 325.786 77.8608 325.872 77.3541 325.872C76.9674 325.872 76.5874 325.806 76.2141 325.672C75.8541 325.539 75.5208 325.346 75.2141 325.092C74.9074 324.839 74.6341 324.559 74.3941 324.252H73.8141V322.092C74.1741 322.466 74.5874 322.752 75.0541 322.952C75.5341 323.152 76.0008 323.252 76.4541 323.252C76.7874 323.252 77.0608 323.186 77.2741 323.052C77.4874 322.919 77.6541 322.726 77.7741 322.472C77.9074 322.206 77.9741 321.886 77.9741 321.512V319.012C77.9741 318.692 77.9341 318.426 77.8541 318.212C77.7874 317.986 77.6874 317.806 77.5541 317.672C77.4341 317.552 77.2808 317.459 77.0941 317.392C76.9074 317.326 76.6941 317.292 76.4541 317.292C76.1741 317.292 75.8741 317.366 75.5541 317.512C75.2474 317.646 74.9474 317.839 74.6541 318.092C74.3608 318.346 74.0874 318.652 73.8341 319.012V316.532H74.3941C74.6074 316.132 74.8674 315.799 75.1741 315.532C75.4808 315.266 75.8141 315.059 76.1741 314.912C76.5474 314.752 76.9408 314.672 77.3541 314.672ZM87.8263 314.672C88.5463 314.672 89.1996 314.786 89.7863 315.012C90.3863 315.239 90.8996 315.559 91.3263 315.972C91.7529 316.372 92.0796 316.852 92.3063 317.412C92.5463 317.972 92.6663 318.592 92.6663 319.272V321.292C92.6663 322.199 92.4596 322.999 92.0463 323.692C91.6463 324.386 91.0796 324.932 90.3463 325.332C89.6263 325.719 88.7863 325.912 87.8263 325.912C87.1063 325.912 86.4463 325.799 85.8463 325.572C85.2596 325.346 84.7529 325.032 84.3263 324.632C83.8996 324.219 83.5663 323.732 83.3263 323.172C83.0996 322.612 82.9863 321.992 82.9863 321.312V319.292C82.9863 318.386 83.1863 317.586 83.5863 316.892C83.9996 316.199 84.5729 315.659 85.3063 315.272C86.0396 314.872 86.8796 314.672 87.8263 314.672ZM87.8463 317.132C87.3929 317.132 87.0063 317.226 86.6863 317.412C86.3663 317.586 86.1196 317.846 85.9463 318.192C85.7729 318.526 85.6863 318.932 85.6863 319.412V321.172C85.6863 321.546 85.7396 321.879 85.8463 322.172C85.9529 322.452 86.0996 322.699 86.2863 322.912C86.4596 323.086 86.6729 323.219 86.9263 323.312C87.1929 323.406 87.4863 323.452 87.8063 323.452C88.2596 323.452 88.6463 323.366 88.9663 323.192C89.2996 323.006 89.5463 322.739 89.7063 322.392C89.8796 322.046 89.9663 321.639 89.9663 321.172V319.412C89.9663 318.999 89.9196 318.652 89.8263 318.372C89.7329 318.079 89.5929 317.839 89.4063 317.652C89.2329 317.466 89.0129 317.332 88.7463 317.252C88.4929 317.172 88.1929 317.132 87.8463 317.132ZM97.8385 316.832H98.6385C98.7985 316.339 98.9851 315.939 99.1985 315.632C99.4118 315.312 99.6718 315.079 99.9785 314.932C100.298 314.786 100.658 314.712 101.058 314.712C101.272 314.712 101.445 314.732 101.578 314.772C101.725 314.812 101.825 314.852 101.878 314.892C101.932 314.932 101.965 314.972 101.978 315.012C101.992 315.039 101.998 315.086 101.998 315.152C101.998 315.366 101.998 315.579 101.998 315.792C101.998 315.992 101.998 316.192 101.998 316.392C101.998 316.592 101.998 316.799 101.998 317.012C101.998 317.212 101.998 317.419 101.998 317.632H101.618C101.485 317.592 101.338 317.559 101.178 317.532C101.018 317.506 100.838 317.492 100.638 317.492C100.225 317.492 99.8585 317.572 99.5385 317.732C99.2318 317.892 98.9451 318.119 98.6785 318.412C98.4118 318.692 98.1318 319.026 97.8385 319.412V316.832ZM98.2185 325.672C97.9251 325.672 97.6251 325.672 97.3185 325.672C97.0251 325.672 96.7318 325.672 96.4385 325.672C96.1451 325.672 95.8518 325.672 95.5585 325.672C95.5185 325.672 95.4851 325.672 95.4585 325.672C95.4318 325.659 95.4051 325.646 95.3785 325.632C95.3651 325.606 95.3518 325.579 95.3385 325.552C95.3385 325.526 95.3385 325.492 95.3385 325.452C95.3385 324.959 95.3385 324.439 95.3385 323.892C95.3385 323.332 95.3385 322.759 95.3385 322.172C95.3385 321.586 95.3385 320.999 95.3385 320.412C95.3385 319.812 95.3385 319.219 95.3385 318.632C95.3385 318.032 95.3385 317.446 95.3385 316.872C95.3385 316.499 95.3385 316.146 95.3385 315.812C95.3385 315.479 95.3385 315.179 95.3385 314.912C95.6718 314.912 95.9851 314.912 96.2785 314.912C96.5851 314.912 96.8785 314.912 97.1585 314.912C97.4518 314.912 97.7318 314.912 97.9985 314.912C98.0518 314.912 98.0918 314.926 98.1185 314.952C98.1451 314.966 98.1651 314.986 98.1785 315.012C98.2051 315.039 98.2185 315.079 98.2185 315.132C98.2185 315.746 98.2185 316.392 98.2185 317.072C98.2185 317.752 98.2185 318.446 98.2185 319.152C98.2185 319.859 98.2185 320.586 98.2185 321.332C98.2185 322.066 98.2185 322.799 98.2185 323.532C98.2185 324.252 98.2185 324.966 98.2185 325.672ZM104.033 314.912H111.753C111.833 314.912 111.893 314.932 111.933 314.972C111.973 315.012 111.993 315.066 111.993 315.132C111.993 315.412 111.993 315.672 111.993 315.912C111.993 316.152 111.993 316.399 111.993 316.652C111.993 316.906 111.993 317.166 111.993 317.432H104.273C104.246 317.432 104.22 317.426 104.193 317.412C104.166 317.399 104.14 317.386 104.113 317.372C104.086 317.346 104.066 317.319 104.053 317.292C104.04 317.266 104.033 317.239 104.033 317.212C104.033 316.946 104.033 316.686 104.033 316.432C104.033 316.179 104.033 315.932 104.033 315.692C104.033 315.452 104.033 315.192 104.033 314.912ZM111.993 323.092C111.993 323.492 111.993 323.892 111.993 324.292C111.993 324.679 111.993 325.066 111.993 325.452C111.993 325.506 111.973 325.559 111.933 325.612C111.893 325.652 111.84 325.672 111.773 325.672C111.64 325.672 111.5 325.672 111.353 325.672C111.22 325.672 111.08 325.672 110.933 325.672C110.8 325.672 110.666 325.672 110.533 325.672C110.4 325.672 110.26 325.672 110.113 325.672C109.42 325.672 108.8 325.592 108.253 325.432C107.706 325.259 107.24 324.999 106.853 324.652C106.466 324.306 106.173 323.859 105.973 323.312C105.773 322.766 105.673 322.119 105.673 321.372C105.673 320.719 105.673 320.072 105.673 319.432C105.673 318.792 105.673 318.152 105.673 317.512C105.673 316.872 105.673 316.232 105.673 315.592C105.673 314.952 105.673 314.312 105.673 313.672C105.673 313.326 105.673 312.992 105.673 312.672C105.673 312.339 105.673 312.006 105.673 311.672C106.086 311.672 106.5 311.672 106.913 311.672C107.34 311.672 107.753 311.672 108.153 311.672C108.193 311.672 108.226 311.686 108.253 311.712C108.293 311.726 108.32 311.752 108.333 311.792C108.36 311.819 108.373 311.852 108.373 311.892C108.373 312.666 108.373 313.439 108.373 314.212C108.373 314.972 108.373 315.739 108.373 316.512C108.373 317.286 108.373 318.059 108.373 318.832C108.373 319.592 108.373 320.359 108.373 321.132C108.373 321.532 108.413 321.859 108.493 322.112C108.573 322.366 108.693 322.572 108.853 322.732C109 322.866 109.18 322.959 109.393 323.012C109.62 323.066 109.893 323.092 110.213 323.092C110.386 323.092 110.553 323.092 110.713 323.092C110.886 323.092 111.06 323.092 111.233 323.092C111.406 323.092 111.58 323.092 111.753 323.092H111.993ZM123.413 318.852C123.413 319.186 123.413 319.512 123.413 319.832C123.413 320.139 123.413 320.459 123.413 320.792C123.413 321.112 123.413 321.439 123.413 321.772C123.413 322.092 123.413 322.406 123.413 322.712C123.413 322.819 123.42 322.912 123.433 322.992C123.46 323.072 123.5 323.139 123.553 323.192C123.593 323.232 123.646 323.266 123.713 323.292C123.793 323.306 123.88 323.312 123.973 323.312C124.013 323.312 124.046 323.312 124.073 323.312C124.113 323.312 124.153 323.312 124.193 323.312H124.573C124.573 323.672 124.573 324.032 124.573 324.392C124.573 324.739 124.573 325.092 124.573 325.452C124.573 325.519 124.553 325.572 124.513 325.612C124.473 325.652 124.42 325.672 124.353 325.672C124.286 325.672 124.12 325.672 123.853 325.672C123.6 325.672 123.373 325.672 123.173 325.672C122.8 325.672 122.466 325.612 122.173 325.492C121.88 325.372 121.62 325.206 121.393 324.992C121.166 324.766 120.993 324.499 120.873 324.192C120.753 323.886 120.693 323.539 120.693 323.152C120.693 322.739 120.693 322.319 120.693 321.892C120.693 321.466 120.693 321.046 120.693 320.632C120.693 320.406 120.693 320.192 120.693 319.992C120.693 319.779 120.693 319.566 120.693 319.352C120.693 319.139 120.693 318.926 120.693 318.712C120.693 318.326 120.626 318.026 120.493 317.812C120.36 317.586 120.14 317.426 119.833 317.332C119.54 317.239 119.14 317.192 118.633 317.192C118.26 317.192 117.893 317.212 117.533 317.252C117.186 317.292 116.84 317.346 116.493 317.412C116.16 317.479 115.82 317.572 115.473 317.692H115.093C115.093 317.332 115.093 316.972 115.093 316.612C115.093 316.252 115.093 315.899 115.093 315.552C115.093 315.499 115.1 315.459 115.113 315.432C115.126 315.406 115.14 315.386 115.153 315.372C115.233 315.292 115.453 315.199 115.813 315.092C116.186 314.986 116.626 314.899 117.133 314.832C117.64 314.752 118.14 314.712 118.633 314.712C119.473 314.712 120.193 314.792 120.793 314.952C121.393 315.099 121.886 315.339 122.273 315.672C122.66 316.006 122.946 316.439 123.133 316.972C123.32 317.492 123.413 318.119 123.413 318.852ZM117.013 322.632C117.013 322.912 117.086 323.126 117.233 323.272C117.393 323.406 117.633 323.472 117.953 323.472C118.313 323.472 118.666 323.432 119.013 323.352C119.36 323.272 119.7 323.139 120.033 322.952C120.38 322.766 120.726 322.526 121.073 322.232V323.952H120.473C120.3 324.352 120.053 324.699 119.733 324.992C119.426 325.272 119.066 325.492 118.653 325.652C118.24 325.799 117.786 325.872 117.293 325.872C116.68 325.872 116.146 325.752 115.693 325.512C115.253 325.272 114.913 324.939 114.673 324.512C114.433 324.072 114.313 323.566 114.313 322.992V322.292C114.313 321.852 114.386 321.459 114.533 321.112C114.68 320.766 114.886 320.466 115.153 320.212C115.433 319.959 115.766 319.766 116.153 319.632C116.54 319.486 116.973 319.412 117.453 319.412C117.92 319.412 118.373 319.412 118.813 319.412C119.266 319.412 119.693 319.412 120.093 319.412C120.506 319.412 120.893 319.412 121.253 319.412C121.373 319.412 121.46 319.519 121.513 319.732C121.58 319.946 121.62 320.186 121.633 320.452C121.646 320.706 121.653 320.919 121.653 321.092C121.226 321.092 120.813 321.092 120.413 321.092C120.013 321.092 119.606 321.092 119.193 321.092C118.793 321.092 118.38 321.092 117.953 321.092C117.793 321.092 117.653 321.112 117.533 321.152C117.426 321.192 117.333 321.252 117.253 321.332C117.186 321.412 117.126 321.506 117.073 321.612C117.033 321.706 117.013 321.812 117.013 321.932V322.632ZM140.685 325.672C140.445 325.672 140.159 325.672 139.825 325.672C139.492 325.672 139.165 325.672 138.845 325.672C138.525 325.672 138.252 325.672 138.025 325.672C137.985 325.672 137.945 325.666 137.905 325.652C137.879 325.626 137.852 325.599 137.825 325.572C137.812 325.546 137.805 325.506 137.805 325.452C137.805 324.959 137.805 324.466 137.805 323.972C137.805 323.479 137.805 322.992 137.805 322.512C137.805 322.019 137.805 321.532 137.805 321.052C137.805 320.572 137.805 320.106 137.805 319.652C137.805 319.199 137.805 318.759 137.805 318.332C137.805 317.972 137.739 317.719 137.605 317.572C137.472 317.426 137.265 317.352 136.985 317.352C136.732 317.352 136.485 317.426 136.245 317.572C136.005 317.706 135.772 317.912 135.545 318.192C135.319 318.472 135.105 318.826 134.905 319.252L134.505 316.452H135.525C135.739 316.052 135.965 315.726 136.205 315.472C136.459 315.206 136.752 315.006 137.085 314.872C137.419 314.739 137.792 314.672 138.205 314.672C138.525 314.672 138.832 314.732 139.125 314.852C139.432 314.959 139.699 315.132 139.925 315.372C140.165 315.599 140.352 315.886 140.485 316.232C140.619 316.566 140.685 316.966 140.685 317.432C140.685 317.819 140.685 318.252 140.685 318.732C140.685 319.212 140.685 319.726 140.685 320.272C140.685 320.806 140.685 321.359 140.685 321.932C140.685 322.506 140.685 323.086 140.685 323.672C140.685 324.006 140.685 324.339 140.685 324.672C140.685 325.006 140.685 325.339 140.685 325.672ZM135.145 325.672C134.945 325.672 134.665 325.672 134.305 325.672C133.945 325.672 133.599 325.672 133.265 325.672C132.932 325.672 132.672 325.672 132.485 325.672C132.445 325.672 132.405 325.666 132.365 325.652C132.339 325.626 132.312 325.599 132.285 325.572C132.272 325.546 132.265 325.506 132.265 325.452C132.265 324.959 132.265 324.466 132.265 323.972C132.265 323.466 132.265 322.972 132.265 322.492C132.265 322.012 132.265 321.532 132.265 321.052C132.265 320.572 132.265 320.106 132.265 319.652C132.265 319.199 132.265 318.752 132.265 318.312C132.265 318.072 132.239 317.879 132.185 317.732C132.132 317.586 132.052 317.486 131.945 317.432C131.839 317.379 131.712 317.352 131.565 317.352C131.312 317.352 131.059 317.426 130.805 317.572C130.552 317.706 130.299 317.919 130.045 318.212C129.805 318.492 129.565 318.852 129.325 319.292L128.825 316.452H129.805C130.045 316.079 130.305 315.759 130.585 315.492C130.865 315.226 131.172 315.026 131.505 314.892C131.839 314.746 132.185 314.672 132.545 314.672C132.905 314.672 133.239 314.726 133.545 314.832C133.865 314.939 134.145 315.099 134.385 315.312C134.625 315.526 134.812 315.799 134.945 316.132C135.079 316.466 135.145 316.859 135.145 317.312C135.145 317.579 135.145 317.952 135.145 318.432C135.145 318.912 135.145 319.499 135.145 320.192C135.145 320.886 135.145 321.692 135.145 322.612C135.145 323.519 135.145 324.539 135.145 325.672ZM129.605 325.672C129.419 325.672 129.205 325.672 128.965 325.672C128.739 325.672 128.505 325.672 128.265 325.672C128.025 325.672 127.785 325.672 127.545 325.672C127.319 325.672 127.119 325.672 126.945 325.672C126.905 325.672 126.872 325.672 126.845 325.672C126.819 325.659 126.792 325.646 126.765 325.632C126.752 325.606 126.739 325.579 126.725 325.552C126.725 325.526 126.725 325.492 126.725 325.452C126.725 324.492 126.725 323.539 126.725 322.592C126.725 321.646 126.725 320.699 126.725 319.752C126.725 318.806 126.725 317.859 126.725 316.912C126.725 316.552 126.725 316.206 126.725 315.872C126.725 315.539 126.725 315.219 126.725 314.912C126.872 314.912 127.039 314.912 127.225 314.912C127.412 314.912 127.605 314.912 127.805 314.912C128.019 314.912 128.219 314.912 128.405 314.912C128.592 314.912 128.759 314.912 128.905 314.912C128.905 314.912 128.939 315.032 129.005 315.272C129.085 315.499 129.165 315.766 129.245 316.072C129.339 316.379 129.419 316.652 129.485 316.892C129.565 317.132 129.605 317.252 129.605 317.252C129.605 318.132 129.605 319.039 129.605 319.972C129.605 320.906 129.605 321.852 129.605 322.812C129.605 323.759 129.605 324.712 129.605 325.672ZM148.237 314.672C149.144 314.672 149.931 314.859 150.597 315.232C151.277 315.606 151.804 316.126 152.177 316.792C152.551 317.459 152.737 318.239 152.737 319.132V320.792C152.737 320.832 152.731 320.872 152.717 320.912C152.704 320.939 152.677 320.959 152.637 320.972C152.611 320.986 152.577 320.992 152.537 320.992H147.937C147.711 320.992 147.477 320.992 147.237 320.992C147.011 320.992 146.784 320.992 146.557 320.992H145.737L145.677 319.312H150.117C150.117 319.259 150.117 319.212 150.117 319.172C150.117 319.132 150.117 319.086 150.117 319.032C150.117 318.646 150.077 318.319 149.997 318.052C149.917 317.772 149.791 317.552 149.617 317.392C149.471 317.232 149.284 317.119 149.057 317.052C148.831 316.986 148.557 316.952 148.237 316.952C147.571 316.952 147.071 317.119 146.737 317.452C146.417 317.772 146.257 318.299 146.257 319.032V321.472C146.257 321.792 146.297 322.079 146.377 322.332C146.471 322.572 146.597 322.779 146.757 322.952C146.971 323.166 147.251 323.319 147.597 323.412C147.957 323.506 148.371 323.552 148.837 323.552C149.317 323.552 149.744 323.532 150.117 323.492C150.491 323.439 150.837 323.372 151.157 323.292C151.477 323.199 151.791 323.099 152.097 322.992H152.477C152.477 323.326 152.477 323.666 152.477 324.012C152.477 324.346 152.477 324.686 152.477 325.032C152.477 325.059 152.471 325.086 152.457 325.112C152.444 325.139 152.424 325.166 152.397 325.192C152.291 325.299 152.051 325.406 151.677 325.512C151.317 325.619 150.877 325.712 150.357 325.792C149.851 325.872 149.331 325.912 148.797 325.912C147.931 325.912 147.164 325.812 146.497 325.612C145.844 325.399 145.297 325.099 144.857 324.712C144.431 324.326 144.104 323.859 143.877 323.312C143.664 322.752 143.557 322.126 143.557 321.432V319.152C143.557 318.472 143.664 317.859 143.877 317.312C144.104 316.766 144.424 316.299 144.837 315.912C145.251 315.512 145.744 315.206 146.317 314.992C146.891 314.779 147.531 314.672 148.237 314.672ZM164.85 325.672C164.41 325.672 163.996 325.672 163.61 325.672C163.236 325.672 162.823 325.672 162.37 325.672C162.33 325.672 162.29 325.666 162.25 325.652C162.223 325.626 162.196 325.599 162.17 325.572C162.156 325.546 162.15 325.506 162.15 325.452C162.15 324.666 162.15 323.879 162.15 323.092C162.15 322.292 162.15 321.499 162.15 320.712C162.15 319.926 162.15 319.139 162.15 318.352C162.15 317.992 162.07 317.726 161.91 317.552C161.75 317.379 161.496 317.292 161.15 317.292C160.923 317.292 160.67 317.332 160.39 317.412C160.123 317.479 159.85 317.586 159.57 317.732C159.303 317.866 159.043 318.039 158.79 318.252C158.536 318.466 158.303 318.719 158.09 319.012V316.652H158.79C159.056 316.252 159.35 315.906 159.67 315.612C160.003 315.319 160.363 315.092 160.75 314.932C161.15 314.759 161.576 314.672 162.03 314.672C162.456 314.672 162.843 314.746 163.19 314.892C163.55 315.026 163.85 315.232 164.09 315.512C164.343 315.779 164.53 316.106 164.65 316.492C164.783 316.879 164.85 317.312 164.85 317.792C164.85 318.432 164.85 319.079 164.85 319.732C164.85 320.386 164.85 321.039 164.85 321.692C164.85 322.346 164.85 323.006 164.85 323.672C164.85 324.006 164.85 324.339 164.85 324.672C164.85 325.006 164.85 325.339 164.85 325.672ZM158.41 325.672C158.116 325.672 157.836 325.672 157.57 325.672C157.316 325.672 157.05 325.672 156.77 325.672C156.503 325.672 156.223 325.672 155.93 325.672C155.89 325.672 155.856 325.672 155.83 325.672C155.803 325.659 155.776 325.646 155.75 325.632C155.736 325.606 155.723 325.579 155.71 325.552C155.71 325.526 155.71 325.492 155.71 325.452C155.71 324.732 155.71 324.019 155.71 323.312C155.71 322.592 155.71 321.879 155.71 321.172C155.71 320.452 155.71 319.739 155.71 319.032C155.71 318.312 155.71 317.592 155.71 316.872C155.71 316.499 155.71 316.146 155.71 315.812C155.71 315.479 155.71 315.179 155.71 314.912C156.043 314.912 156.343 314.912 156.61 314.912C156.89 314.912 157.156 314.912 157.41 314.912C157.676 314.912 157.936 314.912 158.19 314.912C158.243 314.912 158.283 314.926 158.31 314.952C158.336 314.966 158.356 314.986 158.37 315.012C158.396 315.039 158.41 315.079 158.41 315.132C158.41 316.292 158.41 317.459 158.41 318.632C158.41 319.806 158.41 320.979 158.41 322.152C158.41 323.326 158.41 324.499 158.41 325.672ZM166.611 314.912H174.331C174.411 314.912 174.471 314.932 174.511 314.972C174.551 315.012 174.571 315.066 174.571 315.132C174.571 315.412 174.571 315.672 174.571 315.912C174.571 316.152 174.571 316.399 174.571 316.652C174.571 316.906 174.571 317.166 174.571 317.432H166.851C166.824 317.432 166.798 317.426 166.771 317.412C166.744 317.399 166.718 317.386 166.691 317.372C166.664 317.346 166.644 317.319 166.631 317.292C166.618 317.266 166.611 317.239 166.611 317.212C166.611 316.946 166.611 316.686 166.611 316.432C166.611 316.179 166.611 315.932 166.611 315.692C166.611 315.452 166.611 315.192 166.611 314.912ZM174.571 323.092C174.571 323.492 174.571 323.892 174.571 324.292C174.571 324.679 174.571 325.066 174.571 325.452C174.571 325.506 174.551 325.559 174.511 325.612C174.471 325.652 174.418 325.672 174.351 325.672C174.218 325.672 174.078 325.672 173.931 325.672C173.798 325.672 173.658 325.672 173.511 325.672C173.378 325.672 173.244 325.672 173.111 325.672C172.978 325.672 172.838 325.672 172.691 325.672C171.998 325.672 171.378 325.592 170.831 325.432C170.284 325.259 169.818 324.999 169.431 324.652C169.044 324.306 168.751 323.859 168.551 323.312C168.351 322.766 168.251 322.119 168.251 321.372C168.251 320.719 168.251 320.072 168.251 319.432C168.251 318.792 168.251 318.152 168.251 317.512C168.251 316.872 168.251 316.232 168.251 315.592C168.251 314.952 168.251 314.312 168.251 313.672C168.251 313.326 168.251 312.992 168.251 312.672C168.251 312.339 168.251 312.006 168.251 311.672C168.664 311.672 169.078 311.672 169.491 311.672C169.918 311.672 170.331 311.672 170.731 311.672C170.771 311.672 170.804 311.686 170.831 311.712C170.871 311.726 170.898 311.752 170.911 311.792C170.938 311.819 170.951 311.852 170.951 311.892C170.951 312.666 170.951 313.439 170.951 314.212C170.951 314.972 170.951 315.739 170.951 316.512C170.951 317.286 170.951 318.059 170.951 318.832C170.951 319.592 170.951 320.359 170.951 321.132C170.951 321.532 170.991 321.859 171.071 322.112C171.151 322.366 171.271 322.572 171.431 322.732C171.578 322.866 171.758 322.959 171.971 323.012C172.198 323.066 172.471 323.092 172.791 323.092C172.964 323.092 173.131 323.092 173.291 323.092C173.464 323.092 173.638 323.092 173.811 323.092C173.984 323.092 174.158 323.092 174.331 323.092H174.571ZM181.791 314.672C182.511 314.672 183.164 314.786 183.751 315.012C184.351 315.239 184.864 315.559 185.291 315.972C185.718 316.372 186.044 316.852 186.271 317.412C186.511 317.972 186.631 318.592 186.631 319.272V321.292C186.631 322.199 186.424 322.999 186.011 323.692C185.611 324.386 185.044 324.932 184.311 325.332C183.591 325.719 182.751 325.912 181.791 325.912C181.071 325.912 180.411 325.799 179.811 325.572C179.224 325.346 178.718 325.032 178.291 324.632C177.864 324.219 177.531 323.732 177.291 323.172C177.064 322.612 176.951 321.992 176.951 321.312V319.292C176.951 318.386 177.151 317.586 177.551 316.892C177.964 316.199 178.538 315.659 179.271 315.272C180.004 314.872 180.844 314.672 181.791 314.672ZM181.811 317.132C181.358 317.132 180.971 317.226 180.651 317.412C180.331 317.586 180.084 317.846 179.911 318.192C179.738 318.526 179.651 318.932 179.651 319.412V321.172C179.651 321.546 179.704 321.879 179.811 322.172C179.918 322.452 180.064 322.699 180.251 322.912C180.424 323.086 180.638 323.219 180.891 323.312C181.158 323.406 181.451 323.452 181.771 323.452C182.224 323.452 182.611 323.366 182.931 323.192C183.264 323.006 183.511 322.739 183.671 322.392C183.844 322.046 183.931 321.639 183.931 321.172V319.412C183.931 318.999 183.884 318.652 183.791 318.372C183.698 318.079 183.558 317.839 183.371 317.652C183.198 317.466 182.978 317.332 182.711 317.252C182.458 317.172 182.158 317.132 181.811 317.132ZM194.799 311.672H204.519C204.586 311.672 204.639 311.692 204.679 311.732C204.733 311.772 204.759 311.826 204.759 311.892C204.759 312.306 204.759 312.679 204.759 313.012C204.759 313.332 204.759 313.699 204.759 314.112H195.039C194.999 314.112 194.959 314.106 194.919 314.092C194.893 314.066 194.866 314.039 194.839 314.012C194.813 313.972 194.799 313.932 194.799 313.892C194.799 313.479 194.799 313.106 194.799 312.772C194.799 312.439 194.799 312.072 194.799 311.672ZM201.219 325.672C200.779 325.672 200.339 325.672 199.899 325.672C199.459 325.672 199.013 325.672 198.559 325.672C198.493 325.672 198.439 325.652 198.399 325.612C198.359 325.572 198.339 325.519 198.339 325.452C198.339 324.372 198.339 323.326 198.339 322.312C198.339 321.299 198.339 320.286 198.339 319.272C198.339 318.246 198.339 317.219 198.339 316.192C198.339 315.152 198.339 314.106 198.339 313.052H201.439L201.219 313.592C201.219 313.859 201.219 314.146 201.219 314.452C201.219 314.746 201.219 315.032 201.219 315.312C201.219 315.592 201.219 315.859 201.219 316.112C201.219 316.966 201.219 317.799 201.219 318.612C201.219 319.412 201.219 320.232 201.219 321.072C201.219 321.899 201.219 322.772 201.219 323.692C201.219 324.066 201.219 324.419 201.219 324.752C201.219 325.086 201.219 325.392 201.219 325.672ZM210.21 314.672C211.117 314.672 211.903 314.859 212.57 315.232C213.25 315.606 213.777 316.126 214.15 316.792C214.523 317.459 214.71 318.239 214.71 319.132V320.792C214.71 320.832 214.703 320.872 214.69 320.912C214.677 320.939 214.65 320.959 214.61 320.972C214.583 320.986 214.55 320.992 214.51 320.992H209.91C209.683 320.992 209.45 320.992 209.21 320.992C208.983 320.992 208.757 320.992 208.53 320.992H207.71L207.65 319.312H212.09C212.09 319.259 212.09 319.212 212.09 319.172C212.09 319.132 212.09 319.086 212.09 319.032C212.09 318.646 212.05 318.319 211.97 318.052C211.89 317.772 211.763 317.552 211.59 317.392C211.443 317.232 211.257 317.119 211.03 317.052C210.803 316.986 210.53 316.952 210.21 316.952C209.543 316.952 209.043 317.119 208.71 317.452C208.39 317.772 208.23 318.299 208.23 319.032V321.472C208.23 321.792 208.27 322.079 208.35 322.332C208.443 322.572 208.57 322.779 208.73 322.952C208.943 323.166 209.223 323.319 209.57 323.412C209.93 323.506 210.343 323.552 210.81 323.552C211.29 323.552 211.717 323.532 212.09 323.492C212.463 323.439 212.81 323.372 213.13 323.292C213.45 323.199 213.763 323.099 214.07 322.992H214.45C214.45 323.326 214.45 323.666 214.45 324.012C214.45 324.346 214.45 324.686 214.45 325.032C214.45 325.059 214.443 325.086 214.43 325.112C214.417 325.139 214.397 325.166 214.37 325.192C214.263 325.299 214.023 325.406 213.65 325.512C213.29 325.619 212.85 325.712 212.33 325.792C211.823 325.872 211.303 325.912 210.77 325.912C209.903 325.912 209.137 325.812 208.47 325.612C207.817 325.399 207.27 325.099 206.83 324.712C206.403 324.326 206.077 323.859 205.85 323.312C205.637 322.752 205.53 322.126 205.53 321.432V319.152C205.53 318.472 205.637 317.859 205.85 317.312C206.077 316.766 206.397 316.299 206.81 315.912C207.223 315.512 207.717 315.206 208.29 314.992C208.863 314.779 209.503 314.672 210.21 314.672ZM211.13 309.452C211.703 309.452 212.217 309.452 212.67 309.452C213.137 309.452 213.643 309.452 214.19 309.452C214.283 309.452 214.343 309.486 214.37 309.552C214.41 309.619 214.397 309.686 214.33 309.752C214.01 310.126 213.697 310.486 213.39 310.832C213.097 311.166 212.79 311.506 212.47 311.852C212.163 312.199 211.817 312.599 211.43 313.052C211.403 313.092 211.357 313.132 211.29 313.172C211.237 313.199 211.17 313.212 211.09 313.212C210.703 313.212 210.337 313.212 209.99 313.212C209.657 313.212 209.317 313.212 208.97 313.212C209.21 312.799 209.45 312.386 209.69 311.972C209.93 311.559 210.17 311.139 210.41 310.712C210.65 310.286 210.89 309.866 211.13 309.452ZM220.182 316.832H220.982C221.142 316.339 221.329 315.939 221.542 315.632C221.756 315.312 222.016 315.079 222.322 314.932C222.642 314.786 223.002 314.712 223.402 314.712C223.616 314.712 223.789 314.732 223.922 314.772C224.069 314.812 224.169 314.852 224.222 314.892C224.276 314.932 224.309 314.972 224.322 315.012C224.336 315.039 224.342 315.086 224.342 315.152C224.342 315.366 224.342 315.579 224.342 315.792C224.342 315.992 224.342 316.192 224.342 316.392C224.342 316.592 224.342 316.799 224.342 317.012C224.342 317.212 224.342 317.419 224.342 317.632H223.962C223.829 317.592 223.682 317.559 223.522 317.532C223.362 317.506 223.182 317.492 222.982 317.492C222.569 317.492 222.202 317.572 221.882 317.732C221.576 317.892 221.289 318.119 221.022 318.412C220.756 318.692 220.476 319.026 220.182 319.412V316.832ZM220.562 325.672C220.269 325.672 219.969 325.672 219.662 325.672C219.369 325.672 219.076 325.672 218.782 325.672C218.489 325.672 218.196 325.672 217.902 325.672C217.862 325.672 217.829 325.672 217.802 325.672C217.776 325.659 217.749 325.646 217.722 325.632C217.709 325.606 217.696 325.579 217.682 325.552C217.682 325.526 217.682 325.492 217.682 325.452C217.682 324.959 217.682 324.439 217.682 323.892C217.682 323.332 217.682 322.759 217.682 322.172C217.682 321.586 217.682 320.999 217.682 320.412C217.682 319.812 217.682 319.219 217.682 318.632C217.682 318.032 217.682 317.446 217.682 316.872C217.682 316.499 217.682 316.146 217.682 315.812C217.682 315.479 217.682 315.179 217.682 314.912C218.016 314.912 218.329 314.912 218.622 314.912C218.929 314.912 219.222 314.912 219.502 314.912C219.796 314.912 220.076 314.912 220.342 314.912C220.396 314.912 220.436 314.926 220.462 314.952C220.489 314.966 220.509 314.986 220.522 315.012C220.549 315.039 220.562 315.079 220.562 315.132C220.562 315.746 220.562 316.392 220.562 317.072C220.562 317.752 220.562 318.446 220.562 319.152C220.562 319.859 220.562 320.586 220.562 321.332C220.562 322.066 220.562 322.799 220.562 323.532C220.562 324.252 220.562 324.966 220.562 325.672ZM240.646 325.672C240.406 325.672 240.119 325.672 239.786 325.672C239.453 325.672 239.126 325.672 238.806 325.672C238.486 325.672 238.213 325.672 237.986 325.672C237.946 325.672 237.906 325.666 237.866 325.652C237.839 325.626 237.813 325.599 237.786 325.572C237.773 325.546 237.766 325.506 237.766 325.452C237.766 324.959 237.766 324.466 237.766 323.972C237.766 323.479 237.766 322.992 237.766 322.512C237.766 322.019 237.766 321.532 237.766 321.052C237.766 320.572 237.766 320.106 237.766 319.652C237.766 319.199 237.766 318.759 237.766 318.332C237.766 317.972 237.699 317.719 237.566 317.572C237.433 317.426 237.226 317.352 236.946 317.352C236.693 317.352 236.446 317.426 236.206 317.572C235.966 317.706 235.733 317.912 235.506 318.192C235.279 318.472 235.066 318.826 234.866 319.252L234.466 316.452H235.486C235.699 316.052 235.926 315.726 236.166 315.472C236.419 315.206 236.713 315.006 237.046 314.872C237.379 314.739 237.753 314.672 238.166 314.672C238.486 314.672 238.793 314.732 239.086 314.852C239.393 314.959 239.659 315.132 239.886 315.372C240.126 315.599 240.313 315.886 240.446 316.232C240.579 316.566 240.646 316.966 240.646 317.432C240.646 317.819 240.646 318.252 240.646 318.732C240.646 319.212 240.646 319.726 240.646 320.272C240.646 320.806 240.646 321.359 240.646 321.932C240.646 322.506 240.646 323.086 240.646 323.672C240.646 324.006 240.646 324.339 240.646 324.672C240.646 325.006 240.646 325.339 240.646 325.672ZM235.106 325.672C234.906 325.672 234.626 325.672 234.266 325.672C233.906 325.672 233.559 325.672 233.226 325.672C232.893 325.672 232.633 325.672 232.446 325.672C232.406 325.672 232.366 325.666 232.326 325.652C232.299 325.626 232.273 325.599 232.246 325.572C232.233 325.546 232.226 325.506 232.226 325.452C232.226 324.959 232.226 324.466 232.226 323.972C232.226 323.466 232.226 322.972 232.226 322.492C232.226 322.012 232.226 321.532 232.226 321.052C232.226 320.572 232.226 320.106 232.226 319.652C232.226 319.199 232.226 318.752 232.226 318.312C232.226 318.072 232.199 317.879 232.146 317.732C232.093 317.586 232.013 317.486 231.906 317.432C231.799 317.379 231.673 317.352 231.526 317.352C231.273 317.352 231.019 317.426 230.766 317.572C230.513 317.706 230.259 317.919 230.006 318.212C229.766 318.492 229.526 318.852 229.286 319.292L228.786 316.452H229.766C230.006 316.079 230.266 315.759 230.546 315.492C230.826 315.226 231.133 315.026 231.466 314.892C231.799 314.746 232.146 314.672 232.506 314.672C232.866 314.672 233.199 314.726 233.506 314.832C233.826 314.939 234.106 315.099 234.346 315.312C234.586 315.526 234.773 315.799 234.906 316.132C235.039 316.466 235.106 316.859 235.106 317.312C235.106 317.579 235.106 317.952 235.106 318.432C235.106 318.912 235.106 319.499 235.106 320.192C235.106 320.886 235.106 321.692 235.106 322.612C235.106 323.519 235.106 324.539 235.106 325.672ZM229.566 325.672C229.379 325.672 229.166 325.672 228.926 325.672C228.699 325.672 228.466 325.672 228.226 325.672C227.986 325.672 227.746 325.672 227.506 325.672C227.279 325.672 227.079 325.672 226.906 325.672C226.866 325.672 226.833 325.672 226.806 325.672C226.779 325.659 226.753 325.646 226.726 325.632C226.713 325.606 226.699 325.579 226.686 325.552C226.686 325.526 226.686 325.492 226.686 325.452C226.686 324.492 226.686 323.539 226.686 322.592C226.686 321.646 226.686 320.699 226.686 319.752C226.686 318.806 226.686 317.859 226.686 316.912C226.686 316.552 226.686 316.206 226.686 315.872C226.686 315.539 226.686 315.219 226.686 314.912C226.833 314.912 226.999 314.912 227.186 314.912C227.373 314.912 227.566 314.912 227.766 314.912C227.979 314.912 228.179 314.912 228.366 314.912C228.553 314.912 228.719 314.912 228.866 314.912C228.866 314.912 228.899 315.032 228.966 315.272C229.046 315.499 229.126 315.766 229.206 316.072C229.299 316.379 229.379 316.652 229.446 316.892C229.526 317.132 229.566 317.252 229.566 317.252C229.566 318.132 229.566 319.039 229.566 319.972C229.566 320.906 229.566 321.852 229.566 322.812C229.566 323.759 229.566 324.712 229.566 325.672ZM244.618 325.452C244.618 325.092 244.618 324.646 244.618 324.112C244.618 323.566 244.618 322.979 244.618 322.352C244.618 321.726 244.618 321.099 244.618 320.472C244.618 319.846 244.618 319.259 244.618 318.712C244.618 318.166 244.618 317.706 244.618 317.332H244.478C244.398 317.332 244.305 317.332 244.198 317.332C244.105 317.332 243.998 317.332 243.878 317.332C243.772 317.332 243.658 317.332 243.538 317.332C243.432 317.332 243.325 317.332 243.218 317.332C243.152 317.332 243.098 317.312 243.058 317.272C243.018 317.232 242.998 317.179 242.998 317.112C242.998 316.752 242.998 316.386 242.998 316.012C242.998 315.639 242.998 315.272 242.998 314.912C243.225 314.912 243.478 314.912 243.758 314.912C244.052 314.912 244.358 314.912 244.678 314.912C244.998 314.912 245.312 314.912 245.618 314.912C245.925 314.912 246.205 314.912 246.458 314.912C246.725 314.912 246.938 314.912 247.098 314.912C247.152 314.912 247.192 314.926 247.218 314.952C247.245 314.966 247.265 314.986 247.278 315.012C247.305 315.039 247.318 315.079 247.318 315.132C247.318 315.759 247.318 316.446 247.318 317.192C247.318 317.926 247.318 318.672 247.318 319.432C247.318 320.192 247.318 320.939 247.318 321.672C247.318 322.406 247.318 323.092 247.318 323.732C247.318 323.932 247.318 324.146 247.318 324.372C247.318 324.586 247.318 324.799 247.318 325.012C247.318 325.226 247.318 325.446 247.318 325.672C246.878 325.672 246.465 325.672 246.078 325.672C245.705 325.672 245.292 325.672 244.838 325.672C244.772 325.672 244.718 325.652 244.678 325.612C244.638 325.572 244.618 325.519 244.618 325.452ZM244.138 309.792C244.392 309.792 244.652 309.792 244.918 309.792C245.198 309.792 245.478 309.792 245.758 309.792C246.052 309.792 246.332 309.792 246.598 309.792C246.878 309.792 247.145 309.792 247.398 309.792C247.465 309.792 247.518 309.812 247.558 309.852C247.598 309.892 247.618 309.946 247.618 310.012V312.592C247.365 312.592 247.098 312.592 246.818 312.592C246.552 312.592 246.272 312.592 245.978 312.592C245.698 312.592 245.418 312.592 245.138 312.592C244.872 312.592 244.612 312.592 244.358 312.592C244.292 312.592 244.238 312.572 244.198 312.532C244.158 312.492 244.138 312.439 244.138 312.372V309.792ZM255.39 314.672C255.884 314.672 256.317 314.706 256.69 314.772C257.064 314.826 257.364 314.899 257.59 314.992C257.83 315.072 257.99 315.152 258.07 315.232C258.097 315.246 258.11 315.272 258.11 315.312C258.124 315.339 258.13 315.372 258.13 315.412C258.13 315.786 258.13 316.166 258.13 316.552C258.13 316.939 258.13 317.326 258.13 317.712H257.75C257.39 317.552 257.017 317.432 256.63 317.352C256.244 317.272 255.824 317.232 255.37 317.232C254.93 317.232 254.537 317.319 254.19 317.492C253.844 317.652 253.577 317.912 253.39 318.272C253.204 318.632 253.11 319.099 253.11 319.672V320.932C253.11 321.359 253.164 321.732 253.27 322.052C253.377 322.359 253.544 322.612 253.77 322.812C253.957 322.999 254.184 323.139 254.45 323.232C254.717 323.312 255.024 323.352 255.37 323.352C255.677 323.352 255.964 323.339 256.23 323.312C256.497 323.272 256.757 323.219 257.01 323.152C257.264 323.086 257.51 322.999 257.75 322.892H258.13C258.13 323.279 258.13 323.666 258.13 324.052C258.13 324.439 258.13 324.826 258.13 325.212C258.13 325.239 258.124 325.266 258.11 325.292C258.11 325.319 258.097 325.346 258.07 325.372C258.004 325.439 257.85 325.519 257.61 325.612C257.384 325.692 257.077 325.759 256.69 325.812C256.317 325.879 255.884 325.912 255.39 325.912C254.59 325.912 253.877 325.806 253.25 325.592C252.624 325.379 252.09 325.066 251.65 324.652C251.21 324.226 250.877 323.712 250.65 323.112C250.424 322.512 250.31 321.832 250.31 321.072V319.632C250.31 318.646 250.524 317.786 250.95 317.052C251.377 316.306 251.97 315.726 252.73 315.312C253.49 314.886 254.377 314.672 255.39 314.672ZM265.15 314.672C265.87 314.672 266.524 314.786 267.11 315.012C267.71 315.239 268.224 315.559 268.65 315.972C269.077 316.372 269.404 316.852 269.63 317.412C269.87 317.972 269.99 318.592 269.99 319.272V321.292C269.99 322.199 269.784 322.999 269.37 323.692C268.97 324.386 268.404 324.932 267.67 325.332C266.95 325.719 266.11 325.912 265.15 325.912C264.43 325.912 263.77 325.799 263.17 325.572C262.584 325.346 262.077 325.032 261.65 324.632C261.224 324.219 260.89 323.732 260.65 323.172C260.424 322.612 260.31 321.992 260.31 321.312V319.292C260.31 318.386 260.51 317.586 260.91 316.892C261.324 316.199 261.897 315.659 262.63 315.272C263.364 314.872 264.204 314.672 265.15 314.672ZM265.17 317.132C264.717 317.132 264.33 317.226 264.01 317.412C263.69 317.586 263.444 317.846 263.27 318.192C263.097 318.526 263.01 318.932 263.01 319.412V321.172C263.01 321.546 263.064 321.879 263.17 322.172C263.277 322.452 263.424 322.699 263.61 322.912C263.784 323.086 263.997 323.219 264.25 323.312C264.517 323.406 264.81 323.452 265.13 323.452C265.584 323.452 265.97 323.366 266.29 323.192C266.624 323.006 266.87 322.739 267.03 322.392C267.204 322.046 267.29 321.639 267.29 321.172V319.412C267.29 318.999 267.244 318.652 267.15 318.372C267.057 318.079 266.917 317.839 266.73 317.652C266.557 317.466 266.337 317.332 266.07 317.252C265.817 317.172 265.517 317.132 265.17 317.132Z" fill="#010101"/>
</svg>
