<svg width="1721" height="968" viewBox="0 0 1721 968" fill="none" xmlns="http://www.w3.org/2000/svg">
<path d="M1695.76 891.31C1705.01 882.271 1711.74 877.338 1717.5 861.794C1722.97 847.056 1718.07 541.027 1717.55 509.36C1717.52 507.63 1717.5 506.719 1717.5 506.719L1717.52 483.528L1717.5 460.338C1717.5 460.338 1717.52 459.427 1717.55 457.697C1718.07 426.03 1722.97 120.001 1717.5 105.262C1711.74 89.7187 1705.01 84.7857 1695.76 75.7467C1686.58 66.7698 1678.13 61.6467 1666.09 57.7541C1654.51 54.0095 1605.45 55.5516 854.058 55.2682C854.058 55.2682 63.9057 54.9654 48.7748 54.9654C41.0279 54.9654 35.0804 51.284 35.0804 51.284C17.0083 42.1661 6.77944 21.624 2.38025 0.563247C0.861465 -6.70418 0.604952 52.0163 0.49557 432.455L0.480989 483.528L0.49557 534.602C0.543959 702.902 0.621142 808.241 0.823665 872.758C1.07894 954.08 1.53335 970.546 2.38025 966.493C6.77944 945.433 17.0083 924.891 35.0804 915.773C35.0804 915.773 41.0279 912.091 48.7748 912.091C63.9057 912.091 854.058 911.788 854.058 911.788C1605.45 911.505 1654.51 913.047 1666.09 909.303C1678.13 905.41 1686.58 900.287 1695.76 891.31Z" fill="#DAE7CE"/>
<path fill-rule="evenodd" clip-rule="evenodd" d="M398.451 811.084C374.511 810.528 347.86 806.948 324.288 801.123C269.831 787.664 220.903 761.844 178.461 724.169C172.881 719.216 156.899 703.234 151.946 697.654C120.358 662.07 96.8737 621.62 82.0945 577.342C67.6797 534.155 62.0418 488.168 65.6522 443.218C69.1713 399.404 80.5802 357.716 99.7632 318.579C134.279 248.162 193.233 191.059 265.076 158.459C339.995 124.462 423.068 118.661 502.788 141.86C513.728 145.044 531.492 151.332 537.153 154.026C539.596 155.188 539.869 155.24 529.247 152.512C516.292 149.184 504.747 147.004 491.472 145.378C429.763 137.823 367.471 148.434 311.753 175.991C260.791 201.195 218.313 238.489 186.876 285.629C146.639 345.966 128.084 419.255 134.719 491.642C143.142 583.53 190.525 666.733 265.618 721.493C326.821 766.124 404.104 787.503 480.157 780.842C528.624 776.596 575.867 761.334 617.885 736.346C620.325 734.895 622.379 733.764 622.447 733.833C622.516 733.901 620.37 735.692 617.678 737.811C564.505 779.667 500.18 804.844 432.897 810.135C425.788 810.695 409.421 811.338 404.941 811.234C403.385 811.198 400.464 811.13 398.451 811.084ZM322.06 708.261C265.88 679.053 222.335 634.582 194.772 578.263C178.983 546.002 169.875 513.174 166.449 476.167C165.722 468.311 165.436 444.729 165.962 435.964C169.917 370.066 194.934 309.483 238.488 260.337C243.102 255.13 255.615 242.546 260.603 238.096C302.781 200.464 353.066 176.423 408.269 167.495C430.84 163.846 456.679 163.006 479.824 165.17C525.009 169.395 568.37 184.044 606.709 208.04C609.958 210.074 612.616 211.82 612.616 211.921C612.616 212.022 611.306 211.462 609.704 210.677C602.373 207.081 588.729 201.629 578.578 198.238C555.44 190.51 532.422 185.997 505.45 183.9C498.552 183.364 475.5 183.367 468.342 183.905C440.494 185.998 416.098 191.041 391.295 199.831C342.349 217.177 298.821 247.633 265.341 287.96C228.851 331.914 206.207 386.949 200.776 444.882C199.416 459.382 199.264 480.312 200.417 494.138C205.636 556.694 229.72 613.667 271.02 661.152C276.34 667.268 291.154 682.128 297.109 687.322C305.603 694.73 315.663 702.585 323.568 707.982C327.568 710.713 327.205 710.436 327.025 710.616C326.943 710.698 324.709 709.638 322.06 708.261ZM292.541 652.641C284.557 643.557 274.441 629.561 267.047 617.371C246.663 583.763 233.931 545.574 230.069 506.453C228.244 487.97 228.548 466.452 230.899 447.711C239.466 379.405 273.829 317.795 327.482 274.544C349.761 256.585 375.414 242.104 402.678 232.097C458.599 211.57 519.697 210.726 576.839 229.69C628.13 246.712 672.408 278.613 704.785 321.869C708.983 327.479 716.122 337.767 716.122 338.209C716.122 338.333 715.343 337.562 714.391 336.495C710.855 332.532 700.818 322.526 695.91 318.073C655.095 281.038 603.849 257.877 548.716 251.547C537.278 250.234 533.143 250.026 518.43 250.024C503.762 250.021 500.508 250.186 488.311 251.549C458.172 254.916 427.085 264.284 399.381 278.346C362.813 296.907 330.81 323.949 306.301 356.994C264.87 412.857 247.206 483.864 257.366 553.712C262.281 587.513 274.228 620.723 292.193 650.529C293.473 652.651 294.587 654.5 294.669 654.638C295.142 655.426 294.27 654.608 292.541 652.641Z" fill="#6BA03A" fill-opacity="0.2"/>
</svg>
