<svg width="700" height="735" viewBox="0 0 700 735" fill="none" xmlns="http://www.w3.org/2000/svg">
<path fill-rule="evenodd" clip-rule="evenodd" d="M341.303 734.02C367.024 733.423 395.658 729.577 420.984 723.318C479.492 708.857 532.06 681.117 577.659 640.64C583.654 635.318 600.826 618.147 606.147 612.152C640.084 573.92 665.316 530.461 681.195 482.889C696.682 436.489 702.739 387.081 698.86 338.787C695.08 291.713 682.822 246.925 662.212 204.876C625.129 129.22 561.788 67.8694 484.601 32.8434C404.108 -3.68201 314.855 -9.91443 229.204 15.0102C217.451 18.4307 198.365 25.1871 192.282 28.0809C189.658 29.3292 189.365 29.3857 200.777 26.454C214.696 22.8786 227.099 20.5365 241.362 18.7901C307.662 10.6732 374.588 22.073 434.451 51.6797C489.204 78.759 534.842 118.828 568.618 169.475C611.849 234.3 631.784 313.041 624.656 390.814C615.606 489.537 564.698 578.93 484.018 637.764C418.262 685.716 335.229 708.685 253.519 701.528C201.447 696.967 150.689 680.569 105.544 653.722C102.923 652.163 100.717 650.948 100.643 651.022C100.569 651.096 102.875 653.02 105.767 655.296C162.896 700.266 232.006 727.316 304.295 733.001C311.933 733.602 329.517 734.293 334.331 734.181C336.002 734.143 339.14 734.07 341.303 734.02ZM423.377 623.548C483.737 592.167 530.522 544.387 560.135 483.879C577.099 449.218 586.884 413.947 590.565 374.187C591.346 365.747 591.654 340.411 591.088 330.994C586.839 260.193 559.96 195.104 513.167 142.301C508.209 136.706 494.766 123.186 489.407 118.405C444.09 77.9738 390.065 52.1438 330.755 42.5526C306.505 38.6311 278.744 37.7289 253.877 40.0539C205.33 44.5929 158.743 60.3326 117.552 86.1136C114.061 88.2983 111.205 90.1746 111.205 90.2833C111.205 90.392 112.613 89.7905 114.334 88.9463C122.211 85.0831 136.869 79.2249 147.776 75.5823C172.635 67.2791 197.366 62.4301 226.344 60.1774C233.756 59.6013 258.523 59.6045 266.213 60.1827C296.133 62.4318 322.344 67.8498 348.991 77.2936C401.579 95.93 448.345 128.652 484.316 171.979C523.521 219.203 547.849 278.332 553.684 340.575C555.145 356.154 555.308 378.641 554.07 393.496C548.463 460.705 522.587 521.917 478.214 572.934C472.498 579.506 456.583 595.471 450.184 601.051C441.059 609.01 430.251 617.449 421.757 623.248C417.46 626.182 417.85 625.885 418.043 626.078C418.131 626.166 420.531 625.027 423.377 623.548ZM455.093 563.79C463.671 554.03 474.539 538.993 482.483 525.896C504.384 489.787 518.062 448.758 522.212 406.726C524.172 386.868 523.846 363.75 521.32 343.614C512.115 270.227 475.196 204.033 417.552 157.565C393.615 138.27 366.055 122.712 336.762 111.96C276.681 89.9064 211.037 88.9992 149.644 109.374C94.538 127.663 46.9658 161.936 12.18 208.411C7.66919 214.438 0 225.491 0 225.966C0 226.1 0.836731 225.271 1.85974 224.125C5.65826 219.867 16.4419 209.117 21.715 204.332C65.5664 164.542 120.625 139.658 179.859 132.857C192.149 131.446 196.592 131.223 212.398 131.22C228.157 131.218 231.654 131.395 244.759 132.859C277.139 136.477 310.539 146.541 340.304 161.65C379.592 181.592 413.977 210.645 440.308 246.149C484.822 306.168 503.8 382.457 492.885 457.501C487.603 493.817 474.768 529.497 455.466 561.521C454.091 563.801 452.894 565.788 452.806 565.935C452.298 566.782 453.235 565.904 455.093 563.79Z" fill="#6BA03A" fill-opacity="0.2"/>
</svg>
