<svg width="1900" height="1009" viewBox="0 0 1900 1009" fill="none" xmlns="http://www.w3.org/2000/svg">
<g clip-path="url(#clip0_2019_3399)">
<path d="M78.4818 930.396C68.5493 920.961 61.3158 915.811 55.1224 899.586C49.2499 884.202 54.514 564.752 55.0752 531.697C55.1058 529.891 55.1224 528.939 55.1224 528.939L55.0994 504.732L55.1224 480.525C55.1224 480.525 55.1058 479.574 55.0752 477.768C54.514 444.712 49.2499 125.263 55.1224 109.878C61.3158 93.6531 68.5493 88.5038 78.4818 79.0684C88.3468 69.6979 97.4229 64.35 110.359 60.2868C122.805 56.378 175.511 57.9877 982.803 57.6919C982.803 57.6919 1831.74 57.3758 1847.99 57.3758C1856.32 57.3758 1862.71 53.5329 1862.71 53.5329C1882.12 44.0152 1893.11 22.5723 1897.84 0.587947C1899.47 -6.99818 1899.75 54.2973 1899.86 451.419L1899.88 504.732L1899.86 558.045C1899.81 733.726 1899.73 843.684 1899.51 911.031C1899.24 995.919 1898.75 1013.11 1897.84 1008.88C1893.11 986.892 1882.12 965.449 1862.71 955.932C1862.71 955.932 1856.32 952.089 1847.99 952.089C1831.74 952.089 982.803 951.773 982.803 951.773C175.511 951.477 122.805 953.087 110.359 949.178C97.4229 945.115 88.3468 939.767 78.4818 930.396Z" fill="#DAE7CE"/>
<path fill-rule="evenodd" clip-rule="evenodd" d="M1451.15 137.577C1476.87 138.174 1505.51 142.02 1530.83 148.279C1589.34 162.739 1641.91 190.48 1687.51 230.957C1693.5 236.279 1710.67 253.45 1716 259.445C1749.93 297.677 1775.16 341.136 1791.04 388.708C1806.53 435.108 1812.59 484.516 1808.71 532.81C1804.93 579.883 1792.67 624.672 1772.06 666.721C1734.98 742.376 1671.64 803.727 1594.45 838.754C1513.96 875.279 1424.7 881.511 1339.05 856.587C1327.3 853.166 1308.21 846.41 1302.13 843.516C1299.51 842.268 1299.21 842.211 1310.63 845.143C1324.54 848.718 1336.95 851.06 1351.21 852.807C1417.51 860.924 1484.44 849.524 1544.3 819.917C1599.05 792.838 1644.69 752.769 1678.47 702.122C1721.7 637.297 1741.63 558.556 1734.5 480.783C1725.45 382.059 1674.55 292.667 1593.87 233.833C1528.11 185.881 1445.08 162.911 1363.37 170.069C1311.29 174.63 1260.54 191.028 1215.39 217.875C1212.77 219.434 1210.57 220.649 1210.49 220.575C1210.42 220.501 1212.72 218.577 1215.62 216.301C1272.74 171.331 1341.85 144.281 1414.14 138.596C1421.78 137.995 1439.37 137.304 1444.18 137.415C1445.85 137.454 1448.99 137.527 1451.15 137.577ZM1533.23 248.049C1593.59 279.43 1640.37 327.21 1669.98 387.718C1686.95 422.379 1696.73 457.65 1700.41 497.41C1701.19 505.85 1701.5 531.186 1700.94 540.603C1696.69 611.404 1669.81 676.493 1623.02 729.296C1618.06 734.891 1604.61 748.411 1599.25 753.192C1553.94 793.623 1499.91 819.453 1440.6 829.044C1416.35 832.966 1388.59 833.868 1363.73 831.543C1315.18 827.004 1268.59 811.264 1227.4 785.483C1223.91 783.299 1221.05 781.422 1221.05 781.314C1221.05 781.205 1222.46 781.806 1224.18 782.651C1232.06 786.514 1246.72 792.372 1257.62 796.015C1282.48 804.318 1307.21 809.167 1336.19 811.42C1343.6 811.996 1368.37 811.992 1376.06 811.414C1405.98 809.165 1432.19 803.747 1458.84 794.303C1511.43 775.667 1558.19 742.945 1594.16 699.618C1633.37 652.394 1657.7 593.265 1663.53 531.022C1664.99 515.443 1665.16 492.956 1663.92 478.101C1658.31 410.892 1632.43 349.68 1588.06 298.663C1582.35 292.091 1566.43 276.126 1560.03 270.546C1550.91 262.587 1540.1 254.148 1531.61 248.349C1527.31 245.415 1527.7 245.712 1527.89 245.519C1527.98 245.431 1530.38 246.57 1533.23 248.049ZM1564.94 307.807C1573.52 317.567 1584.39 332.603 1592.33 345.701C1614.23 381.809 1627.91 422.839 1632.06 464.871C1634.02 484.729 1633.69 507.847 1631.17 527.982C1621.96 601.37 1585.04 667.564 1527.4 714.032C1503.46 733.327 1475.9 748.885 1446.61 759.637C1386.53 781.691 1320.89 782.598 1259.49 762.223C1204.39 743.934 1156.81 709.661 1122.03 663.186C1117.52 657.159 1109.85 646.106 1109.85 645.631C1109.85 645.497 1110.68 646.326 1111.71 647.472C1115.51 651.73 1126.29 662.48 1131.56 667.265C1175.41 707.055 1230.47 731.939 1289.71 738.74C1302 740.151 1306.44 740.374 1322.25 740.377C1338.01 740.379 1341.5 740.202 1354.61 738.738C1386.99 735.12 1420.39 725.056 1450.15 709.947C1489.44 690.005 1523.82 660.952 1550.16 625.448C1594.67 565.429 1613.65 489.14 1602.73 414.095C1597.45 377.78 1584.62 342.1 1565.31 310.076C1563.94 307.796 1562.74 305.809 1562.65 305.661C1562.15 304.815 1563.08 305.693 1564.94 307.807Z" fill="#6BA03A" fill-opacity="0.2"/>
</g>
<defs>
<clipPath id="clip0_2019_3399">
<rect width="1900" height="1009" fill="white"/>
</clipPath>
</defs>
</svg>
