<svg width="701" height="735" viewBox="0 0 701 735" fill="none" xmlns="http://www.w3.org/2000/svg">
<path fill-rule="evenodd" clip-rule="evenodd" d="M359.181 734.287C333.46 733.69 304.827 729.845 279.5 723.585C220.992 709.125 168.425 681.385 122.825 640.907C116.83 635.586 99.6586 618.414 94.3372 612.419C60.4 574.188 35.1682 530.729 19.2894 483.157C3.80222 436.757 -2.25507 387.349 1.62388 339.055C5.40486 291.981 17.6625 247.192 38.2726 205.144C75.3558 129.488 138.696 68.137 215.884 33.111C296.376 -3.41443 385.629 -9.64685 471.28 15.2778C483.034 18.6983 502.119 25.4547 508.202 28.3484C510.826 29.5967 511.12 29.6533 499.707 26.7216C485.788 23.1462 473.385 20.8041 459.123 19.0577C392.823 10.9408 325.897 22.3406 266.033 51.9473C211.28 79.0266 165.642 119.096 131.866 169.742C88.6354 234.568 68.7003 313.309 75.8289 391.082C84.878 489.805 135.787 579.198 216.466 638.032C282.222 685.983 365.255 708.953 446.965 701.796C499.038 697.235 549.795 680.836 594.94 653.99C597.562 652.431 599.767 651.216 599.841 651.29C599.915 651.363 597.61 653.287 594.717 655.564C537.589 700.533 468.478 727.584 396.19 733.269C388.552 733.869 370.968 734.56 366.154 734.449C364.482 734.41 361.344 734.337 359.181 734.287ZM277.107 623.815C216.747 592.435 169.963 544.655 140.349 484.146C123.385 449.486 113.601 414.215 109.919 374.454C109.138 366.014 108.831 340.678 109.396 331.261C113.645 260.461 140.524 195.371 187.317 142.568C192.275 136.974 205.719 123.454 211.078 118.672C256.394 78.2413 310.42 52.4114 369.729 42.8202C393.98 38.8987 421.741 37.9965 446.607 40.3215C495.154 44.8605 541.741 60.6002 582.932 86.3812C586.423 88.5659 589.279 90.4421 589.279 90.5508C589.279 90.6595 587.871 90.058 586.15 89.2139C578.273 85.3506 563.615 79.4925 552.709 75.8499C527.849 67.5467 503.119 62.6977 474.141 60.4449C466.729 59.8689 441.962 59.8721 434.271 60.4503C404.352 62.6994 378.141 68.1174 351.493 77.5612C298.905 96.1976 252.14 128.919 216.169 172.247C176.964 219.47 152.635 278.6 146.8 340.843C145.339 356.422 145.176 378.908 146.415 393.763C152.021 460.973 177.898 522.184 222.27 573.201C227.986 579.773 243.901 595.739 250.3 601.319C259.426 609.277 270.234 617.717 278.727 623.515C283.024 626.449 282.635 626.152 282.441 626.345C282.353 626.433 279.953 625.295 277.107 623.815ZM245.392 564.058C236.814 554.297 225.945 539.261 218.001 526.164C196.101 490.055 182.422 449.025 178.273 406.994C176.312 387.136 176.639 364.018 179.164 343.882C188.369 270.495 225.288 204.301 282.932 157.833C306.869 138.537 334.43 122.979 363.722 112.227C423.804 90.174 489.447 89.2668 550.84 109.641C605.946 127.93 653.519 162.204 688.304 208.679C692.815 214.705 700.484 225.759 700.484 226.234C700.484 226.367 699.648 225.539 698.625 224.392C694.826 220.134 684.042 209.385 678.769 204.599C634.918 164.81 579.859 139.926 520.625 133.125C508.336 131.714 503.893 131.49 488.086 131.488C472.327 131.485 468.83 131.662 455.726 133.127C423.345 136.745 389.945 146.809 360.18 161.917C320.892 181.86 286.508 210.913 260.176 246.417C215.662 306.436 196.684 382.725 207.6 457.769C212.881 494.084 225.717 529.765 245.018 561.788C246.393 564.069 247.59 566.055 247.679 566.203C248.186 567.05 247.249 566.171 245.392 564.058Z" fill="#6BA03A" fill-opacity="0.2"/>
</svg>
