<svg width="1462" height="990" viewBox="0 0 1462 990" fill="none" xmlns="http://www.w3.org/2000/svg">
<path d="M1459.5 2.73596L756.865 2.85738C587.711 2.88684 458.44 2.79588 359.726 2.72642C281.425 2.67132 222.351 2.62975 177.849 2.67254C127.545 2.72092 95.8844 2.87711 76.1333 3.24294C66.2547 3.42591 59.3832 3.6609 54.659 3.95876C49.8464 4.2622 47.4851 4.62218 46.4502 4.96563C25.7612 11.8317 8.93225 34.8717 3.93255 64.4403C3.59811 66.4185 3.31269 70.6654 3.09546 81.601C2.87952 92.4723 2.731 109.819 2.63598 137.873C2.44596 193.976 2.47003 292.844 2.59413 468.239C2.59413 468.24 2.59413 468.241 2.59413 468.242M1459.5 2.73596L0.45439 468.244L2.59413 468.242M1459.5 2.73596L1459.4 499.86C1459.35 715.553 1459.27 840.042 1459.04 909.576C1458.94 941.265 1458.8 961.53 1458.63 973.81C1453.48 956.121 1444.48 941.052 1431.94 932.605C1431.93 932.597 1431.92 932.59 1431.91 932.582L1431.9 932.574C1431.85 932.537 1431.78 932.484 1431.68 932.418C1431.5 932.286 1431.23 932.101 1430.89 931.878C1430.21 931.432 1429.26 930.832 1428.12 930.207C1425.89 928.982 1422.78 927.558 1419.66 927.145C1419.52 927.126 1419.31 927.113 1419.09 927.103C1418.95 927.097 1418.81 927.093 1418.67 927.088C1418.24 927.075 1417.65 927.062 1416.91 927.049C1415.44 927.023 1413.35 926.997 1410.7 926.971C1405.38 926.919 1397.78 926.867 1388.21 926.816C1369.08 926.713 1342.08 926.61 1309.87 926.511C1245.43 926.312 1160.1 926.124 1074.97 925.962C989.832 925.8 904.891 925.664 841.234 925.568C809.405 925.521 782.897 925.483 764.347 925.457C755.071 925.444 747.785 925.434 742.818 925.427L737.148 925.42L735.694 925.418L735.326 925.418L735.234 925.417H735.21C735.205 925.417 735.203 925.417 735.2 927.557M1459.5 2.73596L735.2 927.557M2.59413 468.242L2.59419 468.252L2.59441 468.305L2.59529 468.514L2.59879 469.34L2.61266 472.564C2.62491 475.39 2.64313 479.535 2.66699 484.817C2.7147 495.38 2.78498 510.487 2.87521 528.664C3.05567 565.017 3.31597 613.648 3.6353 662.757C3.95464 711.867 4.33299 761.453 4.74955 799.718C4.95784 818.851 5.17563 835.149 5.4003 847.141C5.62662 859.221 5.85881 866.757 6.07735 868.529C6.29862 870.324 6.49955 872.049 6.69319 873.712C8.18264 886.501 9.24078 895.586 15.8111 904.147C23.2701 913.864 32.9227 919.243 44.799 922.683C47.4013 923.437 51.7956 924.021 67.2319 924.42C82.5778 924.817 108.62 925.033 154.308 925.154C207.679 925.296 287.827 925.307 408.985 925.324C495.231 925.336 602.258 925.351 735.201 925.417H735.203L735.2 927.557M2.59413 468.242L735.2 927.557" stroke="#DAE7CE" stroke-width="4.27948"/>
</svg>
